/* XPM */
static char *_434319aad5148e9ca564280bf1245c3Avi4kubvjsZv1wzF[] = {
/* columns rows colors chars-per-pixel */
"64 64 222 2 ",
"   c #020304",
".  c #060909",
"X  c #0C0C0C",
"o  c #100E0E",
"O  c #110F11",
"+  c #141314",
"@  c #1B1516",
"#  c #191718",
"$  c #1C1B1C",
"%  c #211718",
"&  c #231C1C",
"*  c #291E1D",
"=  c #1F201F",
"-  c #20201E",
";  c #2A211E",
":  c #33241E",
">  c #261F20",
",  c #1E2122",
"<  c #232323",
"1  c #2C2424",
"2  c #2A2728",
"3  c #2C2B2C",
"4  c #322623",
"5  c #352925",
"6  c #3A2C26",
"7  c #342B2B",
"8  c #3A2E2B",
"9  c #34302E",
"0  c #3C312D",
"q  c #2E2F30",
"w  c #352F30",
"e  c #2F3132",
"r  c #333334",
"t  c #3C3333",
"y  c #383838",
"u  c #3B3B3C",
"i  c #44342C",
"p  c #49382E",
"a  c #423635",
"s  c #443936",
"d  c #4D3C33",
"f  c #453B3A",
"g  c #493E3C",
"h  c #523F35",
"j  c #513F38",
"k  c #45403E",
"l  c #4C413E",
"z  c #534136",
"x  c #54433B",
"c  c #5A453C",
"v  c #5D493F",
"b  c #62493E",
"n  c #3E3E40",
"m  c #423F40",
"M  c #3E4042",
"N  c #434344",
"B  c #4D4342",
"V  c #464648",
"C  c #494749",
"Z  c #4A4A4C",
"A  c #524643",
"S  c #5A4742",
"D  c #554946",
"F  c #5C4A43",
"G  c #554B4A",
"H  c #5A4E4C",
"J  c #5D514E",
"K  c #4E4E51",
"L  c #514F52",
"P  c #4E5154",
"I  c #535255",
"U  c #5D5352",
"Y  c #555559",
"T  c #59585B",
"R  c #5B5A5D",
"E  c #634D43",
"W  c #674D45",
"Q  c #695147",
"!  c #64524D",
"~  c #6B544B",
"^  c #71544A",
"/  c #77574D",
"(  c #73594F",
")  c #625553",
"_  c #685753",
"`  c #655956",
"'  c #6B5A56",
"]  c #645B5A",
"[  c #6B5D5A",
"{  c #735C53",
"}  c #7B5D53",
"|  c #725F5A",
" . c #6D605D",
".. c #7D6156",
"X. c #73615D",
"o. c #7C645C",
"O. c #555C62",
"+. c #5E5E62",
"@. c #605E61",
"#. c #566874",
"$. c #626164",
"%. c #6C6261",
"&. c #63666A",
"*. c #66686E",
"=. c #6A6A6D",
"-. c #746562",
";. c #766966",
":. c #7B6A65",
">. c #7C6D6A",
",. c #7D706E",
"<. c #636C75",
"1. c #6C6E72",
"2. c #706F72",
"3. c #69737B",
"4. c #737376",
"5. c #7C7473",
"6. c #74757A",
"7. c #76797D",
"8. c #7B797D",
"9. c #815F56",
"0. c #85655B",
"q. c #87665B",
"w. c #836C63",
"e. c #8A6C62",
"r. c #816E69",
"t. c #926E63",
"y. c #8D7165",
"u. c #84726D",
"i. c #8C736B",
"p. c #977569",
"a. c #94756B",
"s. c #9B796E",
"d. c #837673",
"f. c #897772",
"g. c #8C7A75",
"h. c #857A78",
"j. c #8A7D7B",
"k. c #947C75",
"l. c #9B7D72",
"z. c #917E79",
"x. c #A17A6E",
"c. c #A47E72",
"v. c #8D817E",
"b. c #9C8176",
"n. c #93827D",
"m. c #9C837A",
"M. c #A38176",
"N. c #A7877C",
"B. c #AB8579",
"V. c #B1897C",
"C. c #577484",
"Z. c #667A86",
"A. c #797D84",
"S. c #7A828A",
"D. c #6E8492",
"F. c #7B8893",
"G. c #8D8583",
"H. c #85878B",
"J. c #938582",
"K. c #968A86",
"L. c #9C8A85",
"P. c #9C8D8A",
"I. c #9D918E",
"U. c #838D96",
"Y. c #908F94",
"T. c #89939B",
"R. c #969699",
"E. c #A48B82",
"W. c #A68E86",
"Q. c #B58E81",
"!. c #AC9186",
"~. c #A4928D",
"^. c #AB938B",
"/. c #B79589",
"(. c #A59793",
"). c #AB9A94",
"_. c #AD9E99",
"`. c #B69D94",
"'. c #ACA19D",
"]. c #B8A097",
"[. c #B3A29D",
"{. c #BDA59C",
"}. c #8D99A4",
"|. c #929CA5",
" X c #979EA6",
".X c #9AA0A6",
"XX c #9AA3AC",
"oX c #A7A6A8",
"OX c #B2A5A1",
"+X c #BAAAA4",
"@X c #B9ABA7",
"#X c #BDB1AD",
"$X c #ACAEB3",
"%X c #B7B6B8",
"&X c #C2988B",
"*X c #C39E92",
"=X c #C8A599",
"-X c #D3AB9C",
";X c #C7ADA5",
":X c #D3AEA0",
">X c #C3B3AD",
",X c #CEB2A9",
"<X c #D7B5AA",
"1X c #C3B6B2",
"2X c #C9BAB5",
"3X c #D7BCB3",
"4X c #E1BAAE",
"5X c #E1BEB1",
"6X c #CBC1BD",
"7X c #D7C4BC",
"8X c #E6C5B8",
"9X c #F4CDBC",
"0X c #BDBDC1",
"qX c #C7C6C7",
"wX c #D7C9C4",
"eX c #DFD2CC",
"rX c #D5D5D8",
"tX c #E9D1C7",
"yX c #F9DACC",
"uX c #FBDED1",
"iX c #FEE4D6",
"pX c #F0F0F1",
/* pixels */
"XX X X.XXX.XY.&.C n M M C R S.|..X.X.X.X|.|.}.}.}.R.|.R.H.7.=.$.&.<.7.T.}.T.F.T.F.F.F.F.F.F.F.F.U.S.1.&.+.+.+.<.7.D.Z.7.3.Z.3.3.",
"T.T.T.|.H.T V r 3 < < 2 3 u K Y S.XXXXXXXXXXXXXX$X.XH.2.V r q 3 e r n $.7.T.XX|.|.XXXX|.|.|.|.F.4.I y e e e r u Y 1.S.F.F.F.F.F.",
"C.#.#.<.N r e q $ # $ $ $ u k C T 3.D.D.D.D.D.D.S.$.n r e < , $ - - u Z C R A.}.}.F.T.}.|.}.Z.N y r 2 = = = < q V C I 7.T.}.U.F.",
"C.#.#.+.N 3 < < # + + $ + 3 2 r T S.C.C.C.C.#.O.Y N e 3 3 # O + + + q r M @.*.#.C.C.#.#.D.#.P y 2 2 = o O # + < y u K =.Z.Z.C.C.",
"C.C.3.8.T 2 $ $ M n M V Z = $ k &.$.Y K P P Y +.6.R e - $ 3 q 3 e e 2 , 3 I A.H.F.3.O.P Z Z K K M e < < 2 3 q < < 2 u =.H.Z.#.#.",
"Z P R *.Y - + + M V M Z V < M Y Z e 2 2 3 3 r P R $.e # + N V N P Y < + < V 1.1.@.N q 3 3 3 q y K I Y K n M P y + $ Z A.1.P P M ",
"q r y Y Y M - X # # # + , Z N r r , , $ $ $ 3 Z N R Y , X $ q 3 e 3 + + $ V L u y e < = $ = = < V Z K +.Z e y - $ n R P y q q 3 ",
", < 3 I N Y Y y +       M Y y < 3 $ O + + + , q r I 8.P $ X       . + O 3 K V 9 2 q $ o O + + $ r y N =.&.,   , Z Z y y q , $ , ",
"# $ < N r K =.&.H v z D =.4.u = + e M u n N e $ < u 5.S.L 7 4 ; 1 7 g B R 4.Y 3 - - < q q q e 3 - < r R H.R < k K r 3 q 3 # + + ",
"= , < < 3 n R S.v.t... .H.$.y = O q V N N P 3 + $ r R R.6.s.x.q.0.p.B.g.2.4.R e $ + u Z N N Y M - $ 3 Z 7.H.1.=.T y < , = $ $ = ",
"Z I 3 # < q R 8.S.;.U $.0X+.= # O + # @ $ $ O # 3 r R $XH.:.~ E ~ Q / J Y.Y.M - # o = y y e u 2 + # < u S.oX6.4.=.u = # , N Z u ",
"V Z - # $ q N 1.oXR 7.0XqX+.3 $ + + .     . # , N Y 5.Y.Y.8.[ J.'.v. .&.0X Xu $ + + + . . . X o + + $ r 1.1.6.S.T r $ + $ y Z n ",
"- $ O + # < y 1.0X+.S.pX$XK ` :._ ! E c g S ~ X.5.R G U L G @.H.R.XX.XY.oXR.P e < , $ X X X X - 2 3 r Z =.R R.$XK $ # + X + $ $ ",
". X # # $ - y *.$XoX.XqXu 3 o.-X-XQ.p.0.q.t.s.!.j.g a =.5.R I L ] A.5.4.U.R.A.v.N.b.y.0.} ^ ..e.i.b.!.d.1.R.0X$XZ , $ # $ O . . ",
"# 1 r r u C Z 4.qXpX$X6Xk # e.;Xk.Q v E ^ E X.n.>.B g ` ] %.] R %.5.5.A.Y P 4.7.P.`.B.t.9.q.e.p.M.].=Xw.&.qXpXoXZ n f 2 < ; $ # ",
"0.p.s.b.V.].j.I v.rX%XqXk ; ^.b.x 4 4 d v x >.m.,.f A ) m G L I I I $.1.@.R 1. .R  .v z v b b b x ` n.k.G.rX6XC t r.`./.N.s.t.0.",
"0.0.p.N.=X=Xi.5 - qX$XoX+.k `.M.~ 6 ; z } 0.n.X.m E l.r.H m s t t f t w 1 2 m R U H t 4 d v z 5 & 5 ( n.(.rX5.$ 7 o.-X<X/.s.q.0.",
"Q E S F [ L.l.; + 6X%X X4.u y k J v v p.Q.n.` f j ^.tX8X;XN.a.a.k.i.r.:.r.-.j 1 2 k N 7 h 0.v : ; p ~ r. XrXG.- ; y.,Xn.! h h b ",
"c p ; ; i | !.6 Z rX%XS.&.n < $ r y p ~ u.G 9 7 e.8XyXyXtX4X<X=X*X*X*X=X,X3X`.F @ < f F t.&Xb.v i 9 5 n H.rXK.# 8 !.^.! 0 : 6 z ",
"~ 6 - - g { E.U A.rX|.&.I 3 3 & r 3 # = l t 2 S ;XtXwX8X<X:X*X&XV.V./.=X,X3X7X`.A & 9 B 0.s.q.F r , $ q 2.qX.Xr ! -XQ.F 9 & : h ",
"p.x i i f g B I H.rX1.r 7.n $ $ = # . + 0 0 r X.;XtX<X-X&XV.B.x.p.p.c.B./.=X3X,X>.2 & 2 2 = $ e u 2 3 y +.$XoXK y ) o.o.Q p p ( ",
"/.y.x 3 < < 3 I Y.0XK < =.=.n + + + o + 7 ; r ` `.<X-X&XV.x.p.q.q.t.p.c.N./.;X{.=.7 @ & + . . = 2 e e 2 I  X XR q , , 9 l E } N.",
"d 0 N r - < y I 4.7.r < M $.+.N $ X . $ 7 & 7 l l.=X-X&XV.x.t.0.0.t.p.c.N./.*XE.) 7 + & $ . o + o + $ Z 7.A.=.P u < $ 3 u 5 4 s ",
"O # y r 3 u u u 4.+.y k l G n C N $   & g 0 2 0 c.-X,XB.q.0.{ / } 9.9.e.s.`.;XN.g @ @ 7 3 $ X o o = V *.&.&.%.n < 2 < q r $ + + ",
"X O , , q 3 3 +.H.G z i p o.G.M u u # 3  .k + p /.{.>.x a i h v E E h s s D d.!.F + O # - # . X 3 C Z T G x 5.=.q # $ $ $ O X X ",
"X O X + O < Y 6.v.E z X.n.{.tXb.u r e y T 9 X { =Xn.E i 4 4 i c c h 6 * * i ! E...$ $ X + o . , M u M A z p  .S.$.3 o o + + X . ",
"X o + O 3 Y @.*.` m.[.#X'.;./.=XX.N n r r t 9 b.=Xe.c t * * i E } x 4 % < i F b.w.5 3 3 = # < y 3 y n.[.:.b ~ =.*.T y # o o X X ",
". . # y K Z I Y.+X1X+X[.g. .' V.e.E x s s F F N.3X`.a.E i 6 p q.M.{ i 5 i J y.`.v.k r r 3 2 3 3 e o.=X).I.'.! u P I I N $   . + ",
"  + r N u y I.2X6X>X).P.o.,.J J e.s.~ z d c o.b.4X-XB.0.E E } V.&Xl.^ h x } E.=XN.~ C M r e y u F b.!. .-.'.'.K.=.M u K n #   O ",
"# q y e e K.wX1X].[.n.n.>.r. .J J X.o.( ( Q o.W.<XQ.p.0./ ^ x.-X*X/.e.Q ^ 0.l.!.i.{ J c z k z z ~ i.X.U  .K.'.~.#X'.K 3 n y = # ",
"3 r 3 e :.<X[.OX{.I.X.o.X.X. .J l l J A D t l v.=XQ.p.q./ b /.4X*X:Xp.E } q.p.p. .i.s.~ z p z ( b.X.k J H d.#X[.6XyX!.u q y r 2 ",
"q q r ! M.=X .,.#X'.K.v.' ! J ! l 9 l ` ! ` J A J.&XM.0.^ ^ s.B.c.Q.t.b ^ q.l.;.U ) o.o.{ ( ( { J k A >.K.+X6XP.r.].-Xw.n y y e ",
"j m m { c.z.U ` I.OXOXOX(.v.X.m G a 1 a D U G 7 -.*Xc.9.9.a.q.b p F e.w./ e.l.[ m S A G S S s 2 m d.+X>X1X1X~.r.) :.`.c.E G B u ",
"j j ^ e.r.n ] _ h.).(.j.2XwX1XG.H a > 1 7 g t w U ^.Q.q.F ~ ~ p 4 d ~ ~ ~ t.i.] H s t D S m ) P.1X2X7X>X`._.d.:.-.H o.p.q.E h x ",
"j Q l.s.m m [ _ >.(.P.-.K.1XwX6X#XG.U 7 s f 4 8 j.~.!.q.p p h i 6 p s 6 F e.-.U J G 4 * [ _.wXeXwX1X1X+XW.W.f.;.r.) A _ s.M.( x ",
"} ^ W m H _ [ ) %.K.K.r.%.I.@X2X2X#X2Xd.Q m 7 D @XW.i.0.W E b i 6 p h c ~ X.X.[ J D t >.2X1X1X3X,X[.`._.J.z.r.:.>.| ) H J ' X...",
"D w w G m m ;.H ] j.n.j.) j.J.'.I.OX2X2X=.7 * ) >X-X_ E ( ^ b h p h b E v X.w.[ H l v.wXwX[.L.(._.).).~.r.:.w.X.[ ' ) B l l A x ",
"U E ) G a H ' U ] -.j.n.%.;.>.j.j.K._.2XOX7 X [ eX4Xe.t 8 j W b c Q b 6 7 p.{.g.f %.2X1X~.^.P.z.z.L.~.z.;.:.-.[ [ ) ) A 9 a J ] ",
"U | H s m ! U H [ ] >.u.| U %.%.>.v.j.A.@X2.] 2XuX-Xx.W 6 4 6 p i i 1 & c M.3X;Xj.OX>X^.z.f.f.f.u.r.g.u.-.f.u.:.-.' H ! f 1 7 D ",
"g m a t f H U U ] ] ) %.U m G G U ] ] J.2X1X~.2X8X&Xx.} c p 6 6 : : 7 x } M.-X).v.#X+XL.f.;.[ -.;.` [ [ [ r.f.r.:.| ) J S t 1 2 ",
"8 f 7 t D G ) U U ) G H m t < 8 _ h.).2X1X_.>.;.*X*Xs.} E j h d p z z Q { M.`.:.U K.+XOX_.L.J a s g m D _ | ;.r.-.-.' ! G g 8 2 ",
"B f 1 f B D H H G H A m > t H j.1X#X>X2XL.f.;.A i.*Xt._ Q c h h h z h F { l.f.) H >.(.OX_.OX(.d.H > % 8 D J _ [  .| [ D A B f f ",
") s 7 ! A G D G G f w a d.@X%X2XwX1X^.+Xk.-.f.[ H t.i.q.Q S d d z z z Q y.r.G U [ %.P._.P.v.#XwX1XG.m @ > g H J ) _ ) g f H S J ",
"g 7 7 D J | _ m a G j.#XtXeX7X1X1X+XP.).g.;.:.:.m m ' c.c.} c j p z ~ b.k.H f ` -.U J.(.P.-.G.1X6XeX#Xh.U f g N A A G H x A A A ",
"8 > 4 m D _ H t h.#X1XwX7X2X;X[.+X[.j.W.r.r.r.:.[ U H _ e.p.q.} ( ..o. .A G H ) [ H d.P.P.:.%.K.+X2XwX6X#X'.K 1 s s m H g a g g ",
"7 % t f g a 7 h.wXwX+XW._.+X_.^.).(.r.f.r.;.;.| | U m G f m G S ! F 0 4 l J A ) ] H ;.J.J.d.` 5.~.'.OX_.#XtXOXB 1 a s g t 7 s a ",
"> & s f m 1 [ 2X2X+X`.J.n.^.P.~.^.J.[ r.;.| [ ) ) ! m a m G G m k f 9 A U k B ] U H %.h.z.v.[ -.d.v.K.K.(.OXqX_.f > 7 0 0 7 0 7 ",
"% > s t 6 m 1X2X^.L.K.~.z.g.k.z.W.g.[ i.r.[ | [ ! _ H i i m _ o._ [ X.` k a G ) G ) [ ;.h.z.;.[ -.>.8.j.J.~._.>Xd.7 i j m 7 1 8 ",
"4 2 0 7 5 g.2X_.^.j.u.>.g.:.:.-.u.r.[ f.f.r.r.X._ G _ m 4 > w m H ! ! m a m H U H U ] ] -.>.[ H U %.%.>.j.d.d.'.OX[ j E S 6 4 s ",
"6 8 f j j `.[.n.f.z.u.[ ] X.' _ ) | [ r.u.u.w.:. .J J ! g 8 > 4 a f m a a m H _ H ) [ ] ) [ U m m B H +.%.%.d.I.'.j.^ / j i i S ",
"i i W S Q +X~.f.[ _ [ [ A A B B m S ` | -.:.:.;.X.[ H E m d 7 7 7 a a 7 a m H _ ) ) ) U G H m a w t m m G %.>.5.(.G.m h h p c / ",
"m i c p { +XL.g.:.G m c g t 7 7 w a D J _ [ | [ | [ A G m m a a m m i i m m m H H H H H m A f 8 7 7 8 g L U ) ;.Y.j.s * * * a E ",
"m i 6 6 { _.f.r.:.-.D t 8 7 1 @ > 7 a D H _ ) _ _ ) m s ! D E ' _ E w s m m Q G G H D D m m a 7 3 * w m m m ) %.5.L.H 1 4 4 d j ",
"/.Q.z.l.^.P.;.| ) S D g 7 1 > @ @ > 1 g m m D D H H D d W D m ^ E m 1 a H _ _ _ A m m m m f 7 7 > > w t g A I U 1.I.{.=X*X`.{./.",
"uXuXuXuX7XJ.| H A g s t 2 1 & @ @ > > i j g m g m S ) m g j g m m 4 % t m ^ [ | E m H m f t 7 > > 2 a t a m U -.,.K.8XiXyXyXuXuX",
":X<X5X4X<X~.r.) D B f t 7 1 & @ O % @ 1 7 a t a a g G f w f g m a 1 > w m m m E m j m m t 8 > @ > t w w m H ] %.>.G.V.V.Q.*X-X=X",
"N.c.c.c.{.~.z.:.H a a s g t 1 @ O # @ > 1 7 w t t a a i 4 s f 8 8 > > f m m a a t r t f t 1 > @ 3 t 7 B L G J ] =.v.:.b q.V.&XV.",
"V.N.c.p.`.).f.>.:.[ A a a g s 1 @ @ O > > 4 4 7 7 7 w a 2 8 t > % % 4 s m j a 7 7 7 7 t t 1 $ & 1 7 f G J ]  .-.5.I.K.~ b 9.p.V.",
"e.l.c.M.!.~.g.>.:.u.u.[ A f g t % @ O % > > 4 8 8 0 f A 8 > a > % % 7 s a 6 8 a g F S g t 1 % @ 7 B G ) >.d.d.v.I.@X@X/.x.^ h b ",
"p c { 0.[.L.z.f.:.:.u.u.| A g B 4 @ O % 1 4 i j S S E E i & a a 4 > 7 w 4 i m W ~ { { E g 1 @ * B U %.h.d.,.v.I.).(.'.:X-XV./ p ",
"i 8 i [ >X).g.g.z.>.X.-.:.' A A g @ O @ % 6 c v ^ { _ x p 6 d H s 4 8 s j b W W Q ~ Q E E a @ 2 G %.,.d.v.P.'.'.).P.P.E.x.x.t.b ",
"h i 4 :.>X^.m.u.r.g.r.X.:.:.' H j % o @ % i c h S E Q c p h E ' m 8 d j W m W ^ v h x h i i & w U ;.G.`.3X8X9XtXtX7X'.r.b / / b ",
"E z d } [.z.r.r.:.:.:.:.[ [ ' ! m * o @ 6 i i 4 4 i s p i p / } ~ i j E j W W j i % 6 4 O @ O 4 ) N.:X8X9XuXiXiXiXiX<X>.x E b E ",
"x z i l L.E.E.!.!.!.N.m.k.:.) S f @ o % 6 4 % % % 1 * * & 6 j m W s i h h j i % O % / w.! ! ! | E.4X9X5X8XyXiXyXyXtX8Xy.z v E v "
};
