/* XPM */
static char *d156d41f75a64d2582edcd2d89ec34bbypDBeMxk1rH1BNyq[] = {
/* columns rows colors chars-per-pixel */
"64 64 238 2 ",
"   c None",
".  c #000000",
"X  c #0C0202",
"o  c #090808",
"O  c #130203",
"+  c #1B0102",
"@  c #191601",
"#  c #0E1312",
"$  c #061111",
"%  c #16131B",
"&  c #0B0913",
"*  c #2A0102",
"=  c #250404",
"-  c #370407",
";  c #261B01",
":  c #2B2601",
">  c #322B01",
",  c #3C3501",
"<  c #363101",
"1  c #272510",
"2  c #1D2626",
"3  c #2A2929",
"4  c #2F3837",
"5  c #2C3433",
"6  c #333938",
"7  c #400000",
"8  c #4B090B",
"9  c #49050A",
"0  c #540A0D",
"q  c #5C0A0E",
"w  c #560508",
"e  c #5B191B",
"r  c #630B0E",
"t  c #68060A",
"y  c #690B10",
"u  c #770E12",
"i  c #77000E",
"p  c #433C01",
"a  c #412106",
"s  c #4B4302",
"d  c #554C02",
"f  c #594E02",
"g  c #5C5102",
"h  c #5C5901",
"j  c #665A02",
"k  c #6C6102",
"l  c #666102",
"z  c #766902",
"x  c #7C7003",
"c  c #5E5C33",
"v  c #633F40",
"b  c #394141",
"n  c #4F5253",
"m  c #71705C",
"M  c #5B6565",
"N  c #626B6B",
"B  c #61626B",
"V  c #6B6D74",
"C  c #695E5C",
"Z  c #86060B",
"A  c #8D070C",
"S  c #870C14",
"D  c #8B1015",
"F  c #971117",
"G  c #910C10",
"H  c #A60F15",
"J  c #AB0716",
"K  c #A81319",
"L  c #B3141B",
"P  c #B9171B",
"I  c #B90B1E",
"U  c #8F3310",
"Y  c #B63B13",
"T  c #DB0C14",
"R  c #D90C1D",
"E  c #D80317",
"W  c #C9171E",
"Q  c #DC131C",
"!  c #D5181E",
"~  c #CE0113",
"^  c #E30D16",
"/  c #E40F19",
"(  c #E6151D",
")  c #E9141D",
"_  c #E8191E",
"`  c #DE2C1C",
"'  c #C5201B",
"]  c #E83B17",
"[  c #D90D23",
"{  c #D80325",
"}  c #DA1122",
"|  c #D31920",
" . c #DC1921",
".. c #D91728",
"X. c #CF0423",
"o. c #E41A22",
"O. c #EC1B24",
"+. c #E71522",
"@. c #EF1825",
"#. c #DD242D",
"$. c #DB252D",
"%. c #DD2731",
"&. c #DE2A32",
"*. c #DE2B3C",
"=. c #DF323B",
"-. c #E33032",
";. c #B3480D",
":. c #B94E11",
">. c #847503",
",. c #8B7C03",
"<. c #947404",
"1. c #99660A",
"2. c #C75214",
"3. c #DE5618",
"4. c #E3461B",
"5. c #E4491A",
"6. c #E74516",
"7. c #E85114",
"8. c #E96716",
"9. c #E96816",
"0. c #F16C13",
"q. c #E44E31",
"w. c #E06F31",
"e. c #DF3340",
"r. c #E13B45",
"t. c #E34B56",
"y. c #E34E56",
"u. c #E55969",
"i. c #E65F70",
"p. c #E7666D",
"a. c #E76977",
"s. c #EA7579",
"d. c #D96361",
"f. c #948403",
"g. c #9B8B03",
"h. c #9D9303",
"j. c #A69303",
"k. c #A99503",
"l. c #AC9A03",
"z. c #B39F04",
"x. c #A08E03",
"c. c #B9A504",
"v. c #B4A802",
"b. c #EF8509",
"n. c #F39D06",
"m. c #EF8B11",
"M. c #F99910",
"N. c #F18C0B",
"B. c #C3AC04",
"V. c #C8AF04",
"C. c #CAB304",
"Z. c #C7B403",
"A. c #D8BF04",
"S. c #D2B904",
"D. c #F3A00E",
"F. c #F4A80D",
"G. c #F9A70B",
"H. c #F8BB09",
"J. c #F5AD11",
"K. c #E99F25",
"L. c #DDC304",
"P. c #DBC904",
"I. c #CFC003",
"U. c #E5CB05",
"Y. c #EACE05",
"T. c #E1C604",
"R. c #FBC607",
"E. c #EBD304",
"W. c #F5DA05",
"Q. c #FEDE03",
"!. c #F9D505",
"~. c #FACB1C",
"^. c #FFE304",
"/. c #FFEA03",
"(. c #FDE60A",
"). c #FFF205",
"_. c #FFFD05",
"`. c #FFE617",
"'. c #FBD328",
"]. c #FFEA26",
"[. c #FFEB36",
"{. c #FFF52C",
"}. c #FFF34A",
"|. c #FFF45B",
" X c #FFEE4E",
".X c #FFF769",
"XX c #FFF975",
"oX c #FBD966",
"OX c #A5A469",
"+X c #EA7989",
"@X c #EB7E90",
"#X c #7C8484",
"$X c #808888",
"%X c #929A9A",
"&X c #959697",
"*X c #8C9094",
"=X c #9D9DA2",
"-X c #B7BDBC",
";X c #B8B8B9",
":X c #ACB2B2",
">X c #C78F91",
",X c #EC8997",
"<X c #EE9299",
"1X c #ED8A8B",
"2X c #EE95A3",
"3X c #F1A7AB",
"4X c #F1A6B4",
"5X c #F3B3BB",
"6X c #F6BFA0",
"7X c #F5BB8A",
"8X c #BAC0BF",
"9X c #FFFD96",
"0X c #FEF286",
"qX c #FFFEA8",
"wX c #FFFDB7",
"eX c #F9D09A",
"rX c #F5BCC7",
"tX c #BAC0C0",
"yX c #D1D3D3",
"uX c #F6C4C8",
"iX c #FADBDD",
"pX c #F9D6D6",
"aX c #F7CDD8",
"sX c #FFFBC8",
"dX c #FBE4DE",
"fX c #FCE9DE",
"gX c #FCE8D2",
"hX c #FFFDD9",
"jX c #F9DAE5",
"kX c #ECEDED",
"lX c #E2E3E3",
"zX c #FBE3E3",
"xX c #FCE9E9",
"cX c #FEF7E7",
"vX c #F3F4F4",
"bX c #FFFFFF",
"nX c #FFFFF7",
"mX c #EFF0F0",
/* pixels */
"                        + q 0 0 0 0 0 0 0 0 0 0 0 0 0 0 0 0 0 0 0 0 0 0 0 0 0 0 0 0 0 0 0 0 0 0 0 0 0 * .                       ",
"                        0 @.O.o._ _ _ ( ( o.+._ _ ( ( o._ _ _ ( +._ _ ( +._ O.( _ _ _ _ ( +.( _ _ O.@.u .                       ",
"                        8 o. .$.%.%.%.%.&.&.&.%.%.%.&.&.-.&.$.$.%.%.&.&.&.&.%.%.$.%.&.&.&.&.%.&.&. .O.u .                       ",
"                        8 o. .uXxXdXiXiXiXiXdXfXdXfXiXiXiXiXzXfXdXfXiXiXiXiXdXfXdXfXdXiXiXiXiXxXpX$._ u .                       ",
"                        r o.$.xX}.~.e.=.*.q.'.].].'.=.-.=.=.'.].].].q.*.=.*.K.].].].w.*.=.*.w.{.cX=._ D .                       ",
"                      . K ( t.cX/.G.E [ R ` Q.Q.^.R.! ( _ _ R.^.^./.7./ Q R b./.Q./.0.R Q R 9./.hXt.Q P .                       ",
"                      + | T s.sX/.F.}  .} ` !.(.^.R.o.! F w >././.h.w A | +.m./.Q./.9.[  .} 8./.wX,XT  .*                       ",
"                    . u o.Q uX.X^.F.}  . .` !.^./.R.D = 3 M % ,.k.# M 5 + i m.).^./.9.[  .[ 8./. XiX .+.F .                     ",
"                  . 8 o.T p.hXQ./.F.}  . .` !.).P.> % :XvXbXyXo . ;XbXbX:X2 ; C.)./.8.[  .[ 9./.Q.sX+XT _ r .                   ",
"                . q ! Q $.zX XQ.(.F.} ! } ` ^.c.@ B mXbXbXbXbX:X&XbXbXbXbXvXV X j._.8.[  .[ 9./.Q.[.xXe.T #.u X                 ",
"  . O + + + - q P o.T &.iX7XQ.Q./.F.}  .} ] k.. *XbXbXbXbX;XvXbXbXbX-XvXbXbXbX&X. h.0.}  .[ 8./.Q.Q.oXxXt.T _ P y - + + + O .   ",
"  . F  .| | o.o.( T t.zX2X] ^.Q./.F.}  .o.' X *XbXbXbXkXn o kXbXbXvX3 n kXbXbXbX=X. Y o. .[ 8./.Q./.b.+XxXy.T T O.o. .|  .K .   ",
"  . F O.Q T Q ..t.3XiXp.E 5.^.^./.G.}  .o.- n bXbXbXvX4 + # kXbXbXbX6 + 3 kXbXbXbXV = Q  .} 8./.^./.m.E u.pX5Xu.#.Q T R O.L .   ",
"  . F o.r.2XrXdXhXeX$.T Q 5.^.Q.^.F.} o.H o lXbXbXbXN * H # kXbXbXbX4 A 7 n bXbXbXkX$ G o.[ 8./.Q./.m.[ T  .1XhXzXuX2Xt.+.L .   ",
"  . F / i.hX|.[.(.n.R  .} 5.^.^./.F.} +.w b bXbXbXlXo P L # kXbXbXbX4 A ! X yXbXbXbXn - o.[ 8./.Q./.m.[  .[ ] ^.[.|.sX1X^ L .   ",
"  . F ) i.qXQ.Q./.D.[  .} 5.^.^./.G.} _ - N bXbXbX-X+ +.H # kXbXbXbX4 Z O.* %XbXbXbX#X= o.} 9./.Q./.m.[ Q ! 6.Q.Q.Q.9X@XT L .   ",
"  . F ^ i.qXQ.Q./.D.}  .} 5.^.^.^.F.} o.7 N bXbXbX-X+  .H # kXbXbXbX4 Z O.* %XbXbXbX#X* o.[ 8./.Q./.m.[  .} 4.^.^.Q.9X@XT K .   ",
"  . F / i.wXQ.Q./.D.} | } 5.^.^./.F.} O.7 N bXbXbX-X+ Q H # kXbXbXbX4 Z O.* %XbXbXbX$X*  .[ 9./.Q./.m.[  .} 4.^.Q.Q.9X+X^ L .   ",
"  . D / u.wXQ.Q./.M.}  .} 5.^.Q./.F.} o.- N bXbXbX-X+  .H # kXbXbXbX4 Z O.* %XbXbXbX$X* o.} 8./.^./.m.[  .} 4.^.Q.Q.9X+X^ K .   ",
"  . u ) u.wXQ.Q./.D.[  .} 5.^.^.(.F.} o.7 N bXbXbX-X+ o.H # mXbXbXbX4 Z O.* %XbXbXbX$X*  .[ 8./.Q./.m.[  .} 4.^.Q.Q.qXa.^ F .   ",
"    y ) t.sX^.Q./.D.}  .} 5.^.Q.^.F.} O.7 N bXbXbX-X+  .H # kXbXbXbX4 Z O.* %XbXbXbX$X*  .} 9./.Q./.m.[  .} 4.(.Q.Q.qXp./ D .   ",
"    r ( r.gX^.Q./.D.} | } 5.^.^./.F.} o.7 N bXbXbX-X+ Q H # kXbXbXbX4 Z O.* %XbXbXbX#X* o.[ 8./.^./.m.[  .} 4.^.Q.Q.wXu.) u     ",
"    8 +.=.gX(.Q./.M.}  .} 5.(.Q./.F.} O.- N bXbXbX-X+  .H # kXbXbXbX4 Z O.* %XbXbXbX$X*  .[ 9./.Q./.m.[  .} 4.^.Q.Q.sXt.) r     ",
"    - +.%.gX`.Q./.D.[  .} 5.^.Q./.F.} O.7 N bXbXbX-X+ o.H # kXbXbXbX4 Z O.* %XbXbXbX#X* o.[ 8./.Q./.m.[  .} 4.^.Q.^.gXr.( 0     ",
"    =  . .pX].Q.^.D.} ! } 5.^.^.^.F.} o.7 N bXbXbX-X+ Q H # kXbXbXbX4 Z O.* %XbXbXbX$X*  .[ 8./.^./.m.[  .} 4.^.Q.`.gX&.( -     ",
"    O W Q uX}.Q./.D.}  .} 5.^.^./.F.} o.- N bXbXbX-X+ o.H # kXbXbXbX4 Z O.* %XbXbXbX$X* o.[ 8./.Q./.m.[  .} 4.^.^.].pX .Q =     ",
"    . P ^ 4X.XQ./.D.}  .} 5.^.Q.^.F.} O.7 N bXbXbX-X+  .H # kXbXbXbX4 Z O.* %XbXbXbX#X*  .[ 9./.Q./.m.[  .} 4.^.Q.}.rXQ W O     ",
"    . F ^ ,X0XQ./.D.[  .} 5.^.^./.F. .o.7 N bXbXbX-X+  .H # kXbXbXbX4 Z O.* %XbXbXbX$X* o.[ 9./.^./.m.[  .} 4.^.Q..X4X^ L .     ",
"      u ) p.wXQ./.n.} Q  .5.^.^./.F.} O.- N bXbXbX-X+ o.H # kXbXbXbX4 Z O.* %XbXbXbX#X*  .[ 8./.Q./.m.[ ! } 4.^.Q.9X@X^ F .     ",
"      0 +.r.cX`./.D.[  .} 5.^.Q.^.F.} o.7 N bXbXbX-X+  .H # kXbXbXbX4 Z O.* %XbXbXbX$X* o.[ 8./.Q./.m.[  .} 4.^.Q.sXu.) y       ",
"      * +.$.zX[.^.D.}  .} 5.^.^./.F.} O.7 N bXbXbX8X+ Q H # mXbXbXbX4 Z O.* %XbXbXbX$X*  .} 8./.^./.m.[  .} 6.^.`.cXr.( 8       ",
"      X P R uX.X/.D.} ! [ 5.^.^./.F.} o.7 M vXvXvX:X+ o.H # lXvXvXvX4 Z O.* *XvXvXvX#X* o.[ 8./.Q./.m.[  .} 4.^. XpX .| +       ",
"      . S ^ <XqX/.D.} | } 5.^.Q.(.F.{ +.9 & % % % & + o.K . % % % % . S @.- & % % % & * [ { 8./.Q./.m.[  .} 4.^.XX5X^ K .       ",
"        0 / t.sX/.n.}  .} 5.^.^.(.H.5.7.2.:.;.;.;.;.2.5.3.:.;.;.;.;.:.3.7.2.:.:.;.:.;.2.7.5.m.(.Q.(.m.[  .} 4.^.wX+X) y .       ",
"        = }  .iX{.n.[  .} 5.^.^.Q.^.^.).!.Q.(.(.(.(.W.).W.L./././.^.^.Z.Z.S.Y.!.W.Y./.Q.(./.(.Q.^./.m.[  .[ 5.`.dX&.+.-         ",
"        . L ^ 4XXXn.}  .} 5.^.Q.Q.Q./.C.@ : > U.).f.@ T.z.< (.(.>.> L.j ; h.j k.z.k P.; f./.^.Q.Q./.m.[ | ! 6.}.rXT W X         ",
"          u ) u.wXG.}  .} 4.^.^.^.Q.^., z p g d E., x j c.< (.Z.> j >.U.s _.z f.j.z j z , Y.^.Q.Q./.m.[  .} 6.qX+X^ D .         ",
"          - Q $.fXK.Q  .} 5.^.^.Q.^.U.p Y.p A.< l.d Y.s k., ).g.d B.f L., ).f.x g.x p E.s B.(.Q.^./.m.[  .} 4.hXr.( 8           ",
"          . L ^ 3X6XT  .} 5./.Q.Q.^.L.s Y.p L., j.d U.s k., ).f.f B.f A.p (.A., d h.s Y.s B.^.^.Q./.m.[  .T s.uX^ W X           ",
"            r ) y.xX&.! } 4.^.^.Q.(.T.s Y.p L., k.f W.s k., ).f.g C.f L.p ^.(.f . C.p W.d B.(.^.Q./.m.[  . .jXp.^ S .           ",
"            X W / uX1XT R 5.^.Q.Q.(.L.s Y.p A.p l.> z p k., ).g.> j f L.p ^./.B.: W.< z : B.^.Q.^./.m.[ T p.zXo.W +             ",
"            . y ^ t.dX#.R 5.^.^.Q.^.T.s Y.p A., l.> >.p k., ).g.> k f A.p (.).>.j ^.< >.> B./.Q.Q./.m.[ ! pXp./ D .             ",
"              O W ^ 5X<XE 5./.Q.Q.^.T.s Y.p A., k.f W.s j.p _.f.f A.d L.p (.W.< A.^., W.d B.(.Q.Q./.m.E s.uXQ | =               ",
"              . y ) =.xX=.] ^.^.Q.(.L.s Y.p A., j.d U.s l.@ j z g c.d A.p /.f.j /.W., Y.s B.(.Q.^./.b...zXy.( S .               ",
"                O P / 1XaX5.^.Q.Q.Q.W.Y.^.U.^.A.W.U.Q.Y.!.C.C.U.Y.W.U.^.L.^.V.Y./.(.L.W.L.W.Q.Q.Q./.b.5X3XT | +                 ",
"                  *  .Q rXeX!.^.Q.Q.(.c.c.S.j.!.c.c.Y.k.C./.L.L.c.U.L.C.W.Y.z.c.Z.j.L.c.L.Y.^.Q.Q.Q.0XjX .+.8 .                 ",
"                  . y _ $.zX|.Q.Q.(.Y.d x z f j ,.f.z g k (.j f l.j.,.g T.V.k.g.j g z ,.j.B.(.^.^.[.xX*.( D .                   ",
"                    X H / t.xX XQ.^.Y.>.d j k.c.,.g.z k x /.l j f.,.z l k.c.>.,.k k k k x Z.^.^.].cXu.^ P X                     ",
"                      + W T a.bX].^./.v.v.P.^.^.z.c.Y.E.C.^.L.Y.B.c.c.P.l.P.l.V.S.k.U.Z.l./.^.(.cX,XT  .*                       ",
"                        - | T +XhX~.b.n.M.G.Q.^./.Q.M.M.M.M.!.(.^./.J.M.M.M.R.^.^./.H.M.G.N.F.sX2XQ  .8 .                       ",
"                        . 8 o.T <XfX..E [ #.!.^.^.R.| = X q H.(.^.W.4.X.} X.: @ j /.8.{ R R rX5XT O.q .                         ",
"                          . r o.Q 3XiX&.R ` !.^.^.R.8 . . = 1.f.h.,.U q | 8 . . g /.8.R  .uXuXQ +.u .                           ",
"                            . r _ T ,XfX` ` !.Q.^.f.. . . = 1.j h z a r u . . . g /.7.} pX3XQ _ u .                             ",
"                              . u O.T ,XzXd.R.Q.!.@ 8 O . - <.g.z.>.U r O 9 X . j ^.K.pX3XQ _ S .                               ",
"                                . y ( T p.zX.XQ.d > W . . 0 R./.^.^.4.9 - I . . g .XxX+XQ _ S .                                 ",
"                                  . 0 o.^ r.jXOX. c.P . . 0 H.^.Q.^.U . L I . . c xXt.T o.y .                                   ",
"                                    . 9 | Q $.o m oXK . . 8 R./.Q.W.X q Q J . . n %.^  .0 .                                     ",
"                                      . + L r = t.xX>X. . w H.^.(.k * E &.>X. . w +.W * .                                       ",
"                                          . . W T $.s.. . e H.^.j.. q.1XpX>X. . q F O                                           ",
"                                          . . + 8 q 9 . . 3 m XX1 o M n r 9 . . X .                                             ",
"                                          . . . . . . . . . . rX. . . . . . . . . .                                             ",
"                                          . . . . . X . . = t Q r w r q - O . . . .                                             ",
"                                                      . . - W o.O.! F - .   . . .                                               ",
"                                                      . . . O 0 0 O .       . . .                                               "
};
