/* XPM */
static char *edec13c85db3495ceab62d466bc90eabdbYkaFieP2aBa0z0[] = {
/* columns rows colors chars-per-pixel */
"64 64 112 2 ",
"   c #0E0E0E",
".  c #141414",
"X  c #181617",
"o  c #181718",
"O  c #171818",
"+  c #1B1B1B",
"@  c #201F1F",
"#  c #1F201F",
"$  c #211F20",
"%  c #242323",
"&  c #292626",
"*  c #2C2927",
"=  c #292728",
"-  c #2D2B2B",
";  c #322D2C",
":  c #35312E",
">  c #312F30",
",  c #392F31",
"<  c #353233",
"1  c #3A3534",
"2  c #3D3936",
"3  c #393638",
"4  c #3D3B3A",
"5  c #423D3B",
"6  c #45413E",
"7  c #423F40",
"8  c #454242",
"9  c #4A4544",
"0  c #4E4946",
"q  c #4A4748",
"w  c #4D4A4A",
"e  c #514747",
"r  c #504B47",
"t  c #524D4B",
"y  c #56514E",
"u  c #58524F",
"i  c #514F50",
"p  c #594F50",
"a  c #555252",
"s  c #5B5553",
"d  c #5E5956",
"f  c #5D5758",
"g  c #5E5959",
"h  c #605B57",
"j  c #625D5B",
"k  c #66615E",
"l  c #68635F",
"z  c #635F60",
"x  c #666261",
"c  c #6A6563",
"v  c #6E6966",
"b  c #696769",
"n  c #6E6A6A",
"m  c #716B67",
"M  c #726D6B",
"N  c #76716D",
"B  c #78736F",
"V  c #767372",
"C  c #7A7573",
"Z  c #7D7976",
"A  c #7D7A7A",
"S  c #827D7B",
"D  c #85817E",
"F  c #7F7F80",
"G  c #807F80",
"H  c #858283",
"J  c #8A8584",
"K  c #8A8987",
"L  c #878688",
"P  c #898789",
"I  c #8D8B8C",
"U  c #908E8E",
"Y  c #91908F",
"T  c #959394",
"R  c #989797",
"E  c #9A9897",
"W  c #989798",
"Q  c #9A9A9B",
"!  c #A19F9E",
"~  c #A09FA0",
"^  c #A3A3A4",
"/  c #A9A7A7",
"(  c #A8A8A7",
")  c #A7A7A9",
"_  c #A7A8A9",
"`  c #AAAAAB",
"'  c #AEAEB0",
"]  c #B0AFB1",
"[  c #B3B2B4",
"{  c #B7B7B9",
"}  c #B8B7B8",
"|  c #BCBCBD",
" . c #BEBFC1",
".. c #BFC0C2",
"X. c #C3C3C4",
"o. c #C6C7C9",
"O. c #C7C8CA",
"+. c #CBCCCD",
"@. c #CECFD1",
"#. c #D0CFD1",
"$. c #CFD0D2",
"%. c #D3D3D5",
"&. c #D6D6D9",
"*. c #D8D7D9",
"=. c #D7D8DA",
"-. c #DADBDC",
";. c #DEDEE0",
":. c #DFE0E2",
">. c #E2E2E4",
",. c #E6E6E8",
"<. c #E9EAEC",
"1. c #EFF0F2",
/* pixels */
"%.%.%.%.%.%.%.&.&.&.*.-.*.&.-.*.$.X.[ _ ~ ` ..%.` I :...F I n A 4 i ' =.=.%.&.=.-.-.;.;.%.$.-.-.-.-.-.&.-.&.*.*.-.*.*.*.*.*.*.*.",
"%.#.+.@.@.%.%.%.%.%.%.%.&.%.+... . .R z i 4 7 n I V z 7 % # # % + # 4 Q +.$.$.=.-.-.-.-.%.$.-.-.-.-.&.&.&.&.&.&.&.%.%.%.%.%.%.%.",
"[ +.X.X.O.+.+.+.+.@.@.%.O._ W M w a 8 - - # + # - > # # O O O + # O . 4 F T [ =.>.:.-.-.&.$.-.-.-.&.+.%.#.#.#.#.#.#.#.#.@.#.+.+.",
"F +.+.+.@.@.@.$.%.%.%.#.T A A a > # # . O # # # # - % O .   + O O O O # % 3 i F [ -.:.;.%.%.-.-.-.&.%.%.%.&.&.&.&.%.%.&.%.%.%.%.",
"' @.%.%.%.%.&.&.;.:.,.[ z > # + + .       . . O O # .     . . # % + # % O + % % w Q -.,.&.%.=.;.-.-.-.-.-.-.-.-.-.-.*.-.*.*.-.*.",
"@.%.%.%.&.&.&.;.%.{ Q b > + . .     .             . . .     . . . . % % + + + O + 4 ~ ,.-.$.-.-.-.-.-.;.-.-.-.-.-.-.-.-.-.-.-.*.",
"%.%.&.&.*.*.>.%._ F q = O O + O X . . . . . . O # O O O . O O . . . % O . + + O + O 4 ) ;.%.=.;.-.-.;.-.-.-.-.-.-.*.*.*.*.&.*.*.",
"%.%.@.@.#.-.@.L q - + . . . O # O .   . + + # O   . O # O # O O . . O O O # + + # + # i ^ $.;.:.-.-.%.%.&.%.%.%.%.%.%.%.%.%.%.%.",
"&.$.O.O.$.=.A < % O . . . . O . . . . .   X % & +   . O % & + O O + + . + # % O O % % % i I { :.>.*.*.*.%.*.*.*.&.%.%.&.%.%.%.&.",
"&.&.$.%.:.^ q 3 + . . . . O . . X o + X .   . + $ O O . + = % o . # = + + % = + + % % # = g I ' *.>.*.-.*.-.-.-.-.-.-.-.-.-.-.*.",
"&.&.=.:.+.b i >   . .       . O X X . X O X . . o + + O O % $ $ % # = # # = = % % $ + % % 8 A I ] >.;.-.-.-.-.-.;.-.;.-.-.-.-.;.",
"&.&.-.=.~ q 3 .   O O .       . X X . + % * & & % $ + O . % % - > > # # O + # + O . . % = - w s D ;.<.<.>.>.>.-.;.;.;.-.;.;.;.-.",
"&.&.$.X.x - +   . + + O O     . X X + % < 9 0 e 8 1 & $ o o % - 3 3 % + O + % # .   . $ = & 8 b Z ! | ..X.+.%.*.*.-.*.*.&.*.*.&.",
"&.+.| L > % % $ + O X X O .   O + + & < 8 r t s s t 1 > % . O $ > 3 - # # + - % . % * = - = 7 H E D ( ` ] [ | %.*.%.%.%.%.%.%.%.",
"&. .T 8 % $ & & % X X + O X $ = ; 1 6 t s a u t a a 9 1 , % $ @ + > > = + O > % < s 8 1 > = 3 n Y ( +.$.$.+.X.&.-.-.*.-.-.*.*.-.",
"-._ g < < + % & + + + + @ & : 4 9 t h c v l l j h h d 1 1 2 > ; % = - = = + > 3 x c 5 8 3 - 3 8 u S X.:.>.*.$.;.-.;.;.-.;.;.;.-.",
"&.H 8 4 > # = - % + + + - 2 6 t u k v m m v l l c m c t 5 5 ; 1 > % * % 4 < 7 g B l 2 2 5 < 3 < 1 8 n _ =.$.-.:.;.:.:.-.:.:.;.-.",
"O.b q 7 - # - > - # + % 1 9 y s k l m l l l k l c m c j 5 1 ; ; - # % % 4 8 q n l s 5 * > 1 > 4 a i 4 z ..-.:.-.-.-.-.-.-.-.-.-.",
"..g 8 > < = + # - = # - 5 t s j l l l l k h l m m j s s u t 9 ; & # * % - 7 9 j s r 4 * # = < < q a 8 i ^ >.=.=.%.=.=.%.%.&.&.%.",
"..b 8 < 8 3 O . * > * * 2 9 y d k k k l l m Z B a 9 s c c l u e 1 % - = = 8 8 7 0 s 9 1 * > - # % 7 a a Z @.:.=.=.=.=.=.=.-.=.=.",
"+.A q 7 4 7 % . # > - # & 5 r d l c v N Z D B 0 : u v l h 6 6 u r : ; 1 : 3 5 8 5 9 u h 6 1 > # = q n x n _ -.:.;.-.;.;.;.-.;.;.",
"%.I i i 3 > = + # # - # * r x v N N B S Z l 2 % 6 y 6 : ; 5 6 h y 2 : 2 4 - 5 w s 8 k N 9 - < 3 > 3 j F _ _ ..>.;.;.;.;.;.;.;.-.",
"=.W a a 3 % > = # O * > 6 l Z Z C B B N y & % 2 e 5 , 5 5 5 j j d 6 : < 2 4 4 5 9 s k v 9 % > 4 < q V ' :.%.+.>.-.;.;.-.-.-.-.-.",
"&.I A i > - 7 7 % # > 2 4 y l n B Z N u 5 6 6 2 5 B j m l h m l k 0 : ; ; 4 9 q 6 w u d y < 1 2 - a _ +.$.$.%.=.*.&.&.=.=.&.&.&.",
"&.F ` z - > 7 7 % # 3 4 - % > 4 u M C N N l 5 * 5 l S N m S N m v u : : : 2 d d e 7 t a a r 9 < * m +.>.*.%.-.*.&.&.*.&.&.&.&.&.",
"O.T $.V < % q 8 < # 4 8 > > = # * 5 s B S l 5 5 h l v S S S S S N h 2 : r 6 k B h 9 n H k p t 9 n Q [ ;.>.;.;.;.;.;.-.;.;.;.-.-.",
"` [ :.V q > b i 7 - > a 4 = - q j 1 6 M S l h h m l m S S N S B v k r 1 6 < i B Z d a Z S N M U +.-.*.;.>.>.;.>.;.;.;.-.;.;.;.;.",
"_ $.+.I F 7 b b i 3 < i 7 # > i f s k M S S S S S S m l N N M m v l u r 6 5 5 c Z A f N S M l C o.1.>.;.;.;.;.;.;.;.;.;.;.;.;.-.",
"..;.O...T V i b V q 7 8 3 - > i c x c v m S S J S m N m N S S m N m l u s w 8 c B Z B N Z C l c ! :.:.-.;.-.-.-.-.-.-.-.*.-.-.&.",
"$.;.......A q A V q i > q q # 8 M j j m M S S S S m j l m B N S B N C h s c s s l N J B v Z m k D ..>.=.*.*.*.&.&.&.&.&.&.%.%.&.",
"=.=.+...%.O.z z g q L z > a z q z v z S J J G G S m p m B B S B C Z B B l C Z l k m D n h l h h m ^ >.:.;.-.;.-.-.;.-.-.-.-.-.-.",
"%.=.=.+.+.;.+.z q q F F 4 V { V 9 z M G I S M j l s h M S S S S D B Z Z D D Z C B N c d j d y d c D X.,.>.;.;.;.;.;.;.;.-.;.;.-.",
"&.&.&.&.%.@.:.W V b a F b n X.' q p U S S m p f c z v B S D C M B S D Z Z B B m k y 6 h d 6 9 l C Z G  .<.>.>.;.;.>.;.;.;.;.;.;.",
"&.-.&.&.;.&.&. .W W V L A V ] ] P / X.! j z z z h v M M N s 5 s k N Z Z N m l s 6 5 6 s 6 6 k l h j z J | -.>.;.;.-.;.-.-.-.*.*.",
"&.;.&.%.+.%.O.{ ' ) W Y T A T @.O.O.*.#.U j z h h p 5 5 , 1 e B v l v m v l r 2 , 5 9 6 r u u d z V S S R ` } #.-.*.*.*.*.%.*.%.",
"&.%.&.@.+.@...{  . ...T P W ^ O.-.%.*.;.X.S f p 5 , , 7 e p l N l d l m l 0 : ; ; 2 5 5 r j v v j f p j M S U ~ X.;.;.-.*.-.-.*.",
"&.&.;.%.%.%.%.%.+.+.%. ._  .O.#.-.-.*.-.;.X.S e 5 7 p p t s l c z j c l 9 * * ; , , 1 6 h u 6 5 7 8 q d x M S G T ] *.>.;.;.;.;.",
"%.&.&.&.%.&.&.&.=.%.%.$.%.#.%.&.-.-.-.-.;.;.+.~ S e p e u j c M M M v e ; * ; ; ; ; 5 u 6 5 5 ; , 2 9 s z M M S S J ~ *.>.;.;.;.",
"%.%.&.&.;.&.%.;.=.;.;.;.-.-.-.-.-.-.-.;.-.;.;.;.+.! z f k c m M c j 9 , ; ; ; , ; 5 6 u 5 ; 5 * ; 1 6 a x v M V C V S E *.>.-.-.",
"%.%.;.%.$.$.$.%.$.%.$.$.%.%.%.%.%.%.%.%.%.%.*.*.-.#.~ l u r 0 0 7 5 ; : , : : ; 5 6 e 6 : ; : * ; 1 6 s x v v M C V M N ! +.;.*.",
";.$.;.+...+.@.@.@.$.$.@.%.@.%.$.%.%.%.%.%.$.%.%.=.&.$._ C b N w 5 ; , 5 2 , , 5 q 8 t 8 ; ; * * , 5 7 f z c c M M C M M V G O.;.",
"%.%.%.$.%.%.%.%.%.&.&.&.&.&.&.&.&.%.&.&.&.&.&.&.=.&.;.-.+.X.%.T 1 ; 1 9 5 2 9 t 9 p a 2 * ; * ; 5 7 p f f z c c M M V N S S T o.",
";.%.%.%.%.=.%.;.&.&.&.&.&.&.-.&.&.*.-.&.&.-.-.&.-.&.&.;.>.>.<.=.p ; & 5 t t t t s f 5 * * * * : 5 7 f f f j f z n M C V S S G T ",
"$.%.;.%.=.=.%.%.&.&.-.-.&.-.-.&.-.*.*.-.-.&.-.-.&.-.-.&.-.-.-.<.U ; ; f j f i t e 5 ; * : : : 5 5 p p f f f f z z n N C S S S G ",
"%.%.;.%.$.%.%.%.%.&.%.%.&.%.%.&.&.&.%.&.&.&.%.%.=.%.%.%.&.&.-.:.~ 5 p C z q 0 5 ; ; : 5 5 5 6 6 e e p h f f f j f c c c c c S G ",
"%.%.%.$.O.@.@.@.@.@.@.@.@.$.$.$.@.@.%.@.@.$.%.%.$.$.$.=.$.=.=.~ c q G C f 0 5 ; ; ; : , 5 5 6 u e p p h f f j f f z c S S S S S ",
"&.%.&.@.+.@.@.$.@.$.%.$.$.$.$.%.%.%.&.%.%.%.%.%.=.%.=.=.-.-.~ g j A S z f 0 1 ; ; ; ; ; : 5 6 6 r t p p p p p p f c c S S S S S ",
"%.%.%.%.$.%.@.;.&.&.&.&.&.&.&.%.&.&.&.&.&.&.-.&.=.=.=.=.:.[ x x I U n z a 2 ; ; : : , 5 6 6 6 6 0 e p u p p e p p f j c S S S S ",
"%.%.%.%.%.=.%.=.&.&.;.%.;.=.%.=.&.&.&.&.&.&.;.&.&.&.;.;.O.A N L H B A M 6 1 2 2 6 6 6 6 6 9 9 0 9 e u d f a 0 9 t d j n A H S S ",
"%.%.%.%.@.%.%.%.%.%.%.%.@.%.%.%.%.&.%.%.%.&.%.%.%.%.%.@.Q V I L V K H s r y r y u y y r y r 0 0 0 t u s j g a 0 e a h x M H S V ",
"%.%.%.@.+.$.$.@.+.@.$.+.$.+.$.$.@.@.@.@.@.@.@.@.@.@.%. .F Y K V I T M j d k s s s y s s s s u u y u s d d g g y r d k c c S G S ",
"@.%.%.@...O.+.+.@.+.+.@.$.$.+.$.#.@.%.$.%.@.%.%.&.&.&.' K K A F Q A n v l h h s s d d d d s d d u s d d d k g s u d k v n m S S ",
"%.%.%.$.@.$.%.%.%.$.%.%.%.%.%.%.%.%.%.%.%.&.&.&.&.&.&.~ F A V Y Y C M M c l k d d d d d s d d d s s s d k k k j f f l n M N C G ",
"$.@.%.%.%.%.$.%.%.%.%.%.%.%.%.&.&.&.&.&.&.*.%.&.%.;.O.L n V F K H C M c l l k d k d d d s s d d d d s d d k k k j f l c n M m S ",
"%.$.%.$.%.%.%.%.%.%.%.%.%.%.%.%.%.%.%.%.%.%.&.%.&.%.~ n n M A F S C n c l k k h h d d d s d k j d d k d k l l l l j z c n n n M ",
"@.@.$.$.+.+.+.$.=...@.@.@.@.@.@.@.@.@.@.#.#.@.#.$. .V b b v V A C V n c k k h k h d d s s k d h j j h k d l c c c z c c c n m m ",
"@.@.$.O.....@.....$...$.$...$.$.@.@.+.@.@.@.@.%.+.T c c z z M S V V v z z j j j h s s h h h k d j j j j l l c c c c c l c c n M ",
"@.@.$.O.@.@.$.$.$.%.$.$.=.$.$.%.%.$.@.$.$.%.&.&. .S c z z z M C M M n c z z h h s s h s d d d d j j j z c c c c c c l l c c c m ",
"@.@.@.@.@.@.$.$.%.$.%.$.%.%.%.$.%.%.%.%.%.%.&.%./ n l z z c c M M V v n j j h h h s d h s d h k j l z l c m v c l l l c c c c c ",
"@.O.@.@.@.@.$.%.$.$.$.$.$.$.%.$.$.%.$.%.%.%.&.@.! z l z j z z z b n M z j h h h s s s s s h k h l j j l m m v v k k l c c c c m ",
"O.@.@.@.%.$.@.$.$.%.$.%...%.$.$.@.@.@.@.@.@.#.O.U n z z j j z j c c M c z h h h s s s s p h h h j j j c v m c c j l l l z l c v ",
"@.O.$.....................$.....o.o.o.o.O.+.@.X.G n z j h f j f z c c m v z h h s s u u s p h h j j h j m m c l k f k l l l z v ",
"+.+.@.O.......$...$...$...%.%.$.@.+.@.@.@.@.%.O.J c z j f f f f f c c n n c h f s u u u p s f h h h h h l l l l j f k l k j l c ",
"+.+.+.@...$.%...$.$.$.$.=...$.$.@.@.@.@.%.#.&.+.G z z j h p f f p f c c c z h f u s a u s a h h j j h h l l j j j j f k f j l c "
};
