/* XPM */
static char *_ca4afa763c949aeeb338e04f193de57bZliCcUwpfOirvgD[] = {
/* columns rows colors chars-per-pixel */
"113 64 256 2 ",
"   c #493812",
".  c #59451A",
"X  c #514119",
"o  c #644918",
"O  c #6E541D",
"+  c #594E2A",
"@  c #695729",
"#  c #785B2A",
"$  c #735D34",
"%  c #68532B",
"&  c #79612C",
"*  c #7B6434",
"=  c #7C6B3C",
"-  c #776638",
";  c #746936",
":  c #7B6D42",
">  c #7E7245",
",  c #86672E",
"<  c #856B34",
"1  c #8B6C34",
"2  c #836C3B",
"3  c #8B6D3B",
"4  c #856435",
"5  c #956B3B",
"6  c #86713D",
"7  c #8C723C",
"8  c #8C7637",
"9  c #93743D",
"0  c #937A3B",
"q  c #9A783A",
"w  c #91662D",
"e  c #A47B3C",
"r  c #825D29",
"t  c #846D42",
"y  c #8C6D42",
"u  c #9A6D43",
"i  c #8C7443",
"p  c #8D7944",
"a  c #8B744A",
"s  c #8D7B4B",
"d  c #847449",
"f  c #927644",
"g  c #957B44",
"h  c #9B7C45",
"j  c #957C4B",
"k  c #9B7D4B",
"l  c #987547",
"z  c #8A7B53",
"x  c #977D52",
"c  c #A37C48",
"v  c #A57E53",
"b  c #B37D50",
"n  c #9A813E",
"m  c #A3883E",
"M  c #9C8244",
"N  c #96814C",
"B  c #9C824B",
"V  c #9E894D",
"C  c #998748",
"Z  c #8D8057",
"A  c #958353",
"S  c #9C8453",
"D  c #9D8A54",
"F  c #9D8A5B",
"G  c #978659",
"H  c #948752",
"J  c #A38444",
"K  c #A48A45",
"L  c #A3844C",
"P  c #AB854B",
"I  c #A48A4D",
"U  c #AB8B4D",
"Y  c #AA8746",
"T  c #B28B4D",
"R  c #B4894A",
"E  c #AD924C",
"W  c #A8914A",
"Q  c #B3934D",
"!  c #B5994E",
"~  c #A38553",
"^  c #AB8553",
"/  c #A48B53",
"(  c #AB8C54",
")  c #A28659",
"_  c #A48C5A",
"`  c #AB8D5A",
"'  c #AA865A",
"]  c #B28D54",
"[  c #B28D5C",
"{  c #B78857",
"}  c #A69156",
"|  c #AC9254",
" . c #A4925C",
".. c #AC935B",
"X. c #AE995D",
"o. c #AC9955",
"O. c #B39354",
"+. c #BA9455",
"@. c #B49A54",
"#. c #BB9B54",
"$. c #B3945C",
"%. c #BB955B",
"&. c #B59B5C",
"*. c #BB9B5C",
"=. c #BDA254",
"-. c #BCA25D",
";. c #B6A15A",
":. c #BCA34E",
">. c #9B8C63",
",. c #9A9164",
"<. c #A98B61",
"1. c #AC9463",
"2. c #AD9964",
"3. c #A99768",
"4. c #B39562",
"5. c #BA9563",
"6. c #B49B63",
"7. c #BB9C63",
"8. c #B49C6B",
"9. c #BB9D6A",
"0. c #B8966A",
"q. c #B99E71",
"w. c #B48F64",
"e. c #B5A164",
"r. c #BCA264",
"t. c #B5A26D",
"y. c #BCA36B",
"u. c #BDA96A",
"i. c #BBA472",
"p. c #BDAA73",
"a. c #B8A877",
"s. c #B8AF74",
"d. c #C58B58",
"f. c #C29D5D",
"g. c #C79759",
"h. c #D19A5C",
"j. c #C3A35E",
"k. c #C4AA5D",
"l. c #C9A759",
"z. c #CCB25D",
"x. c #D2AB5E",
"c. c #C29D63",
"v. c #C79A67",
"b. c #D19C68",
"n. c #C3A364",
"m. c #CAA465",
"M. c #C4AA64",
"N. c #CBAB65",
"B. c #C3A46B",
"V. c #CBA56A",
"C. c #C4AB6B",
"Z. c #CBAC6C",
"A. c #D2AD64",
"S. c #D3AC6B",
"D. c #D5A669",
"F. c #CCB265",
"G. c #CCB26C",
"H. c #C7B26C",
"J. c #D3B365",
"K. c #D3B46C",
"L. c #D4BA6D",
"P. c #DBBB6D",
"I. c #D9B46A",
"U. c #C3A572",
"Y. c #C4AC73",
"T. c #CBAD73",
"R. c #C4AB79",
"E. c #CBAD79",
"W. c #C7A676",
"Q. c #D3AD72",
"!. c #D6AC75",
"~. c #CCB373",
"^. c #C5B27C",
"/. c #CBB37B",
"(. c #CBB879",
"). c #D3B473",
"_. c #DBB575",
"`. c #D4BA74",
"'. c #DBBB74",
"]. c #D3B47B",
"[. c #DBB679",
"{. c #D4BB7B",
"}. c #DBBB7B",
"|. c #E3BD7C",
" X c #E3B876",
".X c #E3BE6E",
"XX c #DCC275",
"oX c #DDC27B",
"OX c #D8C47A",
"+X c #DCC36D",
"@X c #E3C47C",
"#X c #E4CA7D",
"$X c #E8C878",
"%X c #ECD47C",
"&X c #EECB78",
"*X c #B6B189",
"=X c #CAB683",
"-X c #D4BC84",
";X c #DABC83",
":X c #D6BA87",
">X c #D1B287",
",X c #E3BE81",
"<X c #EABF81",
"1X c #E9BF8A",
"2X c #DCC483",
"3X c #DDC48B",
"4X c #D7C589",
"5X c #DBC794",
"6X c #E4C482",
"7X c #EAC483",
"8X c #E5CA84",
"9X c #EBCB84",
"0X c #E4CB8B",
"qX c #EBCC8B",
"wX c #E5C58A",
"eX c #F3CB8B",
"rX c #F3C987",
"tX c #ECD28B",
"yX c #EAD488",
"uX c #F2D38C",
"iX c #F3DA8D",
"pX c #FCDD8D",
"aX c #F7D786",
"sX c #E6CA93",
"dX c #EBD392",
"fX c #E9D698",
"gX c #F3D493",
"hX c #F5DA93",
"jX c #FBDC93",
"kX c #FADC9A",
"lX c #F5D898",
"zX c #FDCF91",
"xX c #F8E38C",
"cX c #FDE594",
"vX c #FEEB95",
"bX c #FCE49B",
"nX c #F7E499",
"mX c #FFF29B",
"MX c #EDE09A",
"NX c #EDD9A4",
"BX c #F6DEA5",
"VX c #E9D9AF",
"CX c #FCE4A3",
"ZX c #FEECA3",
"AX c #FFECAB",
"SX c #F9E4AA",
"DX c #FFF3A3",
"FX c #FFF6AB",
"GX c #FEECB3",
"HX c #FFF3B3",
"JX c #FFFBB6",
"KX c #E6E3BA",
"LX c #D9CFA2",
"PX c #FEF7C9",
"IX c #FFFED4",
"UX c #F6ECC4",
/* pixels */
"_ _ 3 f g g } V V C o.C.n.U r.tXDX#X+X+X+X%X%X'.j.K @.n n } p D 2.F 3.3.F x : $ $ # t w.8.1./ < U K 9 t.8.A a.*X>.a a y.sXsX;X].$.` S j i : ; @ ; + + + + +     + # k P 9 M | E C.~.].>Xq.<.v <.0.v.,XsX[.m.C.Z.).] ( $.5.;X1XW.7.",
"` ..g g N ..Y.(.V 8 M n.Z.*.n.L.nX+X+X+XnXmXyXoXiXk.M.&.} / < V D N _ F A A a t % $ y x k x ~ ..~.y.M ( 2.q.:Xq._ x j k ( $.*.*.7.` S ~ _ 1.Z = + + X X X   X X   @ h / n K -.M.&.-.7.( x l y 3 f %.,XqXf.c U *.).*.O.P c L c 4 L ",
"$.../ 7 0 e.OXdXhXC.C M m m T k.+X-.! k.iXxX`.@XCX{.~.Y.p.2.p D = 6 p t y z t t t t 2 2 i g ..(.wXC./ Y.R. ._ i j ~ / L h Y T T m.*.E @.y.t. .N ; ; ; : : : Z 3.L | C.`.M.;.N.H.M.M.y.o.$.y.9.4.$.#.T.[.C.#.*.-.*.#.O.P J L L h $.",
"~ ( y.I C u.u.OXyX`.k.=.T m Q k.k.E W E H.L.M.6XqX;X(.r.6.2.i = = < = & 2 x t $ = i 2 2 f N 6.2XlX}.(.CX0X/ B k i k ` O.O.Q +.#.M.=.#.l.&.X.} } F H ,.3.t.t.=XNXOXXXyXxXvXxXaXyX+XL.K.L.;XwXwX:XwX7.O.-.`.}.'.N.#.j.O.I Y U $.7.o.",
"J $.`.r.&.H.-.u.F.L.+X+Xz.l.l.J.M.C W @.@.&.*.M.B.e.2.B A S a : p 7 6 ; S 2.j 2 * 6 t i ~ / 9.2X{.~.~.~.6.C C B ( L ] c.A.x.x.x.+Xz.l.m ! o.o.@.;.o.e.^.(.^./.2XOXyXxXmXmXvXxXxX%Xz.+XOX6X`.`.}.{.B.r.`.oX8X#XL.F.G.M.;.#.&.j.~.~.",
"&.n.Z.*.@.H.L.OX#X$X+XJ.x.J.+X%XyXo.W W K ;.n.e.Y.| g i i d a A N N p i 1.a.) ) _ k f ../.3X2X;XoXZ.r.C.7.$.$.&.*.%.A.&XzX&X.X$X%X+Xl.:.:.! o.o.} } e.H./.C.C.M.OXxXmXmXmXxX%X%X+Xz.z.+XXXj.+.H.Z.M.'.gXhXtXOXF.XXXX`.L.Z.M.H.'.Z.",
"m.Z.-.-.=.k.OX#Xz.J.&X+X&X%X%XxXnX(.;.o.o.Y.~.].dXR.D g 2 = = = 6 p N 8 _ ..k  .Y./ B 6.4XsX3X(.T.K J &.n.$.( +.n.I.rXjXzX&X&XaXvX%Xz.l.! W o.&.C o.&.7.o.I U W :.%XmXmXmXmXmXmX+Xk.:.z.F.=.#.Z.Z.r.C.OXOX`.G.k.yXXXOX+X:.W ! @.n.",
"! M.N.oX@XG.+Xk.:.+X%X%X&X&X%XvXG.(.u.o.r.M.@.~.].C.C 2 6 N A 2 & p N 6 g i <  ./ C ( 2.I U 7.C.&.U U U +.`.[.Z.).rXpX&Xx.x.&XaX%X+Xz.:.E m @.~.o.C.(.n.J q q K ;.OX%X%XmXmXmXxX%X+Xz.F.J.L.L.XX{.H.M.-.@.@.XXyXoXL.OX+XK m ;.M.7.",
"F.G.OX#XOX#XxXxXmXxXvXxX%X$X&X%XF.~.u.W K ;.n.e.&.u.&.M 7 D  .H H N ..6.} g g M C 8 I X./ ..7.&.| U L J | n.m.*.m.A.S.&XrXJ.l.l.z.aXK.-.F.&...6.$.y.4.I J c U Z.H.OXxXmXvXcXxXiX+X#Xz.G.'.$XzX6X-.O.M.F.@.k.yXhXL.F.k.oXXXo.E L.7.",
"F.H.+XOX%XnXDXmXmXvXiX%X%XaXaX$X;.@.W K W -.`.oXtX`.o.C C } t.Y.} S D  ...2...B 7 6.U g &.7.$.( / I I I O.7.Z.Z.f.|.eX.XJ.x.l.l.hXiXZ.j.~.y./ k 4 B g 1 h O.n.K.:.OXyXyXiXyXyX9XL.k.k.L.tXhX9X6X~.-.u.H.H.OXoXXXL.F.F.8XhXOXH.M.] ",
"XXXX8XyXyXMXMXyXxXxXiX#X#XiX$X=.| E @.-.M.N.`.6X}.H.r.e.e.e.6.2.N D  ./ B ( $.I } I M ..( L | 9 h M C ( ( $.n.!._.).@X}.9XtX.XaXFX2Xu.e.y.2.i : - j i 4 M O.O.%.@.;.;.OX9XgX6X`.'.N.9XuXqX6X).8X8XC.@.-.`.XXC.! XXtX8XdXkX6X{.B.>X",
"iXnXFXFXnXiX8XH.H.OXyX3XoX@X`.#.W O.M.~.`.L.`.@XlXkX8Xy. ... .B N S 1.) j C / / C._ P T.$.~ B.k f N ~ ..O.` B.;XwXn.Z.Z.oXtX`.tXSXu.t.e.1.3.x x a x x ` B.#.Q n.j.;.:.;.K.K.*.Y n.m.oX}.N.-.*.}.M.&.J K @.-.m.K.H.2X`.~.].T.T.y.v.",
"MXmXJXJXZXMX0XOXOXOX2X2X`.C.B.&.$.7.B.V.Z.[.7XqXwXgXsXT.4.6.6.1.0.) ) 1...........C.4...4.5.B.<. .1.8.9.6.` 0./.X.X.u.o.y.fX(.4X4XH D H a z : : : >.q.:XdXoX`.tX@X7XeX$XD.g.R ] `.@X|.9X6X8XjXhXoXgXtX`.$.Q _.ZXsX].v l B l l l y ",
"vXnXmXbXCXFXDX0X .n 0 / / B 9 4 f v ( c 9 5 9 h c L ] 0.0._ <.8.1.F <.0.6.4.y.C...( y.v.^ ) 4.' t.8.t.9.1.~ ~ ( k C } D p.5Xs.s.Z ; = Z z >.z > 3.:XNXBXZXgX@X9XzXjXkXzXrX X X XeXZXkXCXbXjXFXZXAXHXGXkX_.Z.2XBXkX;Xv y 2 # 2 u x ",
"HXFXFXZXAXJXJXHX2.n 7 _ i.R.i.9.q.W.>XW.[ h 5 9 [ x l k x l y a 2 3 l x a k ..e.~.h 3XfX( ~ [ <.8.q.8.1.1._ S f ..A Z F s.3.Z ; @ d ,.=XLXKXUXVXKXPXPXGXCX#Xl.j. X XI. XrXrX|.<X}.@X9X@X'.K.L.@X7X).].}.].}.,X[.W.W.w.v v y v 0.5X",
"nXZXDXCXMXAXJXMXHX4Xe.t.B.R.:X>X1X:X1X1X>X5.9.E.v.v.9.9.i.0.3 o   o o o O < g 9 L ( NXwX4.6.~ 4.t.i.i.8.y.U.8.D f 8.s.3.,.H ; . ,.LXPXIXIXIXIXPXIXPXGXAXZXOX:.k. X X X X X!.I. X Xf.A.A.I.'.l.'._.c.S. XV.V.!.v.b.V.0.v v v x a <.",
"hXnXhX#X9XjXhX#XgX6XhX2X| } u.B 8.4.w.8.q.i.9.0.$.B.T.T.~.].7.g 7 8 8 0 C T.{.W @./.0X~.&.6.6.C.Y.H.{.~.4XY.-Xt.e.3.s.*Xa.> z ,.*XKXIXUXUXIXIXIXIXHXHXGX2Xu.H.~.@X|.7X[.<X|.7XD.D.D.h.h.h.h.h.h.g.h.D.D.b.h.d.d.v.v.v.b 0.x % . v ",
"oXoX8XuX@XK.K.@X@X'.OX2XC I o.2.) <.<.w.1.w.6.9.6.6.6.y.C.~.H.C.}.M.y.C.Z.(.oX/.M.C.`.C.n.G.C.H.H.-.C.`.H.u.0X5Xt.s.=X,.G z Z > Z *X*X,.z Z 3.s.5XVXVXs.V } Y.{._.K.7X,X<Xv.V.D.D.h.h.h.h.g.g.d.h.h.d.d.d.d.b.b.v.v.>Xb *X<.$ X $ ",
"}.Z.O.J n U *.Z.Z.`.Z.-XW t.} _ G x l l k x S ~ 8 7 M 7.u.r.H.2X2X~.`.{.{.{.oXOX{.H.~.Z.~.oXXXOXH.@.;.{.o.e.dXNXfX:X3.@ ; s ,.Z Z Z > ; + ; ,.=XfXNXfX(...C C.kXkXqX6X|.,XJ Y D._.D.x.x.x.h.h.g.h.g.g.d.d.d.d.d.b v.v.0.w.v $ + + ",
", < < 1 1 q q 1 , I g g g ^.1.p y $ # % O o o o # g 6.].C.&.B.2XOX6X0X0X8X0XOXH.r.e.H.H.u.C.u.~.OXr.&.~.0 V Y.U.=X4X5Xa.F = s Z Z ; @ ; ,.s.VXJXGXGXlXdXwX`.}.CXAXuX}._.wXR w b d.g.g.g.h.h.g.d.d.g.v.h.h.d.b b b b <.l y $ X X + ",
"  o f 0.$.y 4 k f ~ 7 # y q.3.<.<.x x t $ % # f ) R.sX5Xu.X.Y.0X0XfXyX2XOXp.o.n @.;.{.OX(.~.u.H.(.y.-.~.I Y.sX^.6.1.^.:XsXa.1.G H & o 6 /.NXSXSXfXSXkXqXlXkXqX9XqXqXqXgXHX}.] P P R { g.h.D.D.b.!.D.b.v.d.d.d.b { 5.w.y % . X - $ ",
"U.>X5XNXfX1XsXsXE.W.U.0.8.3.a.:X*X<.y z ) 1.i.^.fXGXGX3Xp.Y.fXHXHXCXfXyXOXW < 8 ;.u.OX3XdX0X(.~.o.U / o.V Y.dX/.R./ B S R.=X>XU...} 2.^.].-X2XdXqXqXqXuXgX9X X'.}.0XlXlXGXqX_.W.Q.!. X|.<X7X&X X<X|. X!.b.b.b.W.v.W.W.l 4 - d 8.*X",
"E.:X:X=X:XsX:X0.0.q.=X:Xa.8.i.LX>X3.x 3.>X5XsX5XSXBXfX(.Y.4XBXHXJXAXCXMXfXH.X.H.0X0XZXSXAXFXMX0X].(.-X/.y.U.3X/.y.y.U.( k 3 ( U.~.3XCXCX8X~.}.hXkX6X9XjXrXI.S._.Z.~.[.T.}.T.].Q.,X1X7XwX7XrX|.[.D.[._.!.b.v.v.v.0.U.W.` x F >.a.b ",
"i.8.2.q.W.Y.W.U.E.E.9.:XG ) F p.0.<.3.q.8.<.1.R.^.8._ _ ..y.y.e.p.OX2X{.OXH.e.H.H.OX3X{.~.OXu.r.} ..U.Y.Y.&.].^.B.` ( ~ ( h 5.;X6X6X0XgXtX8X6X6XqX7XeXeX|.@X7XS.C.7.C.r.U.W.].U.!.;X,X,X|.7X|._.!._.].W.v.5.0.W.w.2.q.1.) >.z G v ",
"t.1._ } $.e.y.r.B.C.B.6...S D  .G x x ) ) A k D N D / D / / _ C n r.&.M 8 n } n V o.-.;.} C 0 8 , / L / Y.:X].;XB.` h h ( 4.7.7.+XOXOX8XhXgX8XqX9X'._._.D.m.S.6Xe.y.e.e.T./.T.W.U.-X].U.Q.Q.Z.).T.,XE.7.7.7.$.[ h ` 1.<.A A G A x ",
".._ V I X.O.$.+.7.Z.;X2X].Y.e.7.) j j ) 4.1._ _ B _ _ B C X.y.X.C e.;.o.W o.u.o.;.~.2X2XH.;.K 0 C / g h /.0X/.7./ h 1 7 h ( &.n.u.#XnXvXbXnXuXdX6X}.*.J U Z.[.C./.2XD p =X3Xi.U.1.9.T.E.Y.V.r.O.B./.C.4.9.7.4.8.x S S S A j a 2 t ",
"..I C K I U | +.m.|.bXAXgX~.O.M g i f S _ ) B B B 6...h B t.T.u.-.H.C.H.L.~.oXOX0XdXdX0X`.C.r.&.7.$.g h ].wXB.( ( L B h L 6.B.T.H.yXFXFXnXbXZXbX6X;XC.O.n.wXwXB.:X4X2.i S ) N ) 0...4.<.B / ( C 6.$.B 9 B g i i 7 * $ * d i t * t ",
"e.X.U C J K Q #.#.K.uXjXuXoX~.n./ ` 4.../ h k / / 6.4.V P 6.U.y.M.C.C.r.y.C.C.r.tX0X2X`.C.H.~.`.&.7...| B.T.6.U ( ..( / / ..y.C.s.OXDXFXnXAXHXlX(.C.B.T.^.E.W.y.p.1.t.<.% o t - $ $ y f * & * O 8 < & & & & 6 N N 6 * 2 s x S G v ",
"e.&.o.( U Y Q f.j.N.'.|.@X6XuXgX].].>XT.7.4.7.U.%.6.$.( / $.7.r.C.Z.n.O.@.n.r.| C.Z.Z.Z.Z.~.Z.n.| r.n.7.*.$.X...&.6.6.2.6.p.Y.Y.OXyXFXFXMXMX4X} p.X. .p.i.<.S 1.<.: z >.$ $ z - $ + $ t @ @ 6 2 7 f D B 6 = B 8.2._ S A S j S _ >.",
"e.6.&.7.@.+.Q +.A. X7X@X|.@X}.[.].T.c.7.7.r.y.V.B.$.( / ( ( 7.V.).G.Z.&.*.`.G.m.j.y.M.Z.).).Z.n.*.B.C.C.r.r.7.e.y.u.y.u./.4X4X4XMXMXMXMXMXyXs.p t. .F 8.a.3.z d t $ $ : d d a G q.x a t @ = 1.p.y.t.i.y.6.1.2. .D F F A j a a k q.",
"y.e.7.7.n.*.*.f.m.S. X_._._.Z.*.%.( P M P ( $.%.%.$.U P ( %.7.*.c.O.+.U +.Z.m.Z.*.m.m.n.m.C.Z.Z.Z.Z.Z.Z.C.Z.~./.Y.t.X.X.s.4X=Xs.;.s.s.s.4X4XOXs.2.D H F ,.Z : % $ : $ $ : z z >.3.>.>.G A A F 3.t... .6.Y.4X>X8.) _ F k x x ~ S x ",
"T.B.c.n.c.V.Q.).@X}.S.%.+.*.%.] $.$.` P c ~ $.7.( $.] P ] 7.*.( &.q L I O.n.$.T.U O.r.-.+.$.*.r.K.Z.G.Z.n.C.(.].(.y. . .s.4X^.2.H o.o.3.s.s.3.,.s.F Z d > $ $ = - - a t t <.*Xx 3.>.G F 3.1. .3..._ 6.6.2.^.:Xp.2. .k y i A ) S x ",
"f.%.] { T.[./.c.U.$.7.5.5.h L ....` f , f ` $...k / / ../ h ( 6./ B / M B $.| r.E I U @.&.o.;.H.k.F.F.j.M.H.Z.e.0X-Xy.p.p.3. .A z z z >.z : ; : H = H e.y.6.g / | ......t.R.a.3.p A ,.t.3.N N i.u.&.6.y.7./.-XT...8.k 3 ) _ f _ L ",
"m.g.+.f.V.B.4.^ ` ~ ( h ( P $.' ' S 2 * g _ S j A / B ..1._ 6.6.M D X./ ~ | $.r.&.E O.-.-.;.;.F.M.F.N.M.j.j.$.K u.=X=X4X^. .N = z d d d > : d s A t.=X4X5XwX(.O.$.`.qXdX2X(.p.p.; p H  . .N N 1.C.7.6.7.C./.Y.6.L / g i ) S f B ..",
"D.f.%.c.c.$.( / L ( ( 3 ` B.T.] ..k 3 7 _ ` j g L / B ( &...2.I M o.X.*.&.@.*.+.! E @.M.XXOX+XOXoX'.K.F.M.-.O.( y.U.e.y.^.^.i.A z z d - % @ j a.4XfX4XnXCXqXgX;Xn.2XhXdX2X=X(.=XN 6 = 6 N } _ 2./ o.| X.e.y.6.X.B B B ~ / B j k _ ",
"!.%.] ] ] L L / ( 4.6.h 6.].].] 4./ k ( y...L L ( 6.&.e.B.y.7.K o.e.o.C.`.Z.M.K Y W :.F.#XiXyXyX@XJ.l.f.#.@.O.@.{.B.V / p.-X5X=X .F A 6 - : 3.4XNXsX-X0XtXqXgXgX}.8XqXsXfXMXNXfXt. .2 6 3.p.u.6.M $.$.| $...| 6...B ( 6.` ~ ~ / 2.",
"V.{ q c c f 9 h k ` 7.( B.Z.Z.| 7.$.] y.B.( ( 7.7.~.].;X{.~.T.*.M.L.M.'.@XL.L.#.#.l.l.+XaXvXxXiX$XL.N.l.n.j.n.M.~.~.y.U.8.} y.=Xy...V  .u.^.(.OXs.~.OXC.~.gX6XA.).`.;XqXCXGXBXsX^.R.6.1.^.-Xi.$.6.B.6...&.$...6.6./ 1.y.../ 1./ 6.",
"{ P c P ` ( P ~ h ~ 7.r.~.V.V.*.*.6.7.B.n.( ( Z.n.}.6XwX`.n.n.+.M.OXoX#XXX_.'.'.J.J.P.$XcXDXmXpXaXaXrX@X7X6X6X;X7.B.B.Y.( 2 S y.X.} X.(.0X5X(.H.u.-.`.C.Z.}.*.#.O.n.T.).;X3X-Xp.Y.=XR.Y.U.9.$.( y.&.I I 4.u.6...$.| 6.7.( ..6.( V ",
"] [ 4.7.c.0...` B I r.B.).B.Z.m.n.*.5.n.c.U U n.V.`.}.6XZ.E +.O.N.`.6X'.A.I.'.9X X@X@X%XcXmXvXiX9X9X9X@X@XqX7X}.V.u.$.6.` h ) ..7 / H.0X0XOXr.e.OXu.H._.Z.O.Y *.+.7.r.*.7.y.7.6.9.y.9.8.7...~ / ( C M L $.B.r...| ..$.$...7.7...C ",
"5.v.W.c.4.` ~ h k B 6.O.n.#.f.*.*.%.] O.+.U J O.n.Q.K.}.N.+.j.Z.M.n.`.m.n._.P.rX X@X|. X9XhXuXoXI.}.'.I.'.qXeXwX;X[.B.7.4.( ( h M | Y.3X3Xs.&...} ~.~.-XC.( %.( $.#.&.+.$.6...B ..` ` 9.].B.P 9 P B $.7.$.r.B.7.( 4.7...4.B.y.$.B ",
"sXB.U.5.` 5.( S ....7.~.Z.O.c.f.O.] f.V.n.] O.m.V.|.eXqX7X7X6X_.Z.n.T.Z.S.,X7XeX1XQ.Z._.'.}.Z.#.j.Z.N.m.!.gXkXqX].wXB.] 5.~ 3 ~ 4.5.7.Y.-Xy./ ../ ..T./.5.7.U.[ %.] U U ( ( ..$.4...` $.9.5.] J ( L ( ( $.7.$.X.U O.( P I | $.I M ",
"sX].;XT.0.6..._ 6.7.B.].Z.O.+.Q Y T 5.Z.V.*.m.Q.m.}.qX9X6X6X6X[.).7.c.$.] Z.[.,X!.c.O.%.7.c.*.U *.m.).`.6XdXqX].6.c.( ( 4.k 1 9 4.5.8.T.:XR.4.0.f j ` 0.' [ 9.[ U U U U ( | ../ B / ( ( ] ( L c L L ( B M ( J L 1 | y.( 5 < h o.V ",
";X!.].6.h B B I / ..6.T.7.K O.P c P ( { $.%.%.*.7.Z.[.|.[.Q.Z.T.( ( U.v.5.5.%.5.v.{ L P L ^ ( L L U $.m.[.wX;X].W.5.L l k x ~ ` w.1.w.0.W.8._ ` f N S ) ) ` w.4.$.n.C.n.r.&...V j I $.7.c.c.*.%.I ( 7.L g P L / L ( ( I K U O.E } ",
"BXwX].` g 9 B / g L / $.U c U J ] $.$.( [ %.$.L P O.7.B.*.T Y P h ~ B.$.5 c c ] ^ c u h 9 9 f 9 L q 7 q f h h k ( k k ~ h h v l ' ` ) ) ) k s 2 2 i y 3 f l h k *.T.{.].U.u.X.B 0 M ( 7.V.n.%.O.( ` 7.L h ( ] $.&.&.$.O.&.r.r.7.&.",
"SXtXr.M 8 < 3 8 B L L ( c L %.{ ] [ c f l ~ c 1 h L ( $.L 9 1 , L ~ B.4.P ` ^ ^ ( ^ 4.5.~ h P / &.I g 9 1 < 1 g ~ l ~ ` l f x y v ' <.~ s f g 2 * 2 2 7 g h g B L &.C.H.Y.u.2.I ....6.V.T.T.#.Y B P ( h q ( ( | $.+.&.*.V.Z.r.O.( ",
"ZXgXC.u.C.} B B / _ / ( ] 9.[.W.W.W.U.` ( 5.[ L ` $.] ^ L q 5 1 q h $.n.T.,XQ.5.B.B.!.].U.B.U.T./.Y.y.6.4.` ..` ` S ' ' l f v ) x ) ` ~ j /  .N g N } 6.4.X.$.$.K | e.C.C.e.X.o.M B K ( O.O.c q L L ~ h h L M L I L I *.H.).n.| U ",
"dX6XC.{.4X&._ } / ../ $.0.B.;XU.9.U.U.4.~ ) ) L 0.5.( L k L L h L 0 I h P T.[.].V.v.B.T.B.T.].-X0X-XY.6./ A f 2 2 2 x ) x l y 2 k v ` ~ ~ y.Y. .C V r.(.C.u.y.e.6.&.&.u.i.e.X.2.V o.&.7.O.| O.#.$.] 5.$.( ( J ] J O.n.n.+.| *.Z.O.",
"CXnX2XlXfX7.o.e.$.4.` ] $.5.v.L l ` 8.` c k _ [ 0.4.B 3 1 k ~ h | &.~.6.~ 7.V.T.].7.5.7.c.E.wX5X5X/.` f 5 9 3 , 4 4 4 3 y y y u ~ v ' / ' =X-X2.p N s.sX-X(.OX~.e.| } &.y.&.X.r.X.y.~.n.U K +.T.B.7.Z.Z.7.$.U c.}.Z.@.U Y U Q +.C ",
"NXfXSXAXgXH.&.*.*.&.] U %.c.] 1 0 2.u.V 6 N X.6.y./ j B B B I 6.Y.2.~ S ^ ' ' w.w.v v ^ ' ` 9.U.R.B.P 5 5 e e w w w 5 u v u u u 5 b v ' W.>XR._ j = 1.5X-Xy.i.5.I ( 7.7.&.7.W U M.qX`.O.q &.7.Z.*.-.F.#.M.*.Z.Z.m.#.J J +.#.T Y L ",
"3XOX(.(./.-.O.*.V.V.n.5.n.B.[ g o.e.u.V 8 N D _ i.4.( ....| $.&.4._ ) ~ ~ v ' [ ' v v ' v v ' ~ ` ( ] O.h.D.h.d.d.b b >X>Xb u b b { u v 0.0.2.x a - i _ 4.5.4.9 c c P Y U #.+.+.K.}.].`.n.$.U $.M.Y U ! U Q n.*.+.$.Q +.j.j.f.j.h ",
" . .2.o.} | n.}.U U ] O.%.$.( U C N N B D _ F S ` _ _ ` ` ..( P _ _ ' ' v l c ' ^ ^ w.5.0.v.U.0.1.$.f.D. X Xh.d.d.d.w.w.b u u u { { b w.v 3 y j 6 i S f o o 5 ( P P [ { f.D.m.A.m.n.m.V.!.$.( ] +.8 K C.| &.V.7.7.c.*.n.S.).N.N.J ",
"p C A C 0 9 / n.I L L U L k ~ ` _ 7 * = 6 = * $ $ 2 2 y f k g 3 l h h 9 r # 4 u 5 5 h v ^ 4.4.c L k P n.|.<X X!.v.b l u u b d.b c.d.{ ^ 5 # ` :X2 & * 3 # r ( ].!. XeXrXeXzXrXeX|._.S.O.m.%.] P w 1 M n.( $.&.5.B.7.( { T._.m.f.Q ",
"H N p N X.t.B.y.T.7.4.` ~ h ' 8.E.1.i 2 2 - t y y y x x ) <.` x c c c 5 r r w c v.[ 5.[ %.9.5.B j 3 9 %.7XzXzXzX!.^ l ( v.v.b.1Xg.{ c.!.U.$...f 7 & , k $.%.v.D.b.Q.,X!.D.S.D. XrX|._.g. XQ.V.c.m &.P ..6.T.9.U.7.[ c L 5.V.c.c.j.",
"t. .1.y./.-X-X;X4.( L k k ~ <.9.y.8.1.) ) ) ) ) ) <.<.<.0.U.9.0.4.] ^ L q c b %.v.%.f.5.5.r.7.( ~ g c c.<XzXrX7X5.c.B.E.>XW.b.!.|.m.+.*.%.#.6.9 I O.$.] ] %.h.b.b.V.D.d.R g.g.!. XS.Q. XrX!.v.S.n.{.&.O.;XsXv.7.[ 5.$.^ ] ] *.Z.m.",
"t.3.t.R.Y.1./ ..9 4 , 4 f x _ _ ) 8.i.1.) ) h 2 l j k v ' <.` ~ T b J P P { { %.%.{ c.v.n.c.n.u.k f B $.S.|.|.[.+.].3XT.c.V.b.v.f.+.n._.Z.B.~.$.7.n.%.+.m._.!.I.m.h.D.d.R +.R O.D.S.S. X_.c.Y ] O.@.U U T.T.` h [ c.c.] U U +.S.N.",
",.C H a.^.6.k 7 k g 3 y h ~ j 3 / y.W.` c / ~ 9 l f h L ( / ( P T Y b R { g.g.+.g.%.Z.Q.5.U | &.A k h Y +.f.m.f.$.$.../ P J %.S.Z.m.'.gX'.Z._.V.V.C.S.|.|.I.h.D.!.[.7X@X[.N.R e e j.*.m.j._.N.N.Y q J M U Y $.] c U ] U T U +.m.m.",
"= p i D ` B h # , k 4 1 f j ) l ].dX`.&.7.y.r.O.n n M U U L K I q q q P R R +.g.b.|.[.*.f.q U U k B L q q ! l.W n W &.y.M O.m.7X7X`.oX@XZ.m.).`.V.|.rXrXrXI.D. X$X'.@X6XA.j.N.j.m n.-.N.G.@.j.8XM.#.m K *.K.K.n.*.O.O.#.+.! ! +.I.",
"i 7 $ i ~ ~ 6.$.( h 1 k 8.i.` / C.6X).Z.A.=.#.-.l.@.@.-.G.G.M.n.+.g.m.S.D.b.D._.[.wXV.j.Q J m q 9 9 h Y Q g.#.Y C | V o.X.M.N._.|.'.@X'.m.r.Z.Z.Z.Z.c.m. XI.A.S.@X'.K.M.@.n.`.H.H.XXM.M.`.F.6XmX#X#XJ.#.N.hXkX6XN.N.'.9X'.g.R m Z.",
" .k 7 / 7.$.y.T.7.I $.` 6.8.A 6.n.'.L.@X#Xk.x.$X$X9X9X#XXXXX'.G.S._.|.<XQ.g.V. X X|.c.m.J m q 1 1 1 q Q g.l.j.E -.H.} } &.Z.j.m.`.`.K.M.M.n.*.7.+.O.U +.D.!.g.#.K.K.G.F.G.#X'.*.-.`.M.`.iXxXZXFXFXxXXXL.XX9XhXbX7XK._.aXpXP.l.m g.",
"6...$.T.].7.*.Z.c.V.T.O.L L h U #.J.A.$XuX$X$XxX@XxXcX%X$XtX8XK.Z.).|.}.S.f.c.!.S.S.S._.U U T | h q Y +.#.l.N.k.OX0Xu.} U *.+.Z.).`.#.| C.T.*.O.] ] ] T f.D.m.Q K.F.K.XXiXhX~.K C -.-.OXnXDXDXbXDXiX#X#XXX`.'.9X@XA.M.@XzX&Xl.l.+.",
"7.( *.Z.V.+.*.[.[.[.*.$.n.&.( 9 m l.g.I.pXpXxXxXxXvXpXaXpXhXXX@.M.Z.).`.Z.m.S.<XV.f.}.'.Z.c.G.Z.*.n.m.g.g.J..XF.2X0Xe.V I *.+.).).~.O.K *.V.&.$.B.c.] L U m.Z.j.N.z.F.@XtX6Xn.E Q n.k.L.yXyXiX#XXXaXcXtX8X@X`.j.}.qXjXbXcX9XN.k.T ",
"O.( r.V.n.f.j.'.qX|.+._.0Xn.( q e f.#.J.pXcXpX&XcXaXpXvXcX#XN.k.H.C.M.Z.N.n.m.).j.T V.j.).n.Z.m.).}. XA.l.P.$XF.yXOXo.V / e.%.n.Z.C.&.U ( $.4.c.].5.( U &.`.).+.#.x.P. X@Xl.*.N.*.n.M.'.@XXX+XF.#.XXbXCXkX6XC.O.}.zXkXuXzX9XN.m.*.",
"*.n.[.Z.N.I.m.A.@XI.A.}.oX7.U Q R A.m.I.rXaX#XP.J.P.%XhXyX'.K.oXM.e.-.r.#.E U O.*.T %.#.m.f.T n.|._.I.A.x..X#XL.fX(.D } / %.{ f.Z.*.| / L ( v.E.B.( ( %.T.2X}.! j.I.$X.X'.D.f.S.f.l.Z.rX%XP.P.l.f.G.qXgXwXZ.$.O.n.Q.f.%.A.m.Q f.Q ",
")._.,XN.m. XS.S.A.m.K.j.Z.K.*.C.%._.A.A..XA.x.J.J.$X$X'.G.F.n.E o.o.o.*.&.U Y U n.f.n.m.f.*.J ).<XS.l.A.I.$X%X#XiXH.V } h ( *.Q.).I q M P 6.E.E.c.~ ( 6.B.2X2XN.I.&XI.g.A.I.S.N.S.V.A.$X$XJ.J.l.j.2X2Xm.O.$.O.h ^ 5.[ O.B.O.T S.6X"
};
