/* XPM */
static char *dd059dfbfe7c483bb7ae406c6a43ed80aMt7H3bPvduL4PaE[] = {
/* columns rows colors chars-per-pixel */
"64 64 237 2 ",
"   c #060405",
".  c #090606",
"X  c #0D0907",
"o  c #07050A",
"O  c #0A0709",
"+  c #0D0A0B",
"@  c #170D0A",
"#  c #120D0D",
"$  c #16100F",
"%  c #1B110E",
"&  c #060615",
"*  c #080711",
"=  c #0B0A14",
"-  c #0C0C1B",
";  c #130E12",
":  c #190F11",
">  c #0F101E",
",  c #161112",
"<  c #1B1413",
"1  c #1F1815",
"2  c #13111C",
"3  c #1B1619",
"4  c #1E191B",
"5  c #22130E",
"6  c #221613",
"7  c #2B1712",
"8  c #231916",
"9  c #2C1B14",
"0  c #201719",
"q  c #241B1A",
"w  c #2A1E1B",
"e  c #331E15",
"r  c #361E17",
"t  c #2C211D",
"y  c #33231B",
"u  c #392419",
"i  c #3B241B",
"p  c #070A21",
"a  c #0D0E22",
"s  c #0F1024",
"d  c #111124",
"f  c #12142B",
"g  c #181A28",
"h  c #0E1334",
"j  c #131633",
"k  c #151935",
"l  c #161938",
"z  c #161A3B",
"x  c #181C3D",
"c  c #231D22",
"v  c #2B1F21",
"b  c #1E2138",
"n  c #2D2322",
"m  c #2A2328",
"M  c #322622",
"N  c #352A24",
"B  c #3A2C24",
"V  c #342629",
"C  c #352B2B",
"Z  c #3A2E2A",
"A  c #3E3027",
"S  c #3D322C",
"D  c #282635",
"F  c #352C34",
"G  c #3A3337",
"H  c #46281C",
"J  c #532E1E",
"K  c #55321F",
"L  c #442C22",
"P  c #442B25",
"I  c #552E22",
"U  c #42352D",
"Y  c #493529",
"T  c #533424",
"R  c #533A2C",
"E  c #593828",
"W  c #433631",
"Q  c #463932",
"!  c #4A3C34",
"~  c #453839",
"^  c #4B3D3A",
"/  c #543D32",
"(  c #583A37",
")  c #643B25",
"_  c #673A25",
"`  c #6B352A",
"'  c #623E2B",
"]  c #5A402F",
"[  c #4E4136",
"{  c #4D413A",
"}  c #53443B",
"|  c #574439",
" . c #5B4A3E",
".. c #6A422C",
"X. c #75442C",
"o. c #78482C",
"O. c #654736",
"+. c #714634",
"@. c #734A34",
"#. c #7B4B32",
"$. c #6F503E",
"%. c #7A5339",
"&. c #161C43",
"*. c #191E44",
"=. c #171E49",
"-. c #191E49",
";. c #1B2145",
":. c #1C224C",
">. c #1D2453",
",. c #1B2455",
"<. c #1E2659",
"1. c #1F285B",
"2. c #252849",
"3. c #3A3546",
"4. c #31354E",
"5. c #222855",
"6. c #222955",
"7. c #232C5C",
"8. c #2A335A",
"9. c #232D63",
"0. c #263163",
"q. c #293365",
"w. c #2F3960",
"e. c #26326A",
"r. c #2A366B",
"t. c #2C396D",
"y. c #333B68",
"u. c #2A3671",
"i. c #2D3A72",
"p. c #2D3B79",
"a. c #313D75",
"s. c #313E78",
"d. c #453B44",
"f. c #39405E",
"g. c #3D4568",
"h. c #374476",
"j. c #34437C",
"k. c #564944",
"l. c #5C4C42",
"z. c #574D53",
"x. c #614E43",
"c. c #604E48",
"v. c #635246",
"b. c #65544A",
"n. c #695549",
"m. c #69564B",
"M. c #6C594E",
"N. c #775647",
"B. c #625454",
"V. c #6E5B51",
"C. c #715D52",
"Z. c #6F6156",
"A. c #736154",
"S. c #7A6556",
"D. c #756659",
"F. c #7B6B5C",
"G. c #4E5576",
"H. c #7B7067",
"J. c #853B32",
"K. c #84482C",
"L. c #844B35",
"P. c #8A563A",
"I. c #965A3A",
"U. c #9B603C",
"Y. c #A2633C",
"T. c #885C46",
"R. c #985C41",
"E. c #87634A",
"W. c #986548",
"Q. c #846A5A",
"!. c #976955",
"~. c #9D7057",
"^. c #A66947",
"/. c #A96F4E",
"(. c #B5744B",
"). c #AA7657",
"_. c #B87A56",
"`. c #837263",
"'. c #86766C",
"]. c #8C7B6B",
"[. c #937A68",
"{. c #917A70",
"}. c #AF7E65",
"|. c #C47E55",
" X c #BE835B",
".X c #95826E",
"XX c #998776",
"oX c #B78464",
"OX c #A28E7C",
"+X c #A3907F",
"@X c #C6875C",
"#X c #C98B61",
"$X c #D4966B",
"%X c #D1956E",
"&X c #DCA578",
"*X c #354484",
"=X c #384887",
"-X c #3B4C8C",
";X c #3E5084",
":X c #3D4F94",
">X c #3F5294",
",X c #46548A",
"<X c #525B8D",
"1X c #425394",
"2X c #455799",
"3X c #556496",
"4X c #6D698F",
"5X c #4659A2",
"6X c #4A5EA5",
"7X c #5467A9",
"8X c #5268B1",
"9X c #566DB3",
"0X c #6176AF",
"qX c #5D7AC2",
"wX c #8B7397",
"eX c #9E9082",
"rX c #A59281",
"tX c #AA9583",
"yX c #AC9986",
"uX c #A99A8A",
"iX c #B59D89",
"pX c #B39E91",
"aX c #B6A18D",
"sX c #B7A594",
"dX c #BDAC9C",
"fX c #CBAF97",
"gX c #C9B6A6",
"hX c #CDB9A8",
"jX c #D4C1AD",
"kX c #D4C3B4",
"lX c #D6C5B6",
"zX c #D8C7B8",
"xX c #DACABA",
"cX c #E4CCB6",
"vX c #E6D4C4",
"bX c #F2DFCD",
"nX c #F4E3D2",
/* pixels */
"S.A.A.C.C.C.V.V.m.m.m.v.v.l.l.l.{ Z U } { | W.)...7 : q Z Q W U S S S S S S Z Z Z Z N w M C C C C t m.gXlXkXkXkXkXkXgXyX+XrX+XOX",
"A.A.C.C.C.C.V.M.V.m.m.m.v.l.l.l.} S U } } T.oX_.P.+.R P S Q Q W U U S S S S S S Z Z N t M Z Z Z Z M v.dXlXlXkXkXkXkXhXiXrXrXrXOX",
"C.C.C.C.C.C.V.V.V.m.m.m.b.v.l.l.} S U } } N.).^.W.).T.( W ! Q Q Q U U U S S S S S S B t M Z Z Z Z M l.dXlXlXlXkXkXkXhXpXtXtXtXrX",
"C.C.C.C.C.V.V.V.V.m.m.m.m.v.v.v.k.U U } k.x.T.R.T.~.W./ S ^ ! Q Q Q Q U U U S S S S Z t M Z Z Z S N k.dXlXlXlXlXlXlXhXiXtXtXrXrX",
"C.C.C.C.C.V.M.M.V.m.m.m.m.m.v.v.l.U U } l.! P L / W.P.y < N Q ^ Q Q Q Q W U U S S S S t N S S S S N } sXzXlXlXlXlXlXhXaXyXyXtXtX",
"C.C.C.C.C.V.M.M.m.m.m.m.m.m.m.v.l.U U ^ Q t , # / ).@.+ O < N ^ ^ Q Q Q Q U W U U S S n N S S S S N } sXzXzXlXlXlXxXhXsXyXyXtXtX",
"C.C.V.C.V.V.M.M.m.m.m.m.m.m.m.m.l.! B n 1 $ # + R W.T   + # q Q ^ ! Q Q Q Q Q U W W S M N S S S S N { sXzXzXlXlXlXzXhXaXyXtXtX+X",
"V.C.V.V.V.M.M.M.m.m.m.m.m.m.m.v.v.^ M 1 < < < < 8 i 8 $ , # < S { ^ ! Q Q Q Q U U W U n t C N N Z Z ^ pXzXzXlXlXlXzXkXfXaXaXaXaX",
"M.V.M.M.M.M.M.M.m.m.m.m.m.m.b.b.v.} M 8 1 8 8 < < < < 8 < $ < N ^ ^ ! ! Q Q U Q Q W U A Q | v.m.} Z Q uXzXzXzXzXzXlXkXjXjXjXjXkX",
"M.M.M.M.M.M.M.M.M.m.m.m.m.b.v.v.b.} M 1 8 q q 1 < 6 8 8 < # # n ^ ^ ^ ! ^ [ [ Q Q Q Q A.XXyXaXsXF.S W uXzXzXzXzXzXkXgXkXxXxXxXxX",
"M.M.M.M.M.M.M.m.m.m.v.l.v.m.b.v.v.} n < 8 q q 1 < q q < + + 6 N ^ { ^ ^ } m.m.^ Q Q Q `.sXdXsXaX`.U S eXlXzXzXzXxXjXdXhXzXxXxXxX",
"m.M.M.M.M.M.b.| / Y B N Y  .m.v.v.} n < < q q < < 8 < # t R R Y ! } ! [  .V.V.[ Q Q Q D.+XyXrXXXD.U S XXlXxXzXzXxXkXsXdXgXhXkXjX",
"m.m.m.M.m. .Q B i y 9 8 9 B } v.v.{ t < < 8 8 < $ < y R O.R i y Y ] R Y [ A.M.! Q Q Q V.].XX.X].A.Q Z .XkXzXlXzXxXkXaXpXOXyXgXgX",
"m.m.m.M.x.U y 8 8 w w w 8 6 B  .v.^ t < < 8 q , < Y %.%.E e 6 6 y Y E i y | x.Y Y W Q m.`.].`.`.A.Q N ].kXvXxXxXxXkXyXrXXXrXsXsX",
"m.m.m.m.v.] ' i 6 8 8 8 6 < 8 ! x.^ t < < 8 1 < L %.!.E.J 9 9 9 9 9 y y 9 9 R Y S S S l.F.F.F.H.V.Q N ].hXgXgXlXvXxXyXXXrXyXyXuX",
"m.m.m.m.m.!._.@.8 < , < < < < B l.^ q < < 8 < y R O.E.W.E H 9 % 5 % % 8 9 6 B U S C N v.`.F.S.F.A.Q Z m.F.l.l.V.{.sXtXXXXXrXrXrX",
"v.m.m.b.m.~. XW.i # % $ $ $ # N l.^ q < 1 < t R R T O.] i 9 7 5 % 6 9 5 6 9 y A B Z S D.`.A.Z.D.D.[ N t w 6 % < q Q A.].XXXXXXXX",
"v.v.v.v.m.N.T././ e I J 6 # # B l.^ n q < 8 Y O.R L i i Y Y Y i 9 i 9 7 7 9 i B Z S ! `.A.m.V.Z.D./ y 6 < < % # X X t `.tXXXXXXX",
"x.v.v.v.Q.W.T.).T.@.P.X.9 + < Q l.! M q < y / R Y i y L R R L H _ _ 9 5 7 5 9 i Z N } ].b.l.b.V.M.! B t 8 < % # $ # X A.+X].]..X",
"x.v.v.x.!.).}.}.W.P.P...7 # N } } Q M q , y R L y y y y i 9 7 K I.P.i % 7 6 6 9 N B v.].M.v.b.Z.l.S N w 8 % % % # # < A.Q.m.`..X",
"l. .x.x.m.E.}.).T.@.#.X.J 9 ! l. .Q n 8 # w Y L e e e 9 5 % r _ Y.Y._ e % 6 < < Z  .S.[.S.M.m.m.! w 8 q 8 6 < # #   M [.A.} F.].",
"N.m.x. . .m.!.E.O.E L.P.E 9 Z } | Q q $ # < B P i i i 7 % r _ I.(.(.U._ 9 % < < N Q [ | } ^ U S N 9 8 8 9 9 e H 7 # Z F.M.} A.`.",
").Q.M.} |  .O./ L ' P.' w 3 4 M ^ k.~ q # # w L L H i e H #.^.(._.W.#...E i 6 t t q 8 8 q 8 < < 8 i t 9 9 i ` K.r t U S  .v.m.F.",
"oX[.[.M.} Q N y y O./ t 3 4 3 3 G B.B.G < # < y ' +.H i T P.^.^.#.H 9 i ' @.i Y M t q t q q 8 < N P y 6 9 T I.P.J Y B < l.S.M.D.",
"iXiXfX+X[ N w w w C c 4 4 4 < < F d.d.C q < # i P.W.T i e _ ^.^.H 5 7 H E P.E ' S S B n t t 8 8 Z.O.Y H T o.K.T.R R w   Q Q.Q.F.",
"gXhXcXdX! t q w c g 4 4 < , , 3 m m q w w < 8 O.)./.+.T J o. X#X` I I _ L.R.$.N.c.v.} M t w < n ].E.%.@.] .._ $.Y Y w   q `..XF.",
"gXjXbXgXU t w n m c 4 < , : # q m c w q 4 < Z [.&X@X_.W.U.(.$X%XI.I.I.U.^.P.%.Q.A.C.^ t w 8 < ! S.$...H 9 w 9 w w P w   # F.OXQ.",
"hXcXbXdXN B Q m q 3 < , ; # , c m c q 4 < < q F.fX$X&X$X@X#X&X%X^.^.(.(.W.P.O.z.z.l.Z n 8 < < l.m.w 3 G k.W 4 # w N q : # k.XX[.",
"fXcXnXuXq ^ B.m 4 3 , , ; # , 4 c c 3 3 < @ . G {.%X%X$X#X@X%X%XI.P.^.R.P.%.W ;.2.3.G M $ # < S k.{ B..X].v.Z Z Z V v n w n c.A.",
"iXcXnXH.w ^ G c 3 < , # ; # , 3 c c 3 < < , 4.>X4XoX#X@X|._.W.#._ K.I.P.#.@.F h k &.8.F # + q w b.{.D.^ M n C W Z v 0 n n 0 3 w ",
"pXhXgXl.V F 4 < , , # # ; # , < q c 3 $ c f.7X8X<X[. X_._._.I._ K X.#.o.#...3 k b x :.w.m < w Z Q S 0 3 V V M n n q < w w w q 0 ",
"m.M.k.V F c 3 < , # # ; + + , < 4 c < m h.6X8X6Xi.z.).).W.R.^.R.X.I J _ @.L = f l ;.x 9.g.3.C S M w n Z Z w w q q < , 4 q q q q ",
"+ + , c c 3 3 , # # # + + # 3 3 3 e ( <X*X2X9X-X<.2.T./.P.L.L.J.` I _ ..' 7 - x k x l 5.t.,XG.d.C n n n t t w 8 < # ; < < < < < ",
"3 c c 4 3 , , # # # + + + , 3 , : ' wX1Xp.6X2Xi.7.2.| T.W.^.L.` _ _ X.' H @ d ;.;.l x :.7.r.>X;Xw.g O       O + # # $ , , , , , ",
"m c 4 3 , ; # + + + + + # , , ; F 4X7Xe.=X1Xs.t.9.8.d.@.N.W.W.#.X.o.' L 9 # f ;.;.x *.:.0.e.r.i.h.y.g             + # # , , , , ",
"c 4 3 , # # + + + + + + ; ; , 3.0XqX1Xr.=X1Xj.j.u.9.d.+.R ( +.' J i e e 7 = l *.;.5.;.:.8.e.r.e.5.j.;Xg             + # : < < , ",
"3 < : # + + + + + + + + # # z.0X9X7X2Xs.=X2X1X>X*Xp.4.E ..L w 6 6 6 e e % 2 x *.5.5.*.:.7.r.r.0.e.i.j.8.=   O     O O + + # , < ",
"4 < # # + + + + + + + +   G 0X6X:X6X2Xa.=Xj.r.1X2X*X7.Z _ T L H i y e 7 # f :.>.>.d a >.7.r.q.0.t.5.>.t.b O O O O     O O O # : ",
"'.n + + + + + + + + +   , 3X0X6X1X1X1Xh.j.a.:.9.j.j.e.3.E T H i r e 9 5 ; x :.;.d = f :.9.r.0.r.7.;.e.i.5.=   O O O     O O + + ",
"vXG   + # # + + + + +   4.0X9X6X6X1X1Xh.a.t.5.:.x 5.u.y.x.o.I i r r r 5 a :.*.- = f x >.7.e.7.0.*.7.t.q.q.g O O O O O   O O +   ",
"hXq   + # # + + + +   # <X9X6X1X1X=X=Xh.r.q.7.q.:.l x *.3.%.#.I H H i # j l = = j k :.>.7.0.7.>.*.e.0.0.r.2.+   O O     O O O O ",
"uX# O + + + + + + +   D 7X9X2X-X-X=Xs.a.r.7.7.q.0.5.5.f s F #.#.E H % - j = - f *.&.>.>.7.5.5.*.>.r.9.0.7.8.2             O   O ",
"H.  + < 8 < # + + +   f.7X6X2X-X*Xj.t.i.q.5.7.q.r.e.e.;.d k v T H % + f - d j l *.-.5.:.7.;.>.x 9.0.>.5.7.q.g     O           + ",
"{   # 6 N y 8 $ + O . g.6X-X*X1X-Xj.r.t.7.;.5.t.*Xp.i.8.j x f     + d - - x l *.;.;.>.:.<.*.;.=.e.;.>.>.9.7.j O   O           + ",
"n + + # q < % $ q 9 C <X5X>X*Xi.j.-Xs.r.7.:.5.*X-Xp.p.q.x *.*., # 2 f a l ;.l :.;.:.>.:.>.x *.5.>.:.>.>.9.;.x =       O       + ",
", + + # , , + < U / G.7X>X*X-X=Xq.r.a.r.5.:.r.=Xj.r.i.r.*.*.;.2 X d j j ;.*.x :.;.;.:.-.>.l *.5.*.:.:.7.>.l x j +             # ",
"# + + + , , ; 8 U ^ 3X6X:X*Xi.j.i.7.0.q.5.:.q.i.5.<.u.i.;.*.;.> + f j *.:.*.x ;.:.-.-.*.:.l ;.*.x >.>.>.;.l &.2.:           O , ",
"# + + + # # , t B ~ 3X5X*Xj.i.q.r.e.>.:.:.:.7.7.;.5.e.t.:.l *.d ; j j :.>.*.*.;.:.*.&.&.-.j k j >.<.-.<.l k :.5.3 X   O     O , ",
"# + + + + + # q y Z ,X1X*Xi.r.q.7.q.5.x x :.5.:.*.5.e.r.:.x x j f f x >.>.*.*.-.>.;.x k *.j a *.:.x :.l j ;.5.;.d +   + # # + < ",
"# + + + + < q n N N G.2Xs.u.r.9.5.;.5.;.x :.:.l x :.7.q.:.x l x l k *.>.>.*.*.-.:.>.:.&.&.j - j &.:.&.-.<.9.>.;.f # X   # $ < < ",
"# + + + + q M N t F <X1X*Xp.9.0.9.:.l l x *.k f l *.5.7.:.;.l &.*.x :.1.>.*.*.-.:.>.:.:.-.j a ;.>.>.<.<.:.&.;.x f , + O X   # < ",
"+ + + + + < < < @ 3.7X=Xr.a.s.e.7.7.:.j j k f d j ;.7.5.;.;.l j j l >.<.;.*.*.=.-.*.a f -.l f :.>.&.x k l ,.<.k k d + + + + # , ",
"+ + + + O + + +   D 7X:X9.5.7.q.q.7.5.l d f a a j :.7.:.;.;.*.x k x >.>.*.*.*.&.-.*.d = j =.a k :.-.>.:.9.e.;.j l l 2 # # # , , ",
"+ + + O       O   2 h.2X-Xp.e.9.7.7.5.;.f d a a j >.>.:.:.;.x x *.=.:.*.&.*.&.&.*.*.j - * - o f &.>.>.9.e.;.l x >.:.2 # # , < : ",
"+ +               b j.*X*Xh.y.8.5.>.=.h a - a a l :.;.;.:.*.k j *.;.*.*.&.*.x x *.*.j d = o   j >.<.9.1.-.&.-.>.>.l n w < < , , ",
"O                 4.1Xy.3.~ ~ ~ ^ d.3.D 2 * & p x *.l *.;.*.j j x >.:.:.:.-.*.=.>.<.x a = o o a :.>.>.-.=.-.,.7.;.f n B t : # , ",
"O           O O   D 3.V t t t y B U Q ! Q Z m l x h h x ;.*.k j *.>.>.5.1.7.9.9.9.>.j - * o o = a l &.:.:.-.:.*.*.k 3 < # # # # ",
"            O   # q w 8 8 q q q q w t N Z U ! ^ ~ F D l l &.l x ;.>.>.>.1.e.e.5.*.f - = = = = o s &.,.<.>.:.-.x k j > O   + # # ",
"O               < 8 8 8 8 q q q q q q q q w N Z U ! Q G F 2.&.&.:.>.>.>.1.7.:.j a = * * o o + o j >.<.,.<.,.:.>.;.l d +   + # , ",
"              # 8 6 6 6 8 8 8 q 8 8 8 8 8 q q q w M B U ! ~ G 2.:.,.,.>.>.x a - = = * * = o o o = *.:.-.>.>.>.,.>.*.f 2 # + + # ",
"O O           < 6 < 6 6 6 6 6 8 8 8 8 8 q q q q q q w t N U ! ~ 3.4.5.,.l a a s a - - - o o o o   f *.-.>.>.>.>.:.*.j 2 < # O + ",
"O O         + < < < < < 6 6 q q q q 6 6 8 q q 8 8 q q q q w M S U Q 3.4.;.h &.j f a - * o o       a -.7.9.7.>.:.*.l f 2 , + O # ",
"O           , < < < < < < 0 q q q q q 6 6 q q 8 q q 8 q q q q w M B U Q 3.4.*.p - = o             k 7.e.e.9.7.>.-.j a = + O O # ",
"          O < < < < < < < 0 q 0 0 0 0 6 6 q q 0 q 8 8 8 8 q q 8 q w n B U ~ F 4 o           O   2 7.e.e.e.9.7.>.;.j - ; #   O + "
};
