/* XPM */
static char *walls4_0[] = {
/* columns rows colors chars-per-pixel */
"128 128 26 1 ",
"  c gray11",
". c #382C14",
"X c #202020",
"o c #282828",
"O c #2C2C2C",
"+ c gray19",
"@ c #343434",
"# c gray22",
"$ c #403018",
"% c #483818",
"& c #543C1C",
"* c #5C4020",
"= c #6C4824",
"- c #744C28",
"; c gray25",
": c #484848",
"> c #4C4C4C",
", c gray33",
"< c gray36",
"1 c #646464",
"2 c gray44",
"3 c #7C7C7C",
"4 c #80502C",
"5 c gray55",
"6 c #989898",
"7 c gray66",
/* pixels */
"333333%%&&****--****************************&&$$%%********&&&&%%,,11333322222222OOOOOOOOOOOOOO::1122,,11,,,,>>>>>>>>,,<<<<112233",
"333333%%&&****--****************************&&$$%%********&&&&%%,,11333322222222OOOOOOOOOOOOOO::1122,,11,,,,>>>>>>>>,,<<<<112233",
"332222,,%%&&**--**************&&************&&$$%%******&&%%%%,,1133332233223333::OOOOOOOOOO::1122,,11,,>>>>,,,,<<11111111111122",
"332222,,%%&&**--**************&&************&&$$%%******&&%%%%,,1133332233223333::OOOOOOOOOO::1122,,11,,>>>>,,,,<<11111111111122",
"22222211,,%%&&==****************&&&&********&&$$%%**&&&&%%::,,1111::********::1111::OOOOOO::1122,,11,,>>,,<<11111111111111111111",
"22222211,,%%&&==****************&&&&********&&$$%%**&&&&%%::,,1111::********::1111::OOOOOO::1122,,11,,>>,,<<11111111111111111111",
",,22332211,,%%==****************&&&&********%%$$%%&&%%%%,,1133::****%%%%$$%%$$%%1111::::::1122,,111111111111<<,,,,>>>>>>>>>>>>>>",
",,22332211,,%%==****************&&&&********%%$$%%&&%%%%,,1133::****%%%%$$%%$$%%1111::::::1122,,111111111111<<,,,,>>>>>>>>>>>>>>",
">>,,22223311%%==**************************&&%%$$%%%%,,113333::**%%%%%%%%$$%%$$%%::3311111122,,11<<<<<<<<<<<<<<<<<<<<<<<<<<<<<<<<",
">>,,22223311%%==**************************&&%%$$%%%%,,113333::**%%%%%%%%$$%%$$%%::3311111122,,11<<<<<<<<<<<<<<<<<<<<<<<<<<<<<<<<",
">>>>,,222222%%&&**********&&************&&$$$$%%,,11333311****%%%%%%%%%%$$%%$$$$..11557722,,11,,>>>>>>>>>>>>>>>>>>>>>>>>>>>>>>>>",
">>>>,,222222%%&&**********&&************&&$$$$%%,,11333311****%%%%%%%%%%$$%%$$$$..11557722,,11,,>>>>>>>>>>>>>>>>>>>>>>>>>>>>>>>>",
">>>>>>,,2233,,%%&&********************&&$$$$::,,113333::**%%%%%%%%%%%%%%$$$$%%....117733,,11,,>>>>>>>>>>::>>>>>>>>>>>>>>>>>>>>>>",
">>>>>>,,2233,,%%&&********************&&$$$$::,,113333::**%%%%%%%%%%%%%%$$$$%%....117733,,11,,>>>>>>>>>>::>>>>>>>>>>>>>>>>>>>>>>",
">>>>>>>>,,2233,,%%&&**************&&&&$$%%,,11113311****%%%%%%%%%%%%%%%%$$$$%%....11663311,,>>>>>>>>>>>>>>>>>>>>>>>>>>>>>>>>>>>>",
">>>>>>>>,,2233,,%%&&**************&&&&$$%%,,11113311****%%%%%%%%%%%%%%%%$$$$%%....11663311,,>>>>>>>>>>>>>>>>>>>>>>>>>>>>>>>>>>>>",
">>>>>>>>::,,3311,,%%&&********&&&&$$$$,,11113333::**&&%%%%%%%%%%%%$$%%%%$$..%%....116611,,>>>>>>>>::>>>>>>>>>>>>>>>>>>::>>>>>>>>",
">>>>>>>>::,,3311,,%%&&********&&&&$$$$,,11113333::**&&%%%%%%%%%%%%$$%%%%$$..%%....116611,,>>>>>>>>::>>>>>>>>>>>>>>>>>>::>>>>>>>>",
">>>>>>>>::::333311,,%%&&&&&&&&$$$$,,1133333311****&&%%%%%%%%%%%%%%$$%%%%$$..$$....115511,,>>>>>>::>>>>>>>>>>>>>>>>>>>>>>>>>>>>>>",
">>>>>>>>::::333311,,%%&&&&&&&&$$$$,,1133333311****&&%%%%%%%%%%%%%%$$%%%%$$..$$....115511,,>>>>>>::>>>>>>>>>>>>>>>>>>>>>>>>>>>>>>",
">>>>>>>>::::33223311,,$$$$$$$$::,,11333311::**&&&&%%%%%%%%%%%%%%%%%%%%%%%%..$$..;;115511<<>>::>>>>>>::>>>>>>>>>>>>>>>>>>>>>>>>>>",
">>>>>>>>::::33223311,,$$$$$$$$::,,11333311::**&&&&%%%%%%%%%%%%%%%%%%%%%%%%..$$..;;115511<<>>::>>>>>>::>>>>>>>>>>>>>>>>>>>>>>>>>>",
">>>>>>>>::::2222333311,,,,,,,,,,11333311****&&%%%%%%&&%%%%%%%%%%%%..%%%%%%......>>223311<<>>>>>>::>>>>>>>>>>>>::::>>>>>>>>>>>>::",
">>>>>>>>::::2222333311,,,,,,,,,,11333311****&&%%%%%%&&%%%%%%%%%%%%..%%%%%%......>>223311<<>>>>>>::>>>>>>>>>>>>::::>>>>>>>>>>>>::",
">>>>>>>>::##222211,,,,,,11226666552211**&&&&%%&&&&%%%%%%%%%%%%%%%%..%%%%%%......,,225511,,>>>>>>>>>>>>>>>>>>>>::::>>::::::::>>>>",
">>>>>>>>::##222211,,,,,,11226666552211**&&&&%%&&&&%%%%%%%%%%%%%%%%..%%%%%%......,,225511,,>>>>>>>>>>>>>>>>>>>>::::>>::::::::>>>>",
">>>>>>::##113311,,,,,,,,::1166555511**%%&&&&%%&&&&%%%%%%%%%%%%%%%%..%%%%%%......11223311,,>>>>>>>>>>>>>>>>>>>>>>>>>>::::::::>>>>",
">>>>>>::##113311,,,,,,,,::1166555511**%%&&&&%%&&&&%%%%%%%%%%%%%%%%..%%%%%%......11223311,,>>>>>>>>>>>>>>>>>>>>>>>>>>::::::::>>>>",
">>>>::##113322,,,,,,,,,,::::225533**&&%%**%%%%%%%%%%%%%%%%%%%%%%%%..%%%%%%....;;11333311,,>>>>>>>>>>>>>>>>>>>>>>>>>>::::::::>>>>",
">>>>::##113322,,,,,,,,,,::::225533**&&%%**%%%%%%%%%%%%%%%%%%%%%%%%..%%%%%%....;;11333311,,>>>>>>>>>>>>>>>>>>>>>>>>>>::::::::>>>>",
">>::##11333311,,,,,,,,,,::::::11,,**%%**&&%%%%%%%%%%%%%%%%%%%%%%$$..%%%%%%....>>22333311,,>>>>>>>>>>>>>>>>>>>>>>>>>>::::::::>>::",
">>::##11333311,,,,,,,,,,::::::11,,**%%**&&%%%%%%%%%%%%%%%%%%%%%%$$..%%%%%%....>>22333311,,>>>>>>>>>>>>>>>>>>>>>>>>>>::::::::>>::",
"::##1133332211,,,,,,,,,,;;>>,,::11**%%**%%%%&&%%%%%%%%%%%%%%%%%%$$..%%%%$$....,,333333,,>>>>>>>>>>>>>>>>>>>>>>>>>>>>>>>>>>>>::##",
"::##1133332211,,,,,,,,,,;;>>,,::11**%%**%%%%&&%%%%%%%%%%%%%%%%%%$$..%%%%$$....,,333333,,>>>>>>>>>>>>>>>>>>>>>>>>>>>>>>>>>>>>::##",
"##1111::::1122,,,,,,,,>>;;,,,,1111**%%&&%%%%%%%%%%%%%%%%%%%%%%%%....%%%%$$....11==**11,,>>>>>>>>>>>>>>>>::>>>>>>>>>>>>>>>>::##;;",
"##1111::::1122,,,,,,,,>>;;,,,,1111**%%&&%%%%%%%%%%%%%%%%%%%%%%%%....%%%%$$....11==**11,,>>>>>>>>>>>>>>>>::>>>>>>>>>>>>>>>>::##;;",
"1111::&&&&::1111,,,,,,;;;;,,,,,,22**&&&&%%%%%%%%%%%%%%%%%%%%%%%%..$$%%$$..$$<<==****,,11;;>>>>>>>>>>>>>>>>>>>>>>>>>>>>::;;##;;;;",
"1111::&&&&::1111,,,,,,;;;;,,,,,,22**&&&&%%%%%%%%%%%%%%%%%%%%%%%%..$$%%$$..$$<<==****,,11;;>>>>>>>>>>>>>>>>>>>>>>>>>>>>::;;##;;;;",
"11::&&**%%&&::33::,,;;;;;;,,,,,,1111&&&&%%%%%%%%%%%%%%%%%%%%%%$$..$$....$$11==******%%1111;;::>>>>>>>>>>>>>>>>>>::;;##@@@@##;;11",
"11::&&**%%&&::33::,,;;;;;;,,,,,,1111&&&&%%%%%%%%%%%%%%%%%%%%%%$$..$$....$$11==******%%1111;;::>>>>>>>>>>>>>>>>>>::;;##@@@@##;;11",
"::&&**%%%%%%$$1122::;;,,;;,,,,,,::33::&&%%%%%%%%%%%%%%%%%%%%$$........>>1133%%%%%%%%%%222211;;;;;;::::::::::;;;;##@@##;;##,,1111",
"::&&**%%%%%%$$1122::;;,,;;,,,,,,::33::&&%%%%%%%%%%%%%%%%%%%%$$........>>1133%%%%%%%%%%222211;;;;;;::::::::::;;;;##@@##;;##,,1111",
"&&**%%%%%%%%$$::3311::,,;;,,,,,,::2211$$%%%%%%%%%%%%%%%%%%%%........>>113333331111111155551111;;##@@@@@@@@@@@@@@##;;;;##,,1133::",
"&&**%%%%%%%%$$::3311::,,;;,,,,,,::2211$$%%%%%%%%%%%%%%%%%%%%........>>113333331111111155551111;;##@@@@@@@@@@@@@@##;;;;##,,1133::",
"**%%%%%%%%%%$$$$1122::,,;;,,,,,,##1133::%%%%%%%%%%%%%%%%%%......;;<<11,,,,,,,,,,,,,,335566662211,,##;;;;;;;;;;;;;;;;##,,1133::&&",
"**%%%%%%%%%%$$$$1122::,,;;,,,,,,##1133::%%%%%%%%%%%%%%%%%%......;;<<11,,,,,,,,,,,,,,335566662211,,##;;;;;;;;;;;;;;;;##,,1133::&&",
"%%%%%%&&%%%%$$%%113311::;;,,,,>>##113311$$%%%%%%%%%%%%%%....;;,,1111,,::;;##;;;;;;;;,,336666553311,,##;;;;;;;;;;####,,1133::&&**",
"%%%%%%&&%%%%$$%%113311::;;,,,,>>##113311$$%%%%%%%%%%%%%%....;;,,1111,,::;;##;;;;;;;;,,336666553311,,##;;;;;;;;;;####,,1133::&&**",
"%%%%%%%%%%%%$$%%::333311;;,,>>::##113333::..$$%%%%%%$$....,,113311,,::;;;;####;;;;;;;;,,335555223311,,############,,113311&&**%%",
"%%%%%%%%%%%%$$%%::333311;;,,>>::##113333::..$$%%%%%%$$....,,113311,,::;;;;####;;;;;;;;,,335555223311,,############,,113311&&**%%",
"%%%%%%%%%%%%$$%%$$113322##::::::##22223311..............;;113311,,::;;;;;;##;;##;;;;##;;223322,,,,3311,,########,,113311::**%%%%",
"%%%%%%%%%%%%$$%%$$113322##::::::##22223311..............;;113311,,::;;;;;;##;;##;;;;##;;223322,,,,3311,,########,,113311::**%%%%",
"%%&&&&%%%%%%..%%$$,,223311######2233333333::........;;>><<33,,,,::;;::::;;##;;##;;;;##::112211::::,,3311,,,,,,,,113311::&&%%%%%%",
"%%&&&&%%%%%%..%%$$,,223311######2233333333::........;;>><<33,,,,::;;::::;;##;;##;;;;##::112211::::,,3311,,,,,,,,113311::&&%%%%%%",
"%%&&&&%%%%%%..%%$$::33552211112233,,====,,11::::>><<<<3333,,,,::;;;;::::;;##;;;;##;;@@,,1122,,::::::,,33333355553322::&&%%%%%%%%",
"%%&&&&%%%%%%..%%$$::33552211112233,,====,,11::::>><<<<3333,,,,::;;;;::::;;##;;;;##;;@@,,1122,,::::::,,33333355553322::&&%%%%%%%%",
"%%%%%%&&%%%%..%%$$::332255222211====********111111223322,,,,::;;;;;;;;;;;;@@;;;;####++,,1111::::::::::11335555332211&&%%%%%%%%%%",
"%%%%%%&&%%%%..%%$$::332255222211====********111111223322,,,,::;;;;;;;;;;;;@@;;;;####++,,1111::::::::::11335555332211&&%%%%%%%%%%",
"%%%%%%%%%%$$..%%$$::3322222222==************&&33332222,,,,::;;;;;;::;;;;;;@@;;;;####::1122,,,,::::::::,,11222211<<,,&&%%%%&&&&&&",
"%%%%%%%%%%$$..%%$$::3322222222==************&&33332222,,,,::;;;;;;::;;;;;;@@;;;;####::1122,,,,::::::::,,11222211<<,,&&%%%%&&&&&&",
"%%%%%%%%%%$$$$%%$$,,225522222211************%%332233,,,,,,;;;;;;;;;;;;;;;;@@;;;;##@@,,223333111111111111113322<<,,<<&&%%%%&&&&&&",
"%%%%%%%%%%$$$$%%$$,,225522222211************%%332233,,,,,,;;;;;;;;;;;;;;;;@@;;;;##@@,,223333111111111111113322<<,,<<&&%%%%&&&&&&",
"%%%%%%%%%%..$$$$$$,,333311,,113333******&&%%%%3333,,,,::,,;;;;;;;;;;;;;;;;@@;;;;##++11,,------------------%%**--<<11&&%%%%&&&&&&",
"%%%%%%%%%%..$$$$$$,,333311,,113333******&&%%%%3333,,,,::,,;;;;;;;;;;;;;;;;@@;;;;##++11,,------------------%%**--<<11&&%%%%&&&&&&",
"%%%%%%%%$$..%%$$::113311,,<<,,113333&&&&%%%%1133,,,,::::,,::;;;;;;;;;;;;;;++;;;;@@,,22======**************%%******33&&%%%%%%%%%%",
"%%%%%%%%$$..%%$$::113311,,<<,,113333&&&&%%%%1133,,,,::::,,::;;;;;;;;;;;;;;++;;;;@@,,22======**************%%******33&&%%%%%%%%%%",
"%%%%%%%%$$..$$::111111,,<<,,,,,,11333311,,,,3311,,::;;::,,::;;;;;;;;;;;;##++;;##++,,11==**==**************%%****&&11&&%%%%&&%%%%",
"%%%%%%%%$$..$$::111111,,<<,,,,,,11333311,,,,3311,,::;;::,,::;;;;;;;;;;;;##++;;##++,,11==**==**************%%****&&11&&%%%%&&%%%%",
"%%%%%%%%..$$::111133,,<<,,,,,,,,,,113355335533,,::;;;;::,,::;;;;;;;;;;;;##++;;##++11,,44**==****&&********%%****&&11&&%%%%%%%%%%",
"%%%%%%%%..$$::111133,,<<,,,,,,,,,,113355335533,,::;;;;::,,::;;;;;;;;;;;;##++;;##++11,,44**==****&&********%%****&&11&&%%%%%%%%%%",
"%%%%%%$$..::11112211,,<<,,,,,,,,,,,,1133555555,,;;;;;;::,,>>;;;;;;;;;;;;@@++;;++1122::44**==**************%%****&&11$$%%%%%%%%%%",
"%%%%%%$$..::11112211,,<<,,,,,,,,,,,,1133555555,,;;;;;;::,,>>;;;;;;;;;;;;@@++;;++1122::44**==**************%%****&&11$$%%%%%%%%%%",
"%%%%%%..::11113333,,<<,,,,,,,,,,,,,,,,11556666,,;;;;;;::,,>>;;;;;;;;;;;;@@++##::2222==44**==**************%%****&&11::$$%%%%%%%%",
"%%%%%%..::11113333,,<<,,,,,,,,,,,,,,,,11556666,,;;;;;;::,,>>;;;;;;;;;;;;@@++##::2222==44**==**************%%****&&11::$$%%%%%%%%",
"%%%%$$::1111223311,,<<,,,,,,,,,,,,,,,,,,11666611;;;;;;::,,>>::;;;;;;;;;;++++@@,,3311==44**==**************&&****&&1111::$$%%%%%%",
"%%%%$$::1111223311,,<<,,,,,,,,,,,,,,,,,,11666611;;;;;;::,,>>::;;;;;;;;;;++++@@,,3311==44**==**************&&****&&1111::$$%%%%%%",
"%%$$::1111223311,,<<,,,,<<,,,,,,,,,,::,,,,115522##;;;;::,,>>::;;;;;;;;;;++++++1133,,==44****************&&&&****&&113311::$$%%%%",
"%%$$::1111223311,,<<,,,,<<,,,,,,,,,,::,,,,115522##;;;;::,,>>::;;;;;;;;;;++++++1133,,==44****************&&&&****&&113311::$$%%%%",
"$$::111133332211,,,,,,,,,,,,,,,,,,,,,,::,,,,5555,,####::,,::>>;;;;;;;;;;++++::2222==**44**==************&&******%%11333311::$$$$",
"$$::111133332211,,,,,,,,,,,,,,,,,,,,,,::,,,,5555,,####::,,::>>;;;;;;;;;;++++::2222==**44**==************&&******%%11333311::$$$$",
"::111155553311,,,,,,,,,,<<,,,,,,,,,,,,;;,,,,112222++####,,;;>>;;;;;;;;;;++++,,3311==**44==**************&&******%%1133333311::::",
"::111155553311,,,,,,,,,,<<,,,,,,,,,,,,;;,,,,112222++####,,;;>>;;;;;;;;;;++++,,3311==**44==**************&&******%%1133333311::::",
"111166665511,,,,,,,,,,,,<<,,,,,,,,,,,,;;::,,,,1111::++@@++;;>>;;;;;;;;;;++++,,33,,==**44--************&&********%%11OOOO##,,1111",
"111166665511,,,,,,,,,,,,<<,,,,,,,,,,,,;;::,,,,1111::++@@++;;>>;;;;;;;;;;++++,,33,,==**44--************&&********%%11OOOO##,,1111",
"1133666622,,,,,,,,<<<<,,,,,,,,<<,,,,,,::;;,,,,,,11,,::++++##::::;;;;;;##++::1122==****--44************&&********%%11OOOOOOOO##,,",
"1133666622,,,,,,,,<<<<,,,,,,,,<<,,,,,,::;;,,,,,,11,,::++++##::::;;;;;;##++::1122==****--44************&&********%%11OOOOOOOO##,,",
"OO::555511,,,,,,<<<<<<,,,,,,,,,,,,,,,,::;;,,,,,,,,::,,11,,@@@@::;;;;;;##++,,2233==****==44**********&&**********%%11OOOOOOOOXXOO",
"OO::555511,,,,,,<<<<<<,,,,,,,,,,,,,,,,::;;,,,,,,,,::,,11,,@@@@::;;;;;;##++,,2233==****==44**********&&**********%%11OOOOOOOOXXOO",
"OOXX::33,,,,,,,,<<<<<<,,,,,,,,,,,,::,,::;;::,,,,,,::1111,,++@@@@##;;;;##++113333&&******--****************&&****%%11OOOOOOOOXXOO",
"OOXX::33,,,,,,,,<<<<<<,,,,,,,,,,,,::,,::;;::,,,,,,::1111,,++@@@@##;;;;##++113333&&******--****************&&****%%11OOOOOOOOXXOO",
"OOXX::22,,,,,,,,<<<<,,,,,,,,,,,,,,,,,,::;;::,,,,::##115555,,++@@@@;;;;@@::22222211&&****====********************%%11OOOOOOOOXXOO",
"OOXX::22,,,,,,,,<<<<,,,,,,,,,,,,,,,,,,::;;::,,,,::##115555,,++@@@@;;;;@@::22222211&&****====********************%%11OOOOOOOOXXOO",
"XX::1111,,,,,,,,,,,,,,<<,,,,,,,,,,::,,::;;::,,::##::33555533,,++@@####++,,3322223311&&****==**********&&&&****&&%%11OOOOOOXXOOOO",
"XX::1111,,,,,,,,,,,,,,<<,,,,,,,,,,::,,::;;::,,::##::33555533,,++@@####++,,3322223311&&****==**********&&&&****&&%%11OOOOOOXXOOOO",
"::111111::,,,,<<<<,,,,,,,,,,,,,,,,::,,::@@::::##::,,33::%%::33,,++++++++223311####1111&&&&**==********&&&&**&&%%::11OOOOOOXXOOOO",
"::111111::,,,,<<<<,,,,,,,,,,,,,,,,::,,::@@::::##::,,33::%%::33,,++++++++223311####1111&&&&**==********&&&&**&&%%::11OOOOOOXXOOOO",
"1122222211::,,<<<<,,,,,,,,,,,,,,,,::,,::@@;;##::,,11::&&%%$$::3311,,,,113311##OOOO##112211&&**************&&%%::1111XXXXXXXXXXXX",
"1122222211::,,<<<<,,,,,,,,,,,,,,,,::,,::@@;;##::,,11::&&%%$$::3311,,,,113311##OOOO##112211&&**************&&%%::1111XXXXXXXXXXXX",
"333322223311::::,,,,,,,,,,,,,,,,,,::,,;;@@##::,,11::&&%%%%$$%%$$::33333311##OOOOOOOO##112211&&&&********&&%%::11223333::::::::::",
"333322223311::::,,,,,,,,,,,,,,,,,,::,,;;@@##::,,11::&&%%%%$$%%$$::33333311##OOOOOOOO##112211&&&&********&&%%::11223333::::::::::",
"33223355555511::::,,,,,,,,,,,,,,::::,,;;@@::,,11::&&%%%%%%$$%%$$%%::3333::##OOOOOOOOOO##112222,,&&&&&&%%%%::11,,,,,,,,,,,,113333",
"33223355555511::::,,,,,,,,,,,,,,::::,,;;@@::,,11::&&%%%%%%$$%%$$%%::3333::##OOOOOOOOOO##112222,,&&&&&&%%%%::11,,,,,,,,,,,,113333",
"33,,====,,555511::##,,,,,,,,,,,,::::::@@::,,11::&&%%%%%%%%$$%%$$%%$$3311##ooOOOOOOooooOO##113322,,&&%%::::1111,,,,,,,,,,,,::1133",
"33,,====,,555511::##,,,,,,,,,,,,::::::@@::,,11::&&%%%%%%%%$$%%$$%%$$3311##ooOOOOOOooooOO##113322,,&&%%::::1111,,,,,,,,,,,,::1133",
"====****====,,3311::##::,,,,,,::::::##::,,11::&&%%%%%%%%%%$$%%$$%%$$33##OOOOooOOOOooooOOOO##113322,,::::1133,,,,,,>>,,,,,,::1133",
"====****====,,3311::##::,,,,,,::::::##::,,11::&&%%%%%%%%%%$$%%$$%%$$33##OOOOooOOOOooooOOOO##113322,,::::1133,,,,,,>>,,,,,,::1133",
"************====,,11::##::,,::::####::11::::&&%%%%%%%%$$%%$$%%$$$$::11##OOOOOOXXooOOOOOOOOOO##11332211115511>>>>,,,,,,,,>>::1133",
"************====,,11::##::,,::::####::11::::&&%%%%%%%%$$%%$$%%$$$$::11##OOOOOOXXooOOOOOOOOOO##11332211115511>>>>,,,,,,,,>>::1133",
"**&&************==%%11::##::::##::,,11::&&**&&%%%%%%%%%%%%$$$$$$::11##OOOOOOOOOOXXXXOOooOOOOOO##1133225555,,>>>>,,,,,,,,>>::11==",
"**&&************==%%11::##::::##::,,11::&&**&&%%%%%%%%%%%%$$$$$$::11##OOOOOOOOOOXXXXOOooOOOOOO##1133225555,,>>>>,,,,,,,,>>::11==",
"**************&&**%%****::####::,,11::&&**&&%%%%%%%%%%$$%%$$$$$$,,####OOOOOOOOOOooXXXXooOOOOOOOO##11335511,,,,,,,,,,,,>>::::11==",
"**************&&**%%****::####::,,11::&&**&&%%%%%%%%%%$$%%$$$$$$,,####OOOOOOOOOOooXXXXooOOOOOOOO##11335511,,,,,,,,,,,,>>::::11==",
"****&&&&******&&**%%****&&::::,,11::&&&&**&&%%%%%%%%%%$$%%$$$$::11##OOOOooooOOOOOOooXXXXooOOOOOOOO##1133,,,,,,,,,,,,,,::::,,==**",
"****&&&&******&&**%%****&&::::,,11::&&&&**&&%%%%%%%%%%$$%%$$$$::11##OOOOooooOOOOOOooXXXXooOOOOOOOO##1133,,,,,,,,,,,,,,::::,,==**",
"****&&&&******&&**%%&&%%%%,,,,11::&&%%&&**%%%%%%%%%%%%$$%%$$::11::##OOOOooooooOOOOooXXXXXXooOOOOOOOO##1133,,,,,,,,,,::>>::11==**",
"****&&&&******&&**%%&&%%%%,,,,11::&&%%&&**%%%%%%%%%%%%$$%%$$::11::##OOOOooooooOOOOooXXXXXXooOOOOOOOO##1133,,,,,,,,,,::>>::11==**",
"************&&%%&&$$%%%%,,1111::&&%%%%&&**%%&&%%%%%%%%$$$$$$,,11####OOOOooooOOooOOOOXXXXXXXXooOOOOOOOO##1111,,,,,,>>::::,,==****",
"************&&%%&&$$%%%%,,1111::&&%%%%&&**%%&&%%%%%%%%$$$$$$,,11####OOOOooooOOooOOOOXXXXXXXXooOOOOOOOO##1111,,,,,,>>::::,,==****",
"************&&%%%%$$%%,,333333::%%%%%%&&**%%%%%%%%%%%%$$$$::11##OO##OOOOOOOOOOOOOOOOooXXXXooXXooOOOOOOOO##11>>>>>>::>>::,,==****",
"************&&%%%%$$%%,,333333::%%%%%%&&**%%%%%%%%%%%%$$$$::11##OO##OOOOOOOOOOOOOOOOooXXXXooXXooOOOOOOOO##11>>>>>>::>>::,,==****",
"************&&%%$$$$,,33333333,,%%%%%%&&**%%%%%%%%%%%%$$::11::##OO##OOOOOOOOOOOOOOOOooXXXXXXooXXooOOOOOOOOXX11>>::,,,,::==******",
"************&&%%$$$$,,33333333,,%%%%%%&&**%%%%%%%%%%%%$$::11::##OO##OOOOOOOOOOOOOOOOooXXXXXXooXXooOOOOOOOOXX11>>::,,,,::==******",
"************%%$$$$,,33,,;;,,3311::%%%%&&**%%%%%%%%%%%%$$,,11##OOOO##OOOOOOOOooooOOOOOOooXX  ooooXXooOOOOOOXX,,11,,,,>>11==******",
"************%%$$$$,,33,,;;,,3311::%%%%&&**%%%%%%%%%%%%$$,,11##OOOO##OOOOOOOOooooOOOOOOooXX  ooooXXooOOOOOOXX,,11,,,,>>11==******",
"**********&&%%$$,,33,,;;;;;;,,33,,%%%%&&**%%%%%%%%%%$$::11##OOOOOO##OOOOOOOOooooOOOOOOooXX  XXOOXXXXooOOOOXX,,33>>>>11==********",
"**********&&%%$$,,33,,;;;;;;,,33,,%%%%&&**%%%%%%%%%%$$::11##OOOOOO##OOOOOOOOooooOOOOOOooXX  XXOOXXXXooOOOOXX,,33>>>>11==********",
"********&&$$$$,,3333;;;;;;;;;;,,11%%%%&&%%%%%%%%%%$$::,,11OOOOOOOO##OOOOooOOOOOOOOOOOOooXX  XXOOooXXXXooOOXX,,33331111==********",
"********&&$$$$,,3333;;;;;;;;;;,,11%%%%&&%%%%%%%%%%$$::,,11OOOOOOOO##OOOOooOOOOOOOOOOOOooXX  XXOOooXXXXooOOXX,,33331111==********"
};
