/* XPM */
static char *walls4_1[] = {
/* columns rows colors chars-per-pixel */
"128 128 25 1 ",
"  c #202020",
". c #2C2C2C",
"X c gray22",
"o c #404000",
"O c #585400",
"+ c #706C00",
"@ c #484848",
"# c gray33",
"$ c #646464",
"% c gray44",
"& c #7C7C7C",
"* c #848400",
"= c #9C9C00",
"- c #B4AC00",
"; c #CCC400",
": c #E4D800",
"> c #FCF420",
", c gray55",
"< c #989898",
"1 c gray66",
"2 c #B4B4B4",
"3 c #C0C0C0",
"4 c #D0D0D0",
"5 c gainsboro",
"6 c #ECECEC",
/* pixels */
"................................................................................................................................",
"................................................................................................................................",
"####################@@55;;;;;;;;;;555555555555------55  XX,,115555555555;;;;;;%%,,,,##  @@@@@@@@@@@@@@@@@@@@####################",
"####################@@55;;;;;;;;;;555555555555------55  XX,,115555555555;;;;;;%%,,,,##  @@@@@@@@@@@@@@@@@@@@####################",
"####################@@5544--------<<11;;;;443333;;;;,,  XX,,3322,,;;&&;;======++####XX  XX%%========&&&&&&%%$$@@@@@@@@@@@@@@@@@@",
"####################@@5544--------<<11;;;;443333;;;;,,  XX,,3322,,;;&&;;======++####XX  XX%%========&&&&&&%%$$@@@@@@@@@@@@@@@@@@",
",,,,,,,,,,,,,,,,  ##@@5544------++<<;;;;==333333**--$$  XX115511,,&&;;&&++**++##&&##XX  XX==;;::==++,,2233;;;;;;$$$$;;;;,,,,,,,,",
",,,,,,,,,,,,,,,,  ##@@5544------++<<;;;;==333333**--$$  XX115511,,&&;;&&++**++##&&##XX  XX==;;::==++,,2233;;;;;;$$$$;;;;,,,,,,,,",
"4422--222211,,,,  ##@@5544====**++<<;;==1111<<,,,,==##  XX,,33,,,,,,1111$$**++##%%##XX  XX==::--++$$&&2255;;::::@@$$;;;;**&&4444",
"4422--222211,,,,  ##@@5544====**++<<;;==1111<<,,,,==##  XX,,33,,,,,,1111$$**++##%%##XX  XX==::--++$$&&2255;;::::@@$$;;;;**&&4444",
"1111----##%%&&%%  ##@@5533==**++%%&&<<11<<==,,%%,,**##  XX@@11;;==11,,,,&&OO##%%####XX  XX==::++$$,,22::;;&&====@@$$==**++@@,,<<",
"1111----##%%&&%%  ##@@5533==**++%%&&<<11<<==,,%%,,**##  XX@@11;;==11,,,,&&OO##%%####XX  XX==::++$$,,22::;;&&====@@$$==**++@@,,<<",
"22<<++##,,,,,,%%  @@@@5544==++++&&11<<<<<<==,,<<%%,,##  XX@@&&==**--,,1111%%$$%%XXXXXX  XX**==++$$&&;;;;;;&&++==@@%%$$@@@@$$--&&",
"22<<++##,,,,,,%%  @@@@5544==++++&&11<<<<<<==,,<<%%,,##  XX@@&&==**--,,1111%%$$%%XXXXXX  XX**==++$$&&;;;;;;&&++==@@%%$$@@@@$$--&&",
"2222&&,,11,,%%##  XX@@5544,,&&&&<<11<<44&&**<<11,,,,##  XX@@%%,,11,,11,,,,,,11%%XXXXXX..XX**++$$,,,,&&;;&&&&++++@@%%&&,,%%&&**$$",
"2222&&,,11,,%%##  XX@@5544,,&&&&<<11<<44&&**<<11,,,,##  XX@@%%,,11,,11,,,,,,11%%XXXXXX..XX**++$$,,,,&&;;&&&&++++@@%%&&,,%%&&**$$",
"<<1111%%%%,,@@@@  ..@@553311<<&&<<;;<<<<,,<<,,,,11,,##    @@##%%%%####XXXXXXXXXXXXXX  XXXX&&$$,,&&1111&&,,11&&@@%%,,<<,,,,11&&$$",
"<<1111%%%%,,@@@@  ..@@553311<<&&<<;;<<<<,,<<,,,,11,,##    @@##%%%%####XXXXXXXXXXXXXX  XXXX&&$$,,&&1111&&,,11&&@@%%,,<<,,,,11&&$$",
",,,,,,,,%%##@@@@  ..@@556611&&<<&&;;--%%,,,,,,11,,,,##..  @@@@XXXXXXXXXXXXXXXXXX    XXXXXX&&2222,,==&&<<&&&&<<$$%%<<,,<<,,,,11,,",
",,,,,,,,%%##@@@@  ..@@556611&&<<&&;;--%%,,,,,,11,,,,##..  @@@@XXXXXXXXXXXXXXXXXX    XXXXXX&&2222,,==&&<<&&&&<<$$%%<<,,<<,,,,11,,",
"%%%%%%%%##@@XXXX  ..@@5555,,&&<<<<;;==%%11,,11,,11,,##..  XX@@XX....          ....XXXXXXXX&&22&&==@@,,11::&&,,%%,,%%<<$$%%,,$$$$",
"%%%%%%%%##@@XXXX  ..@@5555,,&&<<<<;;==%%11,,11,,11,,##..  XX@@XX....          ....XXXXXXXX&&22&&==@@,,11::&&,,%%,,%%<<$$%%,,$$$$",
"####@@@@@@        ..@@115511<<&&;;--==%%<<,,,,&&,,%%$$XX  XX@@@@@@@@%%111111115555++XXXXXX%%22,,&&$$$$&&==XX####$$@@@@@@@@@@@@@@",
"####@@@@@@        ..@@115511<<&&;;--==%%<<,,,,&&,,%%$$XX  XX@@@@@@@@%%111111115555++XXXXXX%%22,,&&$$$$&&==XX####$$@@@@@@@@@@@@@@",
"          ........XX##,,5544,,&&,,==%%,,,,11&&,,==,,##XX  XX@@%%11>>>>555555444455;;++XXXX##,,%%$$$$##@@OOXXXXXXXXXXXX..........",
"          ........XX##,,5544,,&&,,==%%,,,,11&&,,==,,##XX  XX@@%%11>>>>555555444455;;++XXXX##,,%%$$$$##@@OOXXXXXXXXXXXX..........",
"..................XX##%%1144,,11,,,,,,11,,,,<<,,$$$$##XX  ..XX11>>;;==,,,,11,,11==%%OO  XXXXXXXXXXXXXXXXXXXXXX....              ",
"..................XX##%%1144,,11,,,,,,11,,,,<<,,$$$$##XX  ..XX11>>;;==,,,,11,,11==%%OO  XXXXXXXXXXXXXXXXXXXXXX....              ",
"XXXXXXXXXXXXXXXXXXXX##@@,,4411,,11<<%%<<,,&&,,11**####XX  ..@@11;;**&&11,,::::,,==##++XXXX....................XXXXXXXXXXXXXXXXXX",
"XXXXXXXXXXXXXXXXXXXX##@@,,4411,,11<<%%<<,,&&,,11**####XX  ..@@11;;**&&11,,::::,,==##++XXXX....................XXXXXXXXXXXXXXXXXX",
"##@@XXXXXXXXXXXXXXXX##@@%%33,,11<<;;==%%11,,11,,++##%%@@  ..@@11::**&&,,;;::&&,,**##OOXX@@@@########  @@@@@@@@@@@@@@@@@@@@@@@@@@",
"##@@XXXXXXXXXXXXXXXX##@@%%33,,11<<;;==%%11,,11,,++##%%@@  ..@@11::**&&,,;;::&&,,**##OOXX@@@@########  @@@@@@@@@@@@@@@@@@@@@@@@@@",
"<<<<<<<<<<<<<<<<<<..  ##@@3333**,,==**11%%,,,,,,%%$$####    @@::::&&&&11::::%%,,++##XXXX@@::----$$##@@##&&<<<<<<<<<<<<<<<<<<<<<<",
"<<<<<<<<<<<<<<<<<<..  ##@@3333**,,==**11%%,,,,,,%%$$####    @@::::&&&&11::::%%,,++##XXXX@@::----$$##@@##&&<<<<<<<<<<<<<<<<<<<<<<",
"44;;--5555;;==%%%%XX  ##@@,,33++$$<<$$,,%%%%11,,%%,,%%@@    @@::&&,,&&,,==++$$11,,##XXXXXX----**$$..@@&&33;;;;;;55--1111;;;;;;55",
"44;;--5555;;==%%%%XX  ##@@,,33++$$<<$$,,%%%%11,,%%,,%%@@    @@::&&,,&&,,==++$$11,,##XXXXXX----**$$..@@&&33;;;;;;55--1111;;;;;;55",
";;--**----==++##%%XX  ##@@%%<<$$$$,,,,%%,,##,,%%##%%##@@    @@&&,,&&,,::$$$$$$######XX  XX==**##$$  @@<<;;;;;;&&::==&&11;;==**%%",
";;--**----==++##%%XX  ##@@%%<<$$$$,,,,%%,,##,,%%##%%##@@    @@&&,,&&,,::$$$$$$######XX  XX==**##$$  @@<<;;;;;;&&::==&&11;;==**%%",
"--**11--==**++##%%XX  @@##@@<<<<%%,,$$%%%%%%%%##%%##@@..    ..11,,%%,,%%##XXXXXXXXXXXX  $$==**%%##  @@<<;;;;&&<<====&&<<;;==**%%",
"--**11--==**++##%%XX  @@##@@<<<<%%,,$$%%%%%%%%##%%##@@..    ..11,,%%,,%%##XXXXXXXXXXXX  $$==**%%##  @@<<;;;;&&<<====&&<<;;==**%%",
"**11,,--==++++####XX  @@##@@$$####XXXXXXXXXXXX..            ..,,%%XXXXXX                $$,,**,,##  @@<<11&&,,<<==&&&&11;;==**<<",
"**11,,--==++++####XX  @@##@@$$####XXXXXXXXXXXX..            ..,,%%XXXXXX                $$,,**,,##  @@<<11&&,,<<==&&&&11;;==**<<",
"11,,11--++####,,##XX  @@##@@........                        ..XX##XX        ............,,11,,11##  @@,,11<<11<<11&&11&&11==++%%",
"11,,11--++####,,##XX  @@##@@........                        ..XX##XX        ............,,11,,11##  @@,,11<<11<<11&&11&&11==++%%",
",,11&&&&##%%,,%%##XX  XX####@@XX                @@@@@@@@@@@@@@,,,,<<==========&&##..XX$$33551133$$  @@,,,,11::<<,,11<<1111&&&&<<",
",,11&&&&##%%,,%%##XX  XX####@@XX                @@@@@@@@@@@@@@,,,,<<==========&&##..XX$$33551133$$  @@,,,,11::<<,,11<<1111&&&&<<",
",,;;==&&,,,,,,$$@@XX  XX,,;;;;--==,,222222$$XX@@$$==;;;;;;--44666666;;;;;;;;--==**  XX&&55335511%%  @@&&<<11<<,,11<<::<<&&11<<11",
",,;;==&&,,,,,,$$@@XX  XX,,;;;;--==,,222222$$XX@@$$==;;;;;;--44666666;;;;;;;;--==**  XX&&55335511%%  @@&&<<11<<,,11<<::<<&&11<<11",
",,==**11,,,,,,$$@@XX  XX;;----==&&&&&&&&&&XX##@@==;;--%%<<1111<<11<<==&&==**==**++  XX,,55111133::  @@::11<<11<<::::&&11<<<<11<<",
",,==**11,,,,,,$$@@XX  XX;;----==&&&&&&&&&&XX##@@==;;--%%<<1111<<11<<==&&==**==**++  XX,,55111133::  @@::11<<11<<::::&&11<<<<11<<",
"<<**,,,,,,,,%%##XXXX  XX--==**$$$$$$$$$$$$  ##@@<<66<<<<==<<;;11<<<<&&11**&&==++OO  XX,,::,,,,11==  @@==OO%%$$::--**++OO%%%%##%%",
"<<**,,,,,,,,%%##XXXX  XX--==**$$$$$$$$$$$$  ##@@<<66<<<<==<<;;11<<<<&&11**&&==++OO  XX,,::,,,,11==  @@==OO%%$$::--**++OO%%%%##%%",
"$$$$$$$$$$##@@XXXXXX  XX--**$$$$<<**==++$$  @@@@<<66::11<<;;**<<;;;;11<<**11**$$OO  XX,,--%%,,11++  @@OOXXXX@@OOOOOOOO@@@@######",
"$$$$$$$$$$##@@XXXXXX  XX--**$$$$<<**==++$$  @@@@<<66::11<<;;**<<;;;;11<<**11**$$OO  XX,,--%%,,11++  @@OOXXXX@@OOOOOOOO@@@@######",
"##@@@@XXXXXX        ..XX--**$$<<<<&&**++$$  @@@@<<66;;11;;==&&<<;;**<<11<<<<&&$$oo  XX,,%%,,1155OO  @@....                XXXX@@",
"##@@@@XXXXXX        ..XX--**$$<<<<&&**++$$  @@@@<<66;;11;;==&&<<;;**<<11<<<<&&$$oo  XX,,%%,,1155OO  @@....                XXXX@@",
"            ......@@@@@@66$$<<11**,,**++$$  XX@@<<66--<<;;++&&11<<11<<&&--**&&$$oo  XX::66115511##  @@XXXXXXXX......            ",
"            ......@@@@@@66$$<<11**,,**++$$  XX@@<<66--<<;;++&&11<<11<<&&--**&&$$oo  XX::66115511##  @@XXXXXXXX......            ",
"@@$$$$%%,,<<,,,,,,,,@@  66<<<<11**,,$$&&$$oo  @@<<66--11==++&&<<&&<<11<<--**&&##oo  XX--66333311##  @@XXXXXXXXXXXXXXXXXXXXXXXXXX",
"@@$$$$%%,,<<,,,,,,,,@@  66<<<<11**,,$$&&$$oo  @@<<66--11==++&&<<&&<<11<<--**&&##oo  XX--66333311##  @@XXXXXXXXXXXXXXXXXXXXXXXXXX",
"$$,,22----,,11111111$$  661144,,++11,,&&$$oo  @@<<6611;;==++&&<<1111<<11--**,,##oo  ++==551111--##  @@++======----****@@@@@@@@##",
"$$,,22----,,11111111$$  661144,,++11,,&&$$oo  @@<<6611;;==++&&<<1111<<11--**,,##oo  ++==551111--##  @@++======----****@@@@@@@@##",
"$$22----**$$11111111@@  6611<<11&&,,&&,,$$oo  @@&&<<;;==++%%&&11<<<<&&<<--**$$##oo  XX==5555--==##  @@%%==++======------**<<XX##",
"$$22----**$$11111111@@  6611<<11&&,,&&,,$$oo  @@&&<<;;==++%%&&11<<<<&&<<--**$$##oo  XX==5555--==##  @@%%==++======------**<<XX##",
"$$--==**$$,,11----%%$$  664411<<11**,,11$$oo  XX##<<==++&&&&,,<<11&&<<&&--**%%@@XX  XX==5511--++##  @@<<%%%%====****++++++&&XX##",
"$$--==**$$,,11----%%$$  664411<<11**,,11$$oo  XX##<<==++&&&&,,<<11&&<<&&--**%%@@XX  XX==5511--++##  @@<<%%%%====****++++++&&XX##",
"$$--==%%%%11%%--**%%$$  66<<,,<<11,,,,&&$$oo  ..##116611;;;;==,,&&&&&&&&--**$$@@..  ++,,4433--OO##  @@551111==++%%%%OO$$%%$$XX@@",
"$$--==%%%%11%%--**%%$$  66<<,,<<11,,,,&&$$oo  ..##116611;;;;==,,&&&&&&&&--**$$@@..  ++,,4433--OO##  @@551111==++%%%%OO$$%%$$XX@@",
"$$%%,,11,,%%,,--++%%##  55111111<<1111&&$$oo  ..##,,6633;;**++&&<<<<,,11==**$$@@    ==,,4411**++oo  @@4411,,==++,,&&<<$$<<$$XX@@",
"$$%%,,11,,%%,,--++%%##  55111111<<1111&&$$oo  ..##,,6633;;**++&&<<<<,,11==**$$@@    ==,,4411**++oo  @@4411,,==++,,&&<<$$<<$$XX@@",
"$$1111,,1111--==++%%##  5533&&<<;;--&&,,$$oo    @@%%4433**++$$&&,,11<<--==$$$$XX    @@,,44,,++OOoo  @@331111==++&&,,<<<<11##XX@@",
"$$1111,,1111--==++%%##  5533&&<<;;--&&,,$$oo    @@%%4433**++$$&&,,11<<--==$$$$XX    @@,,44,,++OOoo  @@331111==++&&,,<<<<11##XX@@",
"$$55<<11,,,,**++++%%##  3355,,<<--**,,11$$oooo  @@##2255++$$&&,,11,,**$$$$$$%%XX  XX@@&&11&&++ooOOXX@@1111,,==**%%<<&&%%<<##XXXX",
"$$55<<11,,,,**++++%%##  3355,,<<--**,,11$$oooo  @@##2255++$$&&,,11,,**$$$$$$%%XX  XX@@&&11&&++ooOOXX@@1111,,==**%%<<&&%%<<##XXXX",
"$$551111,,<<++++%%%%##  2255&&11,,,,,,,,$$oooo  XX##,,33<<&&&&%%%%%%$$$$%%%%##XX  XX@@##XXXXOOOOXXXX@@%%##@@################XXXX",
"$$551111,,<<++++%%%%##  2255&&11,,,,,,,,$$oooo  XX##,,33<<&&&&%%%%%%$$$$%%%%##XX  XX@@##XXXXOOOOXXXX@@%%##@@################XXXX",
"$$5522,,--**,,%%,,<<##  <<5511&&1111&&,,$$##oo  XX##@@,,,,%%%%####@@  oo@@##@@    XX@@##@@@@XXXXXX@@@@                        XX",
"$$5522,,--**,,%%,,<<##  <<5511&&1111&&,,$$##oo  XX##@@,,,,%%%%####@@  oo@@##@@    XX@@##@@@@XXXXXX@@@@                        XX",
"$$552211,,<<,,--==%%##  &&55<<<<11,,$$,,&&##oo  ..@@@@XX......    ......XXXXXXXXXXXX@@@@@@@@@@@@@@@@@@@@@@@@XXXXXXXXXXXXXXXXXXXX",
"$$552211,,<<,,--==%%##  &&55<<<<11,,$$,,&&##oo  ..@@@@XX......    ......XXXXXXXXXXXX@@@@@@@@@@@@@@@@@@@@@@@@XXXXXXXXXXXXXXXXXXXX",
"$$55----<<,,--==**%%##  ##661111,,,,,,11&&##OO  ..@@@@@@XXXXXXXXXX@@@@@@####$$$$$$%%%%&&&&&&&&&&********&&&&&&&&&&&&&&&&&&&&XX##",
"$$55----<<,,--==**%%##  ##661111,,,,,,11&&##OO  ..@@@@@@XXXXXXXXXX@@@@@@####$$$$$$%%%%&&&&&&&&&&********&&&&&&&&&&&&&&&&&&&&XX##",
"$$----**11<<==++++$$##  @@66<<,,==&&,,&&&&##OO  ..XX$$==============**&&&&,,<<<<11111111112222;;;;;;--**3333::--33;;--**33&&XX##",
"$$----**11<<==++++$$##  @@66<<,,==&&,,&&&&##OO  ..XX$$==============**&&&&,,<<<<11111111112222;;;;;;--**3333::--33;;--**33&&XX##",
"$$--**&&<<<<,,++++$$  ..@@6611,,**$$11,,$$##OO    XX++;;;;;;;;;;;;;;;;==11331133<<3311333333;;--******2222::--3333------**$$..@@",
"$$--**&&<<<<,,++++$$  ..@@6611,,**$$11,,$$##OO    XX++;;;;;;;;;;;;;;;;==11331133<<3311333333;;--******2222::--3333------**$$..@@",
"$$--**&&11,,,,,,,,##  ..@@66,,11$$$$,,,,$$##OO    XX++;;--------------**1133111133;;==<<11<<--**11<<;;;;--&&,,33--==--**&&##..@@",
"$$--**&&11,,,,,,,,##  ..@@66,,11$$$$,,,,$$##OO    XX++;;--------------**1133111133;;==<<11<<--**11<<;;;;--&&,,33--==--**&&##..@@",
"$$--**,,,,11,,11,,##  XX@@5511111111,,11$$##oo    XX..----============**++,,331111====1111<<33<<11;;----&&,,<<11%%%%--%%%%##..XX",
"$$--**,,,,11,,11,,##  XX@@5511111111,,11$$##oo    XX..----============**++,,331111====1111<<33<<11;;----&&,,<<11%%%%--%%%%##..XX",
"@@**&&,,11,,11,,$$##  XX@@44,,,,11,,,,,,$$##XX    XX..,,,,,,==**==****++++%%113311,,&&<<33<<<<11;;&&&&&&<<1111<<,,,,--%%%%##..XX",
"@@**&&,,11,,11,,$$##  XX@@44,,,,11,,,,,,$$##XX    XX..,,,,,,==**==****++++%%113311,,&&<<33<<<<11;;&&&&&&<<1111<<,,,,--%%%%##..XX",
"@@,,,,,,,,&&$$####  ..XX@@2211,,,,11,,&&$$##XX    XX..335533==++++++++%%%%,,1133,,22,,<<<<;;;;<<,,&&%%,,,,::--2211,,--%%%%##..XX",
"@@,,,,,,,,&&$$####  ..XX@@2211,,,,11,,&&$$##XX    XX..335533==++++++++%%%%,,1133,,22,,<<<<;;;;<<,,&&%%,,,,::--2211,,--%%%%##..XX",
"@@&&&&%%$$########  ..XX@@<<<<11,,,,,,%%$$##XX    XX..225544**%%%%%%%%&&<<,,==112211,,22;;11,,,,11,,,,<<22--**11<<<<%%%%%%##  XX",
"@@&&&&%%$$########  ..XX@@<<<<11,,,,,,%%$$##XX    XX..225544**%%%%%%%%&&<<,,==112211,,22;;11,,,,11,,,,<<22--**11<<<<%%%%%%##  XX",
"@@XX  ############  XX@@@@&&$$$$$$$$$$$$####XX    XX..115544%%&&,,,,----**22,,,,22<<112211,,--11--11<<22--**<<1111<<----%%##  XX",
"@@XX  ############  XX@@@@&&$$$$$$$$$$$$####XX    XX..115544%%&&,,,,----**22,,,,22<<112211,,--11--11<<22--**<<1111<<----%%##  XX",
"######....    ..  ..XX@@XXXXXXXXXXXXXXXXXXXXXX    ....,,4422,,22<<22----++,,22,,22<<,,,,::--++<<1133<<11<<<<11<<,,,,22&&%%##  XX",
"######....    ..  ..XX@@XXXXXXXXXXXXXXXXXXXXXX    ....,,4422,,22<<22----++,,22,,22<<,,,,::--++<<1133<<11<<<<11<<,,,,22&&%%##  XX",
"@@@@@@@@XXXX........XX@@XXXX                        ..,,<<%%%%%%%%%%**++++,,11%%&&,,22::--++11,,11<<,,,,22&&,,,,;;<<,,<<%%##  XX",
"@@@@@@@@XXXX........XX@@XXXX                        ..,,<<%%%%%%%%%%**++++,,11%%&&,,22::--++11,,11<<,,,,22&&,,,,;;<<,,<<%%##  XX",
"@@&&11;;;;;;==,,$$@@@@##XXXX........................XX##@@XX............##%%%%&&,,--22++++&&&&%%$$&&,,,,,,&&&&22&&$$&&&&$$##  XX",
"@@&&11;;;;;;==,,$$@@@@##XXXX........................XX##@@XX............##%%%%&&,,--22++++&&&&%%$$&&,,,,,,&&&&22&&$$&&&&$$##  XX",
"@@11;;::;;;;;;;;--==11,,%%$$##@@XXXXXXXXXXXXXXXXXXXX@@##@@@@XXXXXXXXXXXX..@@##############################################  ..XX",
"@@11;;::;;;;;;;;--==11,,%%$$##@@XXXXXXXXXXXXXXXXXXXX@@##@@@@XXXXXXXXXXXX..@@##############################################  ..XX",
"@@11;;::--,,,,,,<<1133--::::;;;;;;----------**%%&&%%$$$$####@@@@@@@@@@XXXX..........    ............                      ..XX@@",
"@@11;;::--,,,,,,<<1133--::::;;;;;;----------**%%&&%%$$$$####@@@@@@@@@@XXXX..........    ............                      ..XX@@",
"@@1133<<--<<33332233223311,,,,================**,,,,331111111111,,@@##@@XXXXXXXXXXXXXXXXXX..............................XXXX@@@@",
"@@1133<<--<<33332233223311,,,,================**,,,,331111111111,,@@##@@XXXXXXXXXXXXXXXXXX..............................XXXX@@@@",
"@@113333<<33221111<<331122332211,,,,,,,,,,******,,<<3355::::,,33&&XX@@##@@@@@@XXXXXXXXXXXXXXXXXXXXXXXXXXXXXXXXXXXXXXXXXX@@@@@@##",
"@@113333<<33221111<<331122332211,,,,,,,,,,******,,<<3355::::,,33&&XX@@##@@@@@@XXXXXXXXXXXXXXXXXXXXXXXXXXXXXXXXXXXXXXXXXX@@@@@@##",
"@@112244332233::--**22224411443333;;==<<,,,,,,,,,,2211,,::**,,&&$$  XX##@@**------$$@@@@@@######++--==**++++OO@@@@@@@@@@########",
"@@112244332233::--**22224411443333;;==<<,,,,,,,,,,2211,,::**,,&&$$  XX##@@**------$$@@@@@@######++--==**++++OO@@@@@@@@@@########",
"@@11333311,,&&--**OO331133441111114433331133114411&&114411,,,,$$##  XX@@@@--******$$555522####==;;;;;;==&&;;111144;;22<<&&@@@@##",
"@@11333311,,&&--**OO331133441111114433331133114411&&114411,,,,$$##  XX@@@@--******$$555522####==;;;;;;==&&;;111144;;22<<&&@@@@##",
"@@11,,%%$$$$$$**OO%%&&%%$$%%&&%%$$$$$$%%&&,,11,,&&$$$$$$$$$$$$####XX  XX@@$$****++$$222222$$##,,&&&&&&&&&&1111,,;;==%%1155<<  ##",
"@@11,,%%$$$$$$**OO%%&&%%$$%%&&%%$$$$$$%%&&,,11,,&&$$$$$$$$$$$$####XX  XX@@$$****++$$222222$$##,,&&&&&&&&&&1111,,;;==%%1155<<  ##",
"@@,,$$@@XXXXXXXXXXXXXXXXXXXXXXXXXXXXXXXXXXXXXXXXXXXXXXXXXXXXXXXXXXXX  ..@@22**++$$<<$$<<,,$$@@,,,,11,,11;;;;1111==**%%,,11##  ##",
"@@,,$$@@XXXXXXXXXXXXXXXXXXXXXXXXXXXXXXXXXXXXXXXXXXXXXXXXXXXXXXXXXXXX  ..@@22**++$$<<$$<<,,$$@@,,,,11,,11;;;;1111==**%%,,11##  ##",
"@@XX                                                                  ..@@XXooOO##$$$$$$$$$$@@$$$$<<11;;;;==&&11**%%%%,,,,##  ##",
"@@XX                                                                  ..@@XXooOO##$$$$$$$$$$@@$$$$<<11;;;;==&&11**%%%%,,,,##  ##",
"##@@XXXXXX..............................................................XX@@ooooXX          XX@@####++OO######++OO##########  ##",
"##@@XXXXXX..............................................................XX@@ooooXX          XX@@####++OO######++OO##########  ##",
"########@@@@@@@@@@@@@@@@XXXXXXXXXXXXXXXXXXXXXXXXXXXXXXXXXXXXXXXXXXXXXXXXXX@@@@@@@@XXXXXXXXXXXX@@@@                            ##",
"########@@@@@@@@@@@@@@@@XXXXXXXXXXXXXXXXXXXXXXXXXXXXXXXXXXXXXXXXXXXXXXXXXX@@@@@@@@XXXXXXXXXXXX@@@@                            ##",
"XXXXXXXXXXXXXXXXXXXXXXXXXXXXXXXXXXXXXXXXXXXXXXXXXXXXXXXXXXXXXXXXXXXXXXXXXXXXXXXXXXXXXXXXXXXXXXXXXXXXXXXXXXXXXXXXXXXXXXXXXXXXXXXX",
"XXXXXXXXXXXXXXXXXXXXXXXXXXXXXXXXXXXXXXXXXXXXXXXXXXXXXXXXXXXXXXXXXXXXXXXXXXXXXXXXXXXXXXXXXXXXXXXXXXXXXXXXXXXXXXXXXXXXXXXXXXXXXXXX"
};
