/* XPM */
static char *walls4_2[] = {
/* columns rows colors chars-per-pixel */
"128 128 22 1 ",
"  c gray12",
". c gray23",
"X c #3F3F3F",
"o c gray28",
"O c #4B4B4B",
"+ c gray31",
"@ c #535353",
"# c gray34",
"$ c #5F5F5F",
"% c #676767",
"& c gray42",
"* c gray45",
"= c #7B7B7B",
"- c #838383",
"; c gray56",
": c #9B9B9B",
"> c gray67",
", c #B7B7B7",
"< c gray78",
"1 c LightGray",
"2 c #DFDFDF",
"3 c #EFEFEF",
/* pixels */
"  ..  ..  ..  ..  ..  ..  ..  ..  ..  ..  ..  ..  ..  ..  ..  ..  ..  ..  ..  ..  ..  ..  ..  ..  ..  ..  ..  ..  ..  ..  ..  ..",
"  ..  ..  ..  ..  ..  ..  ..  ..  ..  ..  ..  ..  ..  ..  ..  ..  ..  ..  ..  ..  ..  ..  ..  ..  ..  ..  ..  ..  ..  ..  ..  ..",
"##@@##++##++##++##++OO11222222112211222222112211222222  ..-->>,,11<<1111<<11,,<<>>--##  oooooooooooooooooooo@@++##++##++##++##++",
"##@@##++##++##++##++OO11222222112211222222112211222222  ..-->>,,11<<1111<<11,,<<>>--##  oooooooooooooooooooo@@++##++##++##++##++",
"@@##@@@@##@@@@@@##@@oo2211<<11,,111111<<1111,,1111<<;;  ..--<<,,;;>>--;;;;;;;;-->>++..  ..&&;;;;--;;;;;;==&&%%ooooooOOooooooOOoo",
"@@##@@@@##@@@@@@##@@oo2211<<11,,111111<<1111,,1111<<;;  ..--<<,,;;>>--;;;;;;;;-->>++..  ..&&;;;;--;;;;;;==&&%%ooooooOOooooooOOoo",
";;;;--;;;;;;--;;  @@OO22<<<<,,11,,<<<<,,<<<<,,,,11;;$$  ..>>11>>;;>>;;>>-->>;;>>--##..  ..;;112222221122,,,,>>;;--;;;;;;--;;;;;;",
";;;;--;;;;;;--;;  @@OO22<<<<,,11,,<<<<,,<<<<,,,,11;;$$  ..>>11>>;;>>;;>>-->>;;>>--##..  ..;;112222221122,,,,>>;;--;;;;;;--;;;;;;",
"11111111,,>>;;--  ##oo2211>>>>::>>;;>>>>>>>>::>>>>==@@  ..;;,,;;;;-->>>>>>>>--;;**++..  ..--2222,,<<,,11222222112211<<111111<<11",
"11111111,,>>;;--  ##oo2211>>>>::>>;;>>>>>>>>::>>>>==@@  ..;;,,;;;;-->>>>>>>>--;;**++..  ..--2222,,<<,,11222222112211<<111111<<11",
">>>>>>>>::>>==**  @@oo33,,::>>>>>>>>::>>;;>>-->>>>&&@@  ..oo>>;;>>>>--;;::;;>>&&##@@..  ..;;11,,>>;;>>;;>>>>::;;;;>>;;>>-->>;;::",
">>>>>>>>::>>==**  @@oo33,,::>>>>>>>>::>>;;>>-->>>>&&@@  ..oo>>;;>>>>--;;::;;>>&&##@@..  ..;;11,,>>;;>>;;>>>>::;;;;>>;;>>-->>;;::",
",,::::::>>;;==&&  OOoo3311>>-->>;;>>;;::::::;;;;>>;;++  ..oo==;;-->>;;>>>>-->>**......  ..--22,,;;>>--::--;;;;>>--;;::;;>>::;;::",
",,::::::>>;;==&&  OOoo3311>>-->>;;>>;;::::::;;;;>>;;++  ..oo==;;-->>;;>>>>-->>**......  ..--22,,;;>>--::--;;;;>>--;;::;;>>::;;::",
",,>>--,,--::$$##  ..oo33<<;;::;;>>>>::;;==;;;;>>;;$$##  ..oooo;;>>>>::;;;;;;>>&&......  ..;;22>>>>--::==>>::==;;>>-->>>>;;==>>::",
",,>>--,,--::$$##  ..oo33<<;;::;;>>>>::;;==;;;;>>;;$$##  ..oooo;;>>>>::;;;;;;>>&&......  ..;;22>>>>--::==>>::==;;>>-->>>>;;==>>::",
"::>>>>;;::**ooOO    OO<<,,>>::>>-->>;;::--::;;;;>>&&@@    OO@@oo==................    ....**2222;;>>----::**::;;>>;;;;==>>>>**;;",
"::>>>>;;::**ooOO    OO<<,,>>::>>-->>;;::--::;;;;>>&&@@    OO@@oo==................    ....**2222;;>>----::**::;;>>;;;;==>>>>**;;",
";;;;--;;**@@oooo  ..oo>>33>>::>>;;;;;;;;;;;;-->>--##==    ..oo..............  ..      oooooo<<<<;;;;;;;;::::::--;;>>;;>>>>-->>;;",
";;;;--;;**@@oooo  ..oo>>33>>::>>;;;;;;;;;;;;-->>--##==    ..oo..............  ..      oooooo<<<<;;;;;;;;::::::--;;>>;;>>>>-->>;;",
"**&&****++OO....    OO;;11;;>>;;;;==;;;;>>-->>;;>>&&##..  ..oo..              ..  ..  OO@@oo<<>>;;>>-->>;;--;;**&&%%$$$$%%$$%%$$",
"**&&****++OO....    OO;;11;;>>;;;;==;;;;>>-->>;;>>&&##..  ..oo..              ..  ..  OO@@oo<<>>;;>>-->>;;--;;**&&%%$$$$%%$$%%$$",
"@@##oooooo        ..XX**22>>--::======>>::;;--==;;&&%%..  ..ooooOOOO**==;;>>::>>>>::**..++OO,,;;&&**%%$$%%##@@@@@@ooOOooOOooooOO",
"@@##oooooo        ..XX**22>>--::======>>::;;--==;;&&%%..  ..ooooOOOO**==;;>>::>>>>::**..++OO,,;;&&**%%$$%%##@@@@@@ooOOooOOooooOO",
"          ..  ..  ..@@oo22<<;;;;;;::::--;;>>==;;>>;;++..  ..XX**>>>>112233111111::&&@@  @@oo;;&&%%$$@@OOoooo..........  ..  ..  ",
"          ..  ..  ..@@oo22<<;;;;;;::::--;;>>==;;>>;;++..  ..XX**>>>>112233111111::&&@@  @@oo;;&&%%$$@@OOoooo..........  ..  ..  ",
"  ..  ..    ..  ....++oo>>11;;>>--==;;>>;;--::;;--**++..    ..>>,,2211,,-->>;;>>--**..  ......................                  ",
"  ..  ..    ..  ....++oo>>11;;>>--==;;>>;;--::;;--**++..    ..>>,,2211,,-->>;;>>--**..  ......................                  ",
"....................OOOO;;<<>>-->>::--==;;==;;>>;;++##..  ..XX>>22,,>>;;;;;;--;;;;++..  ..    ..    ..    ..  XXXX..............",
"....................OOOO;;<<>>-->>::--==;;==;;>>;;++##..  ..XX>>22,,>>;;;;;;--;;;;++..  ..    ..    ..    ..  XXXX..............",
"@@OO............  ..@@oo**<<-->>::;;>>::>>-->>-->>++**oo    OO>>33>>;;-->>;;>>-->>@@..  ..oo##@@####  ooOOooooOOooooooooooooooXX",
"@@OO............  ..@@oo**<<-->>::;;>>::>>-->>-->>++**oo    OO>>33>>;;-->>;;>>-->>@@..  ..oo##@@####  ooOOooooOOooooooooooooooXX",
"::::;;::;;::;;::::    ##oo<<,,::;;--::::**;;;;;;;;&&##@@    OO>>33--;;>>>>-->>;;;;++..  ..&&>>2211##oo@@==::::;;::::::;;::::::::",
"::::;;::;;::;;::::    ##oo<<,,::;;--::::**;;;;;;;;&&##@@    OO>>33--;;>>>>-->>;;;;++..  ..&&>>2211##oo@@==::::;;::::::;;::::::::",
"11<<1111<<11,,>>**XX  ##oo;;,,;;>>;;==;;;;-->>;;&&;;&&OO    OO>><<>>>>;;-->>;;>>--##..  ..>>11<<>>  oo==<<1122222211222222112211",
"11<<1111<<11,,>>**XX  ##oo;;,,;;>>;;==;;;;-->>;;&&;;&&OO    OO>><<>>>>;;-->>;;>>--##..  ..>>11<<>>  oo==<<1122222211222222112211",
">>::;;>>;;>>>>&&**..  @@oo**::>>-->>>>-->>**;;&&@@**@@OO    OO>><<>>;;&&****&&@@##@@..  ..11<<>>--  OO::1111,,,,>>,,,,,,>>,,,,,,",
">>::;;>>;;>>>>&&**..  @@oo**::>>-->>>>-->>**;;&&@@**@@OO    OO>><<>>;;&&****&&@@##@@..  ..11<<>>--  OO::1111,,,,>>,,,,,,>>,,,,,,",
">>;;::;;>>--;;&&**..  oo@@oo::;;****&&**@@@@**++**@@oo      ..::;;**;;&&..............  $$22>>;;;;  oo::22>>>>::>>;;>>;;::--::::",
">>;;::;;>>--;;&&**..  oo@@oo::;;****&&**@@@@**++**@@oo      ..::;;**;;&&..............  $$22>>;;;;  oo::22>>>>::>>;;>>;;::--::::",
">>;;;;>>-->>>>&&##..  oo@@oo%%@@##@@##oooooo..                ;;**......                $$22>>>>--  OO::11>>;;::--::;;::**--;;--",
">>;;;;>>-->>>>&&##..  oo@@oo%%@@##@@##oooooo..                ;;**......                $$22>>>>--  OO::11>>;;::--::;;::**--;;--",
">>;;>>;;>>--;;**++..  oo@@oo  ..  ..                        ....++..          ..    ..  ;;22>>>>;;  oo;;<<-->>::>>;;>>;;::--::::",
">>;;>>;;>>--;;**++..  oo@@oo  ..  ..                        ....++..          ..    ..  ;;22>>>>;;  oo;;<<-->>::>>;;>>;;::--::::",
";;>>**==;;;;>>&&##..  ..++##OO..                ++OOOO++OOOOoo;;;;;;>>>>;;;;;;==##  XX%%,,22>>--==  OO--<<>>--::;;::--::====;;;;",
";;>>**==;;;;>>&&##..  ..++##OO..                ++OOOO++OOOOoo;;;;;;>>>>;;;;;;==##  XX%%,,22>>--==  OO--<<>>--::;;::--::====;;;;",
";;----==;;>>--%%oo..  ..--22222211<<>>>>;;$$..OO%%==>>>>,,<<<<22222211222222<<::%%  ..==22<<::>>**  oo--,,>>::;;>>-->>;;====;;;;",
";;----==;;>>--%%oo..  ..--22222211<<>>>>;;$$..OO%%==>>>>,,<<<<22222211222222<<::%%  ..==22<<::>>**  oo--,,>>::;;>>-->>;;====;;;;",
";;;;>>>>--;;;;$$OO..  ..11<<>>;;::::>>;;::..++OO==11332222<<,,,,<<,,<<,,<<,,<<&&##  ..;;22>>::;;&&  OO&&<<-->>;;;;::;;-->>;;>>;;",
";;;;>>>>--;;;;$$OO..  ..11<<>>;;::::>>;;::..++OO==11332222<<,,,,<<,,<<,,<<,,<<&&##  ..;;22>>::;;&&  OO&&<<-->>;;;;::;;-->>;;>>;;",
"::>>--;;>>--**@@....  ..22::;;::>>>>;;::>>  @@OO::22<<;;>>-->>::-->>::>>::;;--%%oo  ..;;33>>-->>##  OOoo;;**$$##@@@@%%%%&&==;;--",
"::>>--;;>>--**@@....  ..22::;;::>>>>;;::>>  @@OO::22<<;;>>-->>::-->>::>>::;;--%%oo  ..;;33>>-->>##  OOoo;;**$$##@@@@%%%%&&==;;--",
"%%$$%%$$%%@@oo......  ..11>>>>>>-->>;;>>$$  OOoo::33>>::>>;;==>>>>;;--;;>>-->>##oo  ..--33>>>>;;##  @@  ....ooooooooOOoooo@@##@@",
"%%$$%%$$%%@@oo......  ..11>>>>>>-->>;;>>$$  OOoo::33>>::>>;;==>>>>;;--;;>>-->>##oo  ..--33>>>>;;##  @@  ....ooooooooOOoooo@@##@@",
"@@OOoo......          ..22-->>;;>>>>;;==$$  OOoo::33-->>;;::>>--;;==;;>>;;;;;;++OO  ..;;33-->>;;++  ##..                  ....oo",
"@@OOoo......          ..22-->>;;>>>>;;==$$  OOoo::33-->>;;::>>--;;==;;>>;;;;;;++OO  ..;;33-->>;;++  ##..                  ....oo",
"              ..  OOOOoo22>>::-->>;;>>==$$  ..oo::33;;;;>>--;;==;;==;;--;;>>;;++OO  ..--33>>>>--##  ##..............  ..        ",
"              ..  OOOOoo22>>::-->>;;>>==$$  ..oo::33;;;;>>--;;==;;==;;--;;>>;;++OO  ..--33>>>>--##  ##..............  ..        ",
"oo%%%%&&;;::;;--;;;;oo  22>>**::;;>>----%%..  oo;;33>>;;--;;==;;==;;>>==;;-->>@@oo  ..;;33;;>>>>++  ##ooXXoo++@@++##@@@@##......",
"oo%%%%&&;;::;;--;;;;oo  22>>**::;;>>----%%..  oo;;33>>;;--;;==;;==;;>>==;;-->>@@oo  ..;;33;;>>>>++  ##ooXXoo++@@++##@@@@##......",
"%%;;,,2211221111<<>>**  22>>>>--==;;>>--%%..  oo;;22,,::;;>>;;>>**==;;==;;>>--##..  ..;;11;;;;>>++  OO>>2211,,;;$$##ooooOOoooo@@",
"%%;;,,2211221111<<>>**  22>>>>--==;;>>--%%..  oo;;22,,::;;>>;;>>**==;;==;;>>--##..  ..;;11;;;;>>++  OO>>2211,,;;$$##ooooOOoooo@@",
"%%>>11<<<<,,>>>>::>>XX  33;;::>>==;;>>::&&oo  OO==11<<>>--;;**;;====>>;;>>----++..  ..;;22>>;;;;@@  OO22--;;,,222211222222;;..@@",
"%%>>11<<<<,,>>>>::>>XX  33;;::>>==;;>>::&&oo  OO==11<<>>--;;**;;====>>;;>>----++..  ..;;22>>;;;;@@  OO22--;;,,222211222222;;..@@",
"%%22,,>>>>-->>;;>>--**  33::>>;;>>>>-->>&&OO  ..++<<22>>>>::;;>>-->>====;;>>&&##..  XX;;11;;>>;;++  OO22;;-->>>>--;;>>;;----..++",
"%%22,,>>>>-->>;;>>--**  33::>>;;>>>>-->>&&OO  ..++<<22>>>>::;;>>-->>====;;>>&&##..  XX;;11;;>>;;++  OO22;;-->>>>--;;>>;;----..++",
"%%11,,::-->>;;>>-->>**  33::--::>>;;>>--%%@@    ##>>33>>>>::;;;;==;;====>>--**oo..  OO;;11>>>>--##  oo22>>>>--;;>>>>-->>;;$$..oo",
"%%11,,::-->>;;>>-->>**  33::--::>>;;>>--%%@@    ##>>33>>>>::;;;;==;;====>>--**oo..  OO;;11>>>>--##  oo22>>>>--;;>>>>-->>;;$$..oo",
"%%22>>;;>>;;>>>>==>>++  22>>>>>>;;;;;;>>%%++  ..++;;33,,>>;;>>--;;::-->>;;>>$$oo  ..XX;;11::;;>>++  OO<<>>;;>>>>--;;>>;;>>$$..oo",
"%%22>>;;>>;;>>>>==>>++  22>>>>>>;;;;;;>>%%++  ..++;;33,,>>;;>>--;;::-->>;;>>$$oo  ..XX;;11::;;>>++  OO<<>>;;>>>>--;;>>;;>>$$..oo",
"%%22>>>>;;;;::::>>--##  22,,==::==>>>>::$$##    OO&&11,,>>;;==::--;;::;;;;;;$$..    OO;;11;;>>++##  OO<<>>::>>;;>>--;;>>::##..oo",
"%%22>>>>;;;;::::>>--##  22,,==::==>>>>::$$##    OO&&11,,>>;;==::--;;::;;;;;;$$..    OO;;11;;>>++##  OO<<>>::>>;;>>--;;>>::##..oo",
"%%11,,;;>>>>;;>>-->>@@  <<22--::>>;;;;;;$$##    OO@@,,22>>-->>;;>>;;>>--;;%%@@..  ..oo==>>==++......XX>>>>;;>>::;;>>;;-->>##....",
"%%11,,;;>>>>;;>>-->>@@  <<22--::>>;;;;;;$$##    OO@@,,22>>-->>;;>>;;>>--;;%%@@..  ..oo==>>==++......XX>>>>;;>>::;;>>;;-->>##....",
"%%22,,>>::;;>>;;>>;;++  ,,22==>>--;;;;>>&&##    ..++;;,,>>;;==%%$$@@ooOO........  ..XX##........XXoo  **++oo@@##@@##@@@@##@@....",
"%%22,,>>::;;>>;;>>;;++  ,,22==>>--;;;;>>&&##    ..++;;,,>>;;==%%$$@@ooOO........  ..XX##........XXoo  **++oo@@##@@##@@@@##@@....",
"%%22>>;;>>>>-->>==>>@@  ::11::==>>>>--;;&&##    ..@@oo;;;;$$##oo..                ..oo++oooo++@@##@@##                        ..",
"%%22>>;;>>>>-->>==>>@@  ::11::==>>>>--;;&&##    ..@@oo;;;;$$##oo..                ..oo++oooo++@@##@@##                        ..",
"%%11,,;;--::>>;;>>--##  ==22>>::>>--;;>>%%++      ++oo..  ..        ..  ..    ..  ..oo@@##ooooOOooooooOOoooo....................",
"%%11,,;;--::>>;;>>--##  ==22>>::>>--;;>>%%++      ++oo..  ..        ..  ..    ..  ..oo@@##ooooOOooooooOOoooo....................",
"%%22,,>>>>--::>>;;>>@@  ##33;;::;;;;>>--%%@@    ..oooooo..........OOooOOXX++OOooOOoooo##@@================================**..++",
"%%22,,>>>>--::>>;;>>@@  ##33;;::;;;;>>--%%@@    ..oooooo..........OOooOOXX++OOooOOoooo##@@================================**..++",
"%%22>>;;;;>>-->>;;&&##  oo33>>;;--==;;>>&&##      XX%%==========================;;;;;;::>>,,>><<,,<<,,<<,,,,<<,,<<,,<<,,<<==..++",
"%%22>>;;;;>>-->>;;&&##  oo33>>;;--==;;>>&&##      XX%%==========================;;;;;;::>>,,>><<,,<<,,<<,,,,<<,,<<,,<<,,<<==..++",
"%%<<,,>>>>;;>>;;>>++    ++33::;;>>;;;;--%%##..    ..==<<,,<<,,<<,,<<<<,,<<,,<<,,<<,,112222333333333333333333333311221111;;%%  OO",
"%%<<,,>>>>;;>>;;>>++    ++33::;;>>;;;;--%%##..    ..==<<,,<<,,<<,,<<<<,,<<,,<<,,<<,,112222333333333333333333333311221111;;%%  OO",
"%%11,,;;>>;;>>>>--##  ..XX33;;>>==::-->>%%++..      ==<<<<33333333332222333322333333333322221111,,,,,,<<,,>>,,<<,,,,<<,,==##  ++",
"%%11,,;;>>;;>>>>--##  ..XX33;;>>==::-->>%%++..      ==<<<<33333333332222333322333333333322221111,,,,,,<<,,>>,,<<,,,,<<,,==##  ++",
"%%,,,,>>;;>>--;;;;++  ..oo22>>>>-->>;;;;$$##..      ==<<<<,,<<,,<<,,<<>>,,<<>>,,<<,,,,>>>>::::;;;;>>;;>>--;;;;>>-->>;;>>&&##....",
"%%,,,,>>;;>>--;;;;++  ..oo22>>>>-->>;;;;$$##..      ==<<<<,,<<,,<<,,<<>>,,<<>>,,<<,,,,>>>>::::;;;;>>;;>>--;;;;>>-->>;;>>&&##....",
"OO<<--;;>>--**&&**@@  ..oo11--;;>>-->>;;&&##..      %%,,22,,;;;;--;;;;;;>>-->>>>;;;;::>>>>>>;;==::-->>>>::-->>;;>>>>::;;&&@@  ..",
"OO<<--;;>>--**&&**@@  ..oo11--;;>>-->>;;&&##..      %%,,22,,;;;;--;;;;;;>>-->>>>;;;;::>>>>>>;;==::-->>>>::-->>;;>>>>::;;&&@@  ..",
"oo,,>>>>::;;##@@@@    XXoo,,>>--;;>>;;--**@@..      oo<<22,,;;;;;;>>;;::;;::>>--;;::>>>>--::;;::;;;;==--::::;;>>-->>;;>>&&##....",
"oo,,>>>>::;;##@@@@    XXoo,,>>--;;>>;;--**@@..      oo<<22,,;;;;;;>>;;::;;::>>--;;::>>>>--::;;::;;;;==--::::;;>>-->>;;>>&&##....",
"oo======##@@##@@@@  ....XX::::>>--;;;;&&%%@@..        ,,2211>>>>--;;;;;;==;;-->>;;::-->>::==--;;>>--;;>>;;==**;;==::;;;;**@@  ..",
"oo======##@@##@@@@  ....XX::::>>--;;;;&&%%@@..        ,,2211>>>>--;;;;;;==;;-->>;;::-->>::==--;;>>--;;>>;;==**;;==::;;;;**@@  ..",
"oo..      ##@@@@##  ..XXOO==%%$$%%%%$$%%@@@@..      ..>>1111;;-->>;;>>--;;>>;;====::::-->>;;>>;;;;>>--;;==;;;;-->>;;**--&&##  ..",
"oo..      ##@@@@##  ..XXOO==%%$$%%%%$$%%@@@@..      ..>>1111;;-->>;;>>--;;>>;;====::::-->>;;>>;;;;>>--;;==;;;;-->>;;**--&&##  ..",
"@@##@@oo..        ....XX......................        ;;11,,>>;;;;>>-->>==;;--::==::;;::==>>--;;==;;;;;;-->>;;==;;;;--==&&##  ..",
"@@##@@oo..        ....XX......................        ;;11,,>>;;;;>>-->>==;;--::==::;;::==>>--;;==;;;;;;-->>;;==;;;;--==&&##  ..",
"ooOOooooooOOoo..    ..OO....                        ..--::&&****&&****&&>>;;>>>>--;;==--;;;;==;;;;>>-->>;;;;>>--;;;;;;::&&##  ..",
"ooOOooooooOOoo..    ..OO....                        ..--::&&****&&****&&>>;;>>>>--;;==--;;;;==;;;;>>-->>;;;;>>--;;;;;;::&&##  ..",
"oo==>>>>>>>>;;;;%%OOOO@@....    ..    ..    ..  ..  ..@@oo....  ..  ..  ##**&&==;;======================================%%++  ..",
"oo==>>>>>>>>;;;;%%OOOO@@....    ..    ..    ..  ..  ..@@oo....  ..  ..  ##**&&==;;======================================%%++  ..",
"oo>><<1122112222,,>>>>;;&&$$##OO....................XX##oooo............  OO@@@@##@@##@@##@@##@@@@@@##@@##@@@@##@@##@@@@@@  ....",
"oo>><<1122112222,,>>>>;;&&$$##OO....................XX##oooo............  OO@@@@##@@##@@##@@##@@@@@@##@@##@@@@##@@##@@@@@@  ....",
"oo>>11>>>>;;,,11222222,,>>>>>>>>>>>>>>::;;;;--====&&%%%%++##ooooooXXoo....  ..  ..  ..  ..  ..  ..                          ..XX",
"oo>>11>>>>;;,,11222222,,>>>>>>>>>>>>>>::;;;;--====&&%%%%++##ooooooXXoo....  ..  ..  ..  ..  ..  ..                          ..XX",
"oo>>22>>>>>>,,>>;;>>,,222222112211221122222222<<11<<,,>>>>>>>>>>--OO@@oo..................    ..  ..  ..  ..  ..  ..  ......ooOO",
"oo>>22>>>>>>,,>>;;>>,,222222112211221122222222<<11<<,,>>>>>>>>>>--OO@@oo..................    ..  ..  ..  ..  ..  ..  ......ooOO",
"oo>>22>>-->>====>>::;;==>>-->>;;>>;;>>>>-->>;;>>>>>><<11221111,,--..oo++OOoooo......  ..................................XXooOO@@",
"oo>>22>>-->>====>>::;;==>>-->>;;>>;;>>>>-->>;;>>>>>><<11221111,,--..oo++OOoooo......  ..................................XXooOO@@",
"oo>><<>>>>>>;;>>;;;;;;::>>--;;>>==**;;>>==;;--;;>>-->>;;>>>>>>==%%  ..++OO>>1122::==OOOOoo@@@@@@ooooXXooooooXXooooXXoooo++##@@@@",
"oo>><<>>>>>>;;>>;;;;;;::>>--;;>>==**;;>>==;;--;;>>-->>;;>>>>>>==%%  ..++OO>>1122::==OOOOoo@@@@@@ooooXXooooooXXooooXXoooo++##@@@@",
"oo>><<>>-->>====::>>-->>>>::--==>>==;;==::-->>;;>>;;>>-->>>>::%%@@  ..oooo22>>>>22222211,,@@@@OO,,2222112222221111<<>>::==OOoo@@",
"oo>><<>>-->>====::>>-->>>>::--==>>==;;==::-->>;;>>;;>>-->>>>::%%@@  ..oooo22>>>>22222211,,@@@@OO,,2222112222221111<<>>::==OOoo@@",
"oo>>--%%$$%%$$%%$$%%%%$$%%$$%%%%$$%%$$%%$$%%%%$$%%$$%%$$%%$$%%##@@..  ..oo11,,>>,,>>,,,,,,$$##==22::>>>>;;>>-->>::>>;;>>11::  @@",
"oo>>--%%$$%%$$%%$$%%%%$$%%$$%%%%$$%%$$%%$$%%%%$$%%$$%%$$%%$$%%##@@..  ..oo11,,>>,,>>,,,,,,$$##==22::>>>>;;>>-->>::>>;;>>11::  @@",
"oo;;%%..............................................................    OO,,>>,,,,::$$::--%%oo,,>>;;>>-->>>>>>-->>;;>>-->>@@  ##",
"oo;;%%..............................................................    OO,,>>,,,,::$$::--%%oo,,>>;;>>-->>>>>>-->>;;>>-->>@@  ##",
"oo..                                                                    ++..oo..++%%$$%%%%$$OO22::::::>>>>;;::>>::::>>;;;;++  ##",
"oo..                                                                    ++..oo..++%%$$%%%%$$OO22::::::>>>>;;::>>::::>>;;;;++  ##",
"@@OO......  ..    ..    ..    ..  ..    ..    ..    ..    ..    ..  ..  XX++##....          ..@@##@@@@@@@@@@##++@@##@@##++##  @@",
"@@OO......  ..    ..    ..    ..  ..    ..    ..    ..    ..    ..  ..  XX++##....          ..@@##@@@@@@@@@@##++@@##@@##++##  @@",
"@@##++@@ooooooOOOOooOOOO..................................................++##++@@............++@@                            ##",
"@@##++@@ooooooOOOOooOOOO..................................................++##++@@............++@@                            ##",
"................................................................................................................................",
"................................................................................................................................"
};
